<svg width="80" height="100" viewBox="0 0 80 100" fill="none" xmlns="http://www.w3.org/2000/svg">
    <g filter="url(#filter0_d_15_42)">
        <path d="M40 16.6667C28.7063 16.6667 19.1667 26.2063 19.1667 37.5C19.1667 48.7938 28.7063 58.3333 40 58.3333C51.2938 58.3333 60.8334 48.7938 60.8334 37.5C60.8334 26.2063 51.2938 16.6667 40 16.6667ZM40 27.0833C43.5979 27.0833 46.25 29.7333 46.25 33.3333C46.25 36.9333 43.5979 39.5833 40 39.5833C36.4042 39.5833 33.75 36.9333 33.75 33.3333C33.75 29.7333 36.4042 27.0833 40 27.0833ZM29.3625 47.4417C31.2313 44.6917 34.3479 42.8583 37.9167 42.8583H42.0834C45.6542 42.8583 48.7688 44.6917 50.6375 47.4417C47.975 50.2917 44.1979 52.0833 40 52.0833C35.8021 52.0833 32.025 50.2917 29.3625 47.4417Z" fill="#27AEB9"/>
        <path d="M12.5238 82.76C11.5771 82.76 10.6871 82.5733 9.85375 82.2C9.02042 81.82 8.28708 81.3 7.65375 80.64C7.02708 79.9733 6.53375 79.2 6.17375 78.32C5.82042 77.44 5.64375 76.5 5.64375 75.5C5.64375 74.5 5.82042 73.56 6.17375 72.68C6.53375 71.8 7.02708 71.03 7.65375 70.37C8.28708 69.7033 9.02042 69.1833 9.85375 68.81C10.6871 68.43 11.5771 68.24 12.5238 68.24C13.6571 68.24 14.7004 68.5033 15.6538 69.03C16.6071 69.5567 17.3971 70.2567 18.0238 71.13L16.5338 71.93C16.0671 71.3167 15.4771 70.83 14.7638 70.47C14.0571 70.1033 13.3104 69.92 12.5238 69.92C11.7971 69.92 11.1171 70.0667 10.4838 70.36C9.85708 70.6533 9.30708 71.0567 8.83375 71.57C8.36042 72.0833 7.99042 72.6767 7.72375 73.35C7.45708 74.0233 7.32375 74.74 7.32375 75.5C7.32375 76.2667 7.45708 76.9867 7.72375 77.66C7.99708 78.3333 8.37042 78.9267 8.84375 79.44C9.32375 79.9533 9.87708 80.3567 10.5038 80.65C11.1371 80.9367 11.8104 81.08 12.5238 81.08C13.3371 81.08 14.0904 80.8967 14.7838 80.53C15.4838 80.1567 16.0671 79.67 16.5338 79.07L18.0238 79.88C17.3971 80.7533 16.6071 81.4533 15.6538 81.98C14.7004 82.5 13.6571 82.76 12.5238 82.76ZM20.0477 82.5V67.5H21.7277V82.5H20.0477ZM24.1297 72.5H25.8097V82.5H24.1297V72.5ZM24.9897 70.87C24.723 70.87 24.4997 70.7833 24.3197 70.61C24.1397 70.4367 24.0497 70.22 24.0497 69.96C24.0497 69.7 24.1397 69.4833 24.3197 69.31C24.4997 69.1367 24.7197 69.05 24.9797 69.05C25.2397 69.05 25.4597 69.1367 25.6397 69.31C25.8197 69.4833 25.9097 69.7 25.9097 69.96C25.9097 70.22 25.8197 70.4367 25.6397 70.61C25.4664 70.7833 25.2497 70.87 24.9897 70.87ZM32.475 82.76C31.555 82.76 30.715 82.5233 29.955 82.05C29.2017 81.5767 28.5983 80.9433 28.145 80.15C27.6983 79.35 27.475 78.4667 27.475 77.5C27.475 76.7667 27.605 76.0833 27.865 75.45C28.125 74.81 28.4817 74.25 28.935 73.77C29.395 73.2833 29.9283 72.9033 30.535 72.63C31.1417 72.3567 31.7883 72.22 32.475 72.22C33.2283 72.22 33.9183 72.3733 34.545 72.68C35.1783 72.98 35.7183 73.4 36.165 73.94C36.6183 74.48 36.955 75.1067 37.175 75.82C37.4017 76.5333 37.485 77.2967 37.425 78.11H29.265C29.345 78.6767 29.5317 79.1833 29.825 79.63C30.1183 80.07 30.4917 80.42 30.945 80.68C31.405 80.94 31.915 81.0733 32.475 81.08C33.075 81.08 33.6183 80.9267 34.105 80.62C34.5917 80.3067 34.985 79.88 35.285 79.34L36.995 79.74C36.595 80.6267 35.9917 81.3533 35.185 81.92C34.3783 82.48 33.475 82.76 32.475 82.76ZM29.215 76.79H35.735C35.6817 76.23 35.5017 75.72 35.195 75.26C34.8883 74.7933 34.4983 74.42 34.025 74.14C33.5517 73.86 33.035 73.72 32.475 73.72C31.915 73.72 31.4017 73.8567 30.935 74.13C30.4683 74.4033 30.0817 74.7733 29.775 75.24C29.475 75.7 29.2883 76.2167 29.215 76.79ZM47.9502 76.28V82.5H46.2702V76.65C46.2702 76.1433 46.1468 75.6833 45.9002 75.27C45.6535 74.8567 45.3235 74.53 44.9102 74.29C44.4968 74.0433 44.0368 73.92 43.5302 73.92C43.0302 73.92 42.5702 74.0433 42.1502 74.29C41.7368 74.53 41.4068 74.8567 41.1602 75.27C40.9135 75.6833 40.7902 76.1433 40.7902 76.65V82.5H39.1102V72.5H40.7902V73.75C41.1435 73.2833 41.5902 72.9133 42.1302 72.64C42.6702 72.36 43.2568 72.22 43.8902 72.22C44.6368 72.22 45.3168 72.4033 45.9302 72.77C46.5502 73.13 47.0402 73.6167 47.4002 74.23C47.7668 74.8433 47.9502 75.5267 47.9502 76.28ZM55.13 74.18H52.86L52.85 82.5H51.17L51.18 74.18H49.46V72.5H51.18L51.17 69.36H52.85L52.86 72.5H55.13V74.18ZM61.0688 82.76C60.1488 82.76 59.3088 82.5233 58.5488 82.05C57.7954 81.5767 57.1921 80.9433 56.7388 80.15C56.2921 79.35 56.0688 78.4667 56.0688 77.5C56.0688 76.7667 56.1988 76.0833 56.4588 75.45C56.7188 74.81 57.0754 74.25 57.5288 73.77C57.9888 73.2833 58.5221 72.9033 59.1288 72.63C59.7354 72.3567 60.3821 72.22 61.0688 72.22C61.8221 72.22 62.5121 72.3733 63.1388 72.68C63.7721 72.98 64.3121 73.4 64.7588 73.94C65.2121 74.48 65.5488 75.1067 65.7688 75.82C65.9954 76.5333 66.0788 77.2967 66.0188 78.11H57.8588C57.9388 78.6767 58.1254 79.1833 58.4188 79.63C58.7121 80.07 59.0854 80.42 59.5388 80.68C59.9988 80.94 60.5088 81.0733 61.0688 81.08C61.6688 81.08 62.2121 80.9267 62.6988 80.62C63.1854 80.3067 63.5788 79.88 63.8788 79.34L65.5888 79.74C65.1888 80.6267 64.5854 81.3533 63.7788 81.92C62.9721 82.48 62.0688 82.76 61.0688 82.76ZM57.8088 76.79H64.3288C64.2754 76.23 64.0954 75.72 63.7888 75.26C63.4821 74.7933 63.0921 74.42 62.6188 74.14C62.1454 73.86 61.6288 73.72 61.0688 73.72C60.5088 73.72 59.9954 73.8567 59.5288 74.13C59.0621 74.4033 58.6754 74.7733 58.3688 75.24C58.0688 75.7 57.8821 76.2167 57.8088 76.79ZM70.793 82.69C70.253 82.67 69.7263 82.57 69.213 82.39C68.7063 82.2033 68.2596 81.9533 67.873 81.64C67.493 81.32 67.2163 80.9533 67.043 80.54L68.483 79.92C68.583 80.1467 68.763 80.36 69.023 80.56C69.283 80.76 69.583 80.92 69.923 81.04C70.263 81.16 70.6063 81.22 70.953 81.22C71.3196 81.22 71.663 81.1633 71.983 81.05C72.303 80.9367 72.563 80.77 72.763 80.55C72.9696 80.3233 73.073 80.0533 73.073 79.74C73.073 79.4067 72.9596 79.1467 72.733 78.96C72.513 78.7667 72.233 78.6167 71.893 78.51C71.5596 78.3967 71.2196 78.29 70.873 78.19C70.1863 78.0167 69.573 77.81 69.033 77.57C68.493 77.3233 68.0663 77.0133 67.753 76.64C67.4463 76.26 67.293 75.7767 67.293 75.19C67.293 74.57 67.463 74.0333 67.803 73.58C68.1496 73.1267 68.603 72.7767 69.163 72.53C69.723 72.2833 70.323 72.16 70.963 72.16C71.7696 72.16 72.5063 72.3333 73.173 72.68C73.8396 73.0267 74.3363 73.4967 74.663 74.09L73.313 74.88C73.1996 74.64 73.0263 74.43 72.793 74.25C72.5596 74.0633 72.293 73.9167 71.993 73.81C71.693 73.7033 71.3863 73.6467 71.073 73.64C70.6863 73.6267 70.323 73.6767 69.983 73.79C69.6496 73.9033 69.3796 74.0767 69.173 74.31C68.973 74.5367 68.873 74.82 68.873 75.16C68.873 75.4933 68.9796 75.7467 69.193 75.92C69.413 76.0933 69.6963 76.2333 70.043 76.34C70.3963 76.44 70.7796 76.5567 71.193 76.69C71.7996 76.8833 72.3663 77.1067 72.893 77.36C73.4196 77.6133 73.843 77.93 74.163 78.31C74.4896 78.69 74.6496 79.16 74.643 79.72C74.643 80.3333 74.4596 80.87 74.093 81.33C73.7263 81.7833 73.2496 82.13 72.663 82.37C72.083 82.61 71.4596 82.7167 70.793 82.69Z" fill="#27AEB9"/>
        <path d="M4.84375 83.75H19.0238V84.25H4.84375V83.75ZM18.8477 83.75H27.0097V84.25H18.8477V83.75ZM26.875 83.75H38.055V84.25H26.875V83.75ZM37.9102 83.75H48.7502V84.25H37.9102V83.75ZM48.75 83.75H55.72V84.25H48.75V83.75ZM55.4688 83.75H66.6488V84.25H55.4688V83.75ZM66.543 83.75H75.163V84.25H66.543V83.75Z" fill="#27AEB9"/>
    </g>
    <defs>
        <filter id="filter0_d_15_42" x="0.84375" y="0" width="78.3192" height="108" filterUnits="userSpaceOnUse" color-interpolation-filters="sRGB">
            <feFlood flood-opacity="0" result="BackgroundImageFix"/>
            <feColorMatrix in="SourceAlpha" type="matrix" values="0 0 0 0 0 0 0 0 0 0 0 0 0 0 0 0 0 0 127 0" result="hardAlpha"/>
            <feOffset dy="4"/>
            <feGaussianBlur stdDeviation="2"/>
            <feComposite in2="hardAlpha" operator="out"/>
            <feColorMatrix type="matrix" values="0 0 0 0 0 0 0 0 0 0 0 0 0 0 0 0 0 0 0.25 0"/>
            <feBlend mode="normal" in2="BackgroundImageFix" result="effect1_dropShadow_15_42"/>
            <feBlend mode="normal" in="SourceGraphic" in2="effect1_dropShadow_15_42" result="shape"/>
        </filter>
    </defs>
</svg>
