<svg width="101" height="100" viewBox="0 0 101 100" fill="none" xmlns="http://www.w3.org/2000/svg">
    <path d="M50.5 8.33333C27.9125 8.33333 8.83334 27.4125 8.83334 50C8.83334 72.5875 27.9125 91.6667 50.5 91.6667C73.0875 91.6667 92.1667 72.5875 92.1667 50C92.1667 27.4125 73.0875 8.33333 50.5 8.33333ZM50.5 29.1667C57.6958 29.1667 63 34.4667 63 41.6667C63 48.8667 57.6958 54.1667 50.5 54.1667C43.3083 54.1667 38 48.8667 38 41.6667C38 34.4667 43.3083 29.1667 50.5 29.1667ZM29.225 69.8833C32.9625 64.3833 39.1958 60.7167 46.3333 60.7167H54.6667C61.8083 60.7167 68.0375 64.3833 71.775 69.8833C66.45 75.5833 58.8958 79.1667 50.5 79.1667C42.1042 79.1667 34.55 75.5833 29.225 69.8833Z" fill="#27AEB9"/>
</svg>
