<svg width="72" height="100" viewBox="0 0 72 100" fill="none" xmlns="http://www.w3.org/2000/svg">
    <g filter="url(#filter0_d_15_57)">
        <path d="M54.75 37.9167H48.5V23.3333C48.5 22.7808 48.2805 22.2509 47.8898 21.8602C47.4991 21.4695 46.9692 21.25 46.4167 21.25H17.25C16.6975 21.25 16.1676 21.4695 15.7769 21.8602C15.3862 22.2509 15.1667 22.7808 15.1667 23.3333V52.5C15.1667 55.9458 17.9709 58.75 21.4167 58.75H50.5834C54.0292 58.75 56.8334 55.9458 56.8334 52.5V40C56.8334 39.4475 56.6139 38.9176 56.2232 38.5269C55.8325 38.1362 55.3026 37.9167 54.75 37.9167ZM21.4167 54.5833C20.8642 54.5833 20.3342 54.3638 19.9435 53.9731C19.5528 53.5824 19.3334 53.0525 19.3334 52.5V25.4167H44.3334V52.5C44.3334 53.2312 44.4604 53.9333 44.6896 54.5833H21.4167ZM52.6667 52.5C52.6667 53.0525 52.4472 53.5824 52.0565 53.9731C51.6658 54.3638 51.1359 54.5833 50.5834 54.5833C50.0308 54.5833 49.5009 54.3638 49.1102 53.9731C48.7195 53.5824 48.5 53.0525 48.5 52.5V42.0833H52.6667V52.5Z" fill="#27AEB9"/>
        <path d="M23.5 29.5833H40.1667V33.75H23.5V29.5833ZM23.5 37.9167H40.1667V42.0833H23.5V37.9167ZM33.9167 46.25H40.1667V50.4167H33.9167V46.25Z" fill="#27AEB9"/>
        <path d="M6.16094 81V69.8H7.50494V81H6.16094ZM16.7429 76.024V81H15.3989V76.32C15.3989 75.9147 15.3003 75.5467 15.1029 75.216C14.9056 74.8853 14.6416 74.624 14.3109 74.432C13.9803 74.2347 13.6123 74.136 13.2069 74.136C12.8069 74.136 12.4389 74.2347 12.1029 74.432C11.7723 74.624 11.5083 74.8853 11.3109 75.216C11.1136 75.5467 11.0149 75.9147 11.0149 76.32V81H9.67094V73H11.0149V74C11.2976 73.6267 11.6549 73.3307 12.0869 73.112C12.5189 72.888 12.9883 72.776 13.4949 72.776C14.0923 72.776 14.6363 72.9227 15.1269 73.216C15.6229 73.504 16.0149 73.8933 16.3029 74.384C16.5963 74.8747 16.7429 75.4213 16.7429 76.024ZM20.1588 71.024V73H22.5028V74.344H20.1588V81H18.8148V74.344H17.7828V73H18.8148V71.024C18.8148 70.6133 18.9135 70.2427 19.1108 69.912C19.3135 69.576 19.5828 69.3093 19.9188 69.112C20.2601 68.9093 20.6335 68.808 21.0388 68.808C21.3375 68.808 21.6281 68.8693 21.9108 68.992C22.1935 69.1093 22.4441 69.2853 22.6628 69.52L21.7028 70.472C21.6281 70.3707 21.5295 70.2933 21.4068 70.24C21.2895 70.1813 21.1668 70.152 21.0388 70.152C20.7988 70.152 20.5908 70.2373 20.4148 70.408C20.2441 70.5787 20.1588 70.784 20.1588 71.024ZM27.1284 81.208C26.3924 81.208 25.7204 81.0187 25.1124 80.64C24.5098 80.2613 24.0271 79.7547 23.6644 79.12C23.3071 78.48 23.1284 77.7733 23.1284 77C23.1284 76.4133 23.2324 75.8667 23.4404 75.36C23.6484 74.848 23.9338 74.4 24.2964 74.016C24.6644 73.6267 25.0911 73.3227 25.5764 73.104C26.0618 72.8853 26.5791 72.776 27.1284 72.776C27.8644 72.776 28.5338 72.9653 29.1364 73.344C29.7444 73.7227 30.2271 74.232 30.5844 74.872C30.9471 75.512 31.1284 76.2213 31.1284 77C31.1284 77.5813 31.0244 78.1253 30.8164 78.632C30.6084 79.1387 30.3204 79.5867 29.9524 79.976C29.5898 80.36 29.1658 80.6613 28.6804 80.88C28.2004 81.0987 27.6831 81.208 27.1284 81.208ZM27.1284 79.864C27.6298 79.864 28.0804 79.7333 28.4804 79.472C28.8858 79.2053 29.2031 78.856 29.4324 78.424C29.6671 77.9867 29.7844 77.512 29.7844 77C29.7844 76.4773 29.6644 75.9973 29.4244 75.56C29.1898 75.1227 28.8724 74.7733 28.4724 74.512C28.0724 74.2507 27.6244 74.12 27.1284 74.12C26.6271 74.12 26.1764 74.2533 25.7764 74.52C25.3764 74.7813 25.0591 75.1307 24.8244 75.568C24.5898 76.0053 24.4724 76.4827 24.4724 77C24.4724 77.5333 24.5924 78.0187 24.8324 78.456C25.0724 78.888 25.3951 79.232 25.8004 79.488C26.2058 79.7387 26.6484 79.864 27.1284 79.864ZM32.4522 81V73H33.7962V74C34.0789 73.6267 34.4362 73.3307 34.8682 73.112C35.3002 72.888 35.7695 72.776 36.2762 72.776C36.5855 72.776 36.8842 72.816 37.1722 72.896L36.6282 74.24C36.4095 74.1707 36.1962 74.136 35.9882 74.136C35.5882 74.136 35.2202 74.2347 34.8842 74.432C34.5535 74.624 34.2895 74.8853 34.0922 75.216C33.8949 75.5467 33.7962 75.9147 33.7962 76.32V81H32.4522ZM38.1866 81V73H39.5306V74C39.8132 73.6267 40.1679 73.3307 40.5946 73.112C41.0266 72.888 41.4959 72.776 42.0026 72.776C42.5946 72.776 43.1359 72.92 43.6266 73.208C44.1172 73.496 44.5039 73.8773 44.7866 74.352C45.0692 73.8773 45.4532 73.496 45.9386 73.208C46.4292 72.92 46.9679 72.776 47.5546 72.776C48.1572 72.776 48.7039 72.9227 49.1946 73.216C49.6852 73.504 50.0746 73.8933 50.3626 74.384C50.6559 74.8747 50.8026 75.4213 50.8026 76.024V81H49.4586V76.344C49.4586 75.9493 49.3626 75.584 49.1706 75.248C48.9786 74.912 48.7199 74.6427 48.3946 74.44C48.0692 74.2373 47.7092 74.136 47.3146 74.136C46.9199 74.136 46.5599 74.232 46.2346 74.424C45.9092 74.6107 45.6506 74.872 45.4586 75.208C45.2666 75.5387 45.1706 75.9173 45.1706 76.344V81H43.8266V76.344C43.8266 75.9173 43.7306 75.5387 43.5386 75.208C43.3466 74.872 43.0852 74.6107 42.7546 74.424C42.4292 74.232 42.0692 74.136 41.6746 74.136C41.2852 74.136 40.9252 74.2373 40.5946 74.44C40.2692 74.6427 40.0106 74.912 39.8186 75.248C39.6266 75.584 39.5306 75.9493 39.5306 76.344V81H38.1866ZM55.7691 81.208C55.0331 81.208 54.3611 81.0187 53.7531 80.64C53.1504 80.2613 52.6677 79.7547 52.3051 79.12C51.9477 78.48 51.7691 77.7733 51.7691 77C51.7691 76.4133 51.8731 75.8667 52.0811 75.36C52.2891 74.848 52.5744 74.4 52.9371 74.016C53.3051 73.6267 53.7317 73.3227 54.2171 73.104C54.7024 72.8853 55.2197 72.776 55.7691 72.776C56.3717 72.776 56.9237 72.8987 57.4251 73.144C57.9317 73.384 58.3637 73.72 58.7211 74.152C59.0837 74.584 59.3531 75.0853 59.5291 75.656C59.7104 76.2267 59.7771 76.8373 59.7291 77.488H53.2011C53.2651 77.9413 53.4144 78.3467 53.6491 78.704C53.8837 79.056 54.1824 79.336 54.5451 79.544C54.9131 79.752 55.3211 79.8587 55.7691 79.864C56.2491 79.864 56.6837 79.7413 57.0731 79.496C57.4624 79.2453 57.7771 78.904 58.0171 78.472L59.3851 78.792C59.0651 79.5013 58.5824 80.0827 57.9371 80.536C57.2917 80.984 56.5691 81.208 55.7691 81.208ZM53.1611 76.432H58.3771C58.3344 75.984 58.1904 75.576 57.9451 75.208C57.6997 74.8347 57.3877 74.536 57.0091 74.312C56.6304 74.088 56.2171 73.976 55.7691 73.976C55.3211 73.976 54.9104 74.0853 54.5371 74.304C54.1637 74.5227 53.8544 74.8187 53.6091 75.192C53.3691 75.56 53.2197 75.9733 53.1611 76.432ZM63.5484 81.152C63.1164 81.136 62.6951 81.056 62.2844 80.912C61.8791 80.7627 61.5218 80.5627 61.2124 80.312C60.9084 80.056 60.6871 79.7627 60.5484 79.432L61.7004 78.936C61.7804 79.1173 61.9244 79.288 62.1324 79.448C62.3404 79.608 62.5804 79.736 62.8524 79.832C63.1244 79.928 63.3991 79.976 63.6764 79.976C63.9698 79.976 64.2444 79.9307 64.5004 79.84C64.7564 79.7493 64.9644 79.616 65.1244 79.44C65.2898 79.2587 65.3724 79.0427 65.3724 78.792C65.3724 78.5253 65.2818 78.3173 65.1004 78.168C64.9244 78.0133 64.7004 77.8933 64.4284 77.808C64.1618 77.7173 63.8898 77.632 63.6124 77.552C63.0631 77.4133 62.5724 77.248 62.1404 77.056C61.7084 76.8587 61.3671 76.6107 61.1164 76.312C60.8711 76.008 60.7484 75.6213 60.7484 75.152C60.7484 74.656 60.8844 74.2267 61.1564 73.864C61.4338 73.5013 61.7964 73.2213 62.2444 73.024C62.6924 72.8267 63.1724 72.728 63.6844 72.728C64.3298 72.728 64.9191 72.8667 65.4524 73.144C65.9858 73.4213 66.3831 73.7973 66.6444 74.272L65.5644 74.904C65.4738 74.712 65.3351 74.544 65.1484 74.4C64.9618 74.2507 64.7484 74.1333 64.5084 74.048C64.2684 73.9627 64.0231 73.9173 63.7724 73.912C63.4631 73.9013 63.1724 73.9413 62.9004 74.032C62.6338 74.1227 62.4178 74.2613 62.2524 74.448C62.0924 74.6293 62.0124 74.856 62.0124 75.128C62.0124 75.3947 62.0978 75.5973 62.2684 75.736C62.4444 75.8747 62.6711 75.9867 62.9484 76.072C63.2311 76.152 63.5378 76.2453 63.8684 76.352C64.3538 76.5067 64.8071 76.6853 65.2284 76.888C65.6498 77.0907 65.9884 77.344 66.2444 77.648C66.5058 77.952 66.6338 78.328 66.6284 78.776C66.6284 79.2667 66.4818 79.696 66.1884 80.064C65.8951 80.4267 65.5138 80.704 65.0444 80.896C64.5804 81.088 64.0818 81.1733 63.5484 81.152Z" fill="#27AEB9"/>
        <path d="M4.96094 82H67.0444V82.4H4.96094V82Z" fill="#27AEB9"/>
    </g>
    <defs>
        <filter id="filter0_d_15_57" x="-3" y="0" width="78" height="108" filterUnits="userSpaceOnUse" color-interpolation-filters="sRGB">
            <feFlood flood-opacity="0" result="BackgroundImageFix"/>
            <feColorMatrix in="SourceAlpha" type="matrix" values="0 0 0 0 0 0 0 0 0 0 0 0 0 0 0 0 0 0 127 0" result="hardAlpha"/>
            <feOffset dy="4"/>
            <feGaussianBlur stdDeviation="2"/>
            <feComposite in2="hardAlpha" operator="out"/>
            <feColorMatrix type="matrix" values="0 0 0 0 0 0 0 0 0 0 0 0 0 0 0 0 0 0 0.25 0"/>
            <feBlend mode="normal" in2="BackgroundImageFix" result="effect1_dropShadow_15_57"/>
            <feBlend mode="normal" in="SourceGraphic" in2="effect1_dropShadow_15_57" result="shape"/>
        </filter>
    </defs>
</svg>
