<svg width="70" height="100" viewBox="0 0 70 100" fill="none" xmlns="http://www.w3.org/2000/svg">
    <g filter="url(#filter0_d_15_47)">
        <path d="M20.4167 58.3333H49.5833C51.8812 58.3333 53.75 56.4646 53.75 54.1667V22.9167C53.75 20.6187 51.8812 18.75 49.5833 18.75H45.4167C45.4167 18.1975 45.1972 17.6676 44.8065 17.2769C44.4158 16.8861 43.8859 16.6667 43.3333 16.6667H26.6667C26.1141 16.6667 25.5842 16.8861 25.1935 17.2769C24.8028 17.6676 24.5833 18.1975 24.5833 18.75H20.4167C18.1187 18.75 16.25 20.6187 16.25 22.9167V54.1667C16.25 56.4646 18.1187 58.3333 20.4167 58.3333ZM20.4167 22.9167H24.5833V27.0833H45.4167V22.9167H49.5833V54.1667H20.4167V22.9167Z" fill="#27AEB9"/>
        <path d="M32.9167 40.8042L29.1812 37.0688L26.2354 40.0146L32.9167 46.6958L43.7646 35.8479L40.8187 32.9021L32.9167 40.8042Z" fill="#27AEB9"/>
        <path d="M9.81328 82.5V68.5H14.4333C15.1866 68.5 15.8633 68.6833 16.4633 69.05C17.0699 69.4167 17.5499 69.9133 17.9033 70.54C18.2633 71.16 18.4433 71.8533 18.4433 72.62C18.4433 73.4 18.2599 74.1033 17.8933 74.73C17.5333 75.35 17.0466 75.8433 16.4333 76.21C15.8266 76.57 15.1599 76.75 14.4333 76.75H11.4933V82.5H9.81328ZM11.4933 75.07H14.2833C14.7366 75.07 15.1499 74.96 15.5233 74.74C15.9033 74.5133 16.2033 74.21 16.4233 73.83C16.6499 73.4433 16.7633 73.01 16.7633 72.53C16.7633 72.0433 16.6499 71.61 16.4233 71.23C16.2033 70.8433 15.9033 70.54 15.5233 70.32C15.1499 70.0933 14.7366 69.98 14.2833 69.98H11.4933V75.07ZM27.6384 72.5H29.3184V82.5H27.6384L27.5684 80.81C27.2551 81.39 26.8218 81.86 26.2684 82.22C25.7218 82.58 25.0684 82.76 24.3084 82.76C23.5751 82.76 22.8884 82.6233 22.2484 82.35C21.6084 82.07 21.0418 81.6867 20.5484 81.2C20.0618 80.7067 19.6818 80.14 19.4084 79.5C19.1351 78.86 18.9984 78.17 18.9984 77.43C18.9984 76.7167 19.1318 76.0433 19.3984 75.41C19.6651 74.7767 20.0351 74.2233 20.5084 73.75C20.9884 73.27 21.5418 72.8967 22.1684 72.63C22.7951 72.3567 23.4684 72.22 24.1884 72.22C24.9751 72.22 25.6651 72.4067 26.2584 72.78C26.8518 73.1467 27.3318 73.6233 27.6984 74.21L27.6384 72.5ZM24.2784 81.13C24.9384 81.13 25.5084 80.97 25.9884 80.65C26.4751 80.3233 26.8484 79.8833 27.1084 79.33C27.3751 78.7767 27.5084 78.1667 27.5084 77.5C27.5084 76.82 27.3751 76.2067 27.1084 75.66C26.8418 75.1067 26.4651 74.67 25.9784 74.35C25.4984 74.0233 24.9318 73.86 24.2784 73.86C23.6184 73.86 23.0184 74.0233 22.4784 74.35C21.9384 74.6767 21.5084 75.1167 21.1884 75.67C20.8751 76.2167 20.7184 76.8267 20.7184 77.5C20.7184 78.1733 20.8818 78.7867 21.2084 79.34C21.5351 79.8867 21.9684 80.3233 22.5084 80.65C23.0484 80.97 23.6384 81.13 24.2784 81.13ZM38.9319 72.5H40.6119V82.82C40.6119 83.48 40.4685 84.0933 40.1819 84.66C39.9019 85.2333 39.5219 85.73 39.0419 86.15C38.5619 86.5767 38.0152 86.9067 37.4019 87.14C36.7885 87.38 36.1485 87.5 35.4819 87.5C34.7885 87.5 34.1185 87.3433 33.4719 87.03C32.8252 86.7233 32.2585 86.31 31.7719 85.79C31.2919 85.2767 30.9452 84.7 30.7319 84.06L32.2719 83.36C32.3985 83.82 32.6252 84.2333 32.9519 84.6C33.2852 84.9733 33.6719 85.2667 34.1119 85.48C34.5585 85.7 35.0152 85.81 35.4819 85.81C35.9219 85.81 36.3452 85.7333 36.7519 85.58C37.1652 85.4267 37.5352 85.2133 37.8619 84.94C38.1952 84.6733 38.4552 84.3567 38.6419 83.99C38.8352 83.63 38.9319 83.24 38.9319 82.82V80.83C38.5919 81.4033 38.1419 81.87 37.5819 82.23C37.0285 82.5833 36.3819 82.76 35.6419 82.76C34.9352 82.76 34.2719 82.6233 33.6519 82.35C33.0319 82.0767 32.4885 81.7 32.0219 81.22C31.5552 80.7333 31.1885 80.1733 30.9219 79.54C30.6552 78.9067 30.5219 78.2267 30.5219 77.5C30.5219 76.7733 30.6552 76.0933 30.9219 75.46C31.1885 74.82 31.5552 74.26 32.0219 73.78C32.4885 73.2933 33.0319 72.9133 33.6519 72.64C34.2719 72.3667 34.9352 72.23 35.6419 72.23C36.3819 72.23 37.0285 72.4067 37.5819 72.76C38.1419 73.1133 38.5919 73.58 38.9319 74.16V72.5ZM35.6519 81.13C36.2985 81.13 36.8585 80.9633 37.3319 80.63C37.8119 80.2967 38.1819 79.8533 38.4419 79.3C38.7019 78.7467 38.8319 78.1467 38.8319 77.5C38.8319 76.8333 38.6985 76.2267 38.4319 75.68C38.1719 75.1267 37.8019 74.6867 37.3219 74.36C36.8485 74.0267 36.2919 73.86 35.6519 73.86C35.0252 73.86 34.4519 74.0233 33.9319 74.35C33.4119 74.6767 32.9985 75.1167 32.6919 75.67C32.3919 76.2167 32.2419 76.8267 32.2419 77.5C32.2419 78.1733 32.3952 78.7867 32.7019 79.34C33.0152 79.8867 33.4285 80.3233 33.9419 80.65C34.4619 80.97 35.0319 81.13 35.6519 81.13ZM47.2797 82.76C46.3597 82.76 45.5197 82.5233 44.7597 82.05C44.0064 81.5767 43.403 80.9433 42.9497 80.15C42.503 79.35 42.2797 78.4667 42.2797 77.5C42.2797 76.7667 42.4097 76.0833 42.6697 75.45C42.9297 74.81 43.2864 74.25 43.7397 73.77C44.1997 73.2833 44.733 72.9033 45.3397 72.63C45.9464 72.3567 46.593 72.22 47.2797 72.22C48.1997 72.22 49.0364 72.4567 49.7897 72.93C50.5497 73.4033 51.153 74.04 51.5997 74.84C52.053 75.64 52.2797 76.5267 52.2797 77.5C52.2797 78.2267 52.1497 78.9067 51.8897 79.54C51.6297 80.1733 51.2697 80.7333 50.8097 81.22C50.3564 81.7 49.8264 82.0767 49.2197 82.35C48.6197 82.6233 47.973 82.76 47.2797 82.76ZM47.2797 81.08C47.9064 81.08 48.4697 80.9167 48.9697 80.59C49.4764 80.2567 49.873 79.82 50.1597 79.28C50.453 78.7333 50.5997 78.14 50.5997 77.5C50.5997 76.8467 50.4497 76.2467 50.1497 75.7C49.8564 75.1533 49.4597 74.7167 48.9597 74.39C48.4597 74.0633 47.8997 73.9 47.2797 73.9C46.653 73.9 46.0897 74.0667 45.5897 74.4C45.0897 74.7267 44.693 75.1633 44.3997 75.71C44.1064 76.2567 43.9597 76.8533 43.9597 77.5C43.9597 78.1667 44.1097 78.7733 44.4097 79.32C44.7097 79.86 45.113 80.29 45.6197 80.61C46.1264 80.9233 46.6797 81.08 47.2797 81.08ZM57.0234 82.69C56.4834 82.67 55.9568 82.57 55.4434 82.39C54.9368 82.2033 54.4901 81.9533 54.1034 81.64C53.7234 81.32 53.4468 80.9533 53.2734 80.54L54.7134 79.92C54.8134 80.1467 54.9934 80.36 55.2534 80.56C55.5134 80.76 55.8134 80.92 56.1534 81.04C56.4934 81.16 56.8368 81.22 57.1834 81.22C57.5501 81.22 57.8934 81.1633 58.2134 81.05C58.5334 80.9367 58.7934 80.77 58.9934 80.55C59.2001 80.3233 59.3034 80.0533 59.3034 79.74C59.3034 79.4067 59.1901 79.1467 58.9634 78.96C58.7434 78.7667 58.4634 78.6167 58.1234 78.51C57.7901 78.3967 57.4501 78.29 57.1034 78.19C56.4168 78.0167 55.8034 77.81 55.2634 77.57C54.7234 77.3233 54.2968 77.0133 53.9834 76.64C53.6768 76.26 53.5234 75.7767 53.5234 75.19C53.5234 74.57 53.6934 74.0333 54.0334 73.58C54.3801 73.1267 54.8334 72.7767 55.3934 72.53C55.9534 72.2833 56.5534 72.16 57.1934 72.16C58.0001 72.16 58.7368 72.3333 59.4034 72.68C60.0701 73.0267 60.5668 73.4967 60.8934 74.09L59.5434 74.88C59.4301 74.64 59.2568 74.43 59.0234 74.25C58.7901 74.0633 58.5234 73.9167 58.2234 73.81C57.9234 73.7033 57.6168 73.6467 57.3034 73.64C56.9168 73.6267 56.5534 73.6767 56.2134 73.79C55.8801 73.9033 55.6101 74.0767 55.4034 74.31C55.2034 74.5367 55.1034 74.82 55.1034 75.16C55.1034 75.4933 55.2101 75.7467 55.4234 75.92C55.6434 76.0933 55.9268 76.2333 56.2734 76.34C56.6268 76.44 57.0101 76.5567 57.4234 76.69C58.0301 76.8833 58.5968 77.1067 59.1234 77.36C59.6501 77.6133 60.0734 77.93 60.3934 78.31C60.7201 78.69 60.8801 79.16 60.8734 79.72C60.8734 80.3333 60.6901 80.87 60.3234 81.33C59.9568 81.7833 59.4801 82.13 58.8934 82.37C58.3134 82.61 57.6901 82.7167 57.0234 82.69Z" fill="#27AEB9"/>
        <path d="M8.61328 83.75H19.2433V84.25H8.61328V83.75ZM18.3984 83.75H30.1184V84.25H18.3984V83.75ZM29.9219 83.75H41.8119V84.25H29.9219V83.75ZM41.6797 83.75H52.8797V84.25H41.6797V83.75ZM52.7734 83.75H61.3934V84.25H52.7734V83.75Z" fill="#27AEB9"/>
    </g>
    <defs>
        <filter id="filter0_d_15_47" x="-4" y="0" width="78" height="108" filterUnits="userSpaceOnUse" color-interpolation-filters="sRGB">
            <feFlood flood-opacity="0" result="BackgroundImageFix"/>
            <feColorMatrix in="SourceAlpha" type="matrix" values="0 0 0 0 0 0 0 0 0 0 0 0 0 0 0 0 0 0 127 0" result="hardAlpha"/>
            <feOffset dy="4"/>
            <feGaussianBlur stdDeviation="2"/>
            <feComposite in2="hardAlpha" operator="out"/>
            <feColorMatrix type="matrix" values="0 0 0 0 0 0 0 0 0 0 0 0 0 0 0 0 0 0 0.25 0"/>
            <feBlend mode="normal" in2="BackgroundImageFix" result="effect1_dropShadow_15_47"/>
            <feBlend mode="normal" in="SourceGraphic" in2="effect1_dropShadow_15_47" result="shape"/>
        </filter>
    </defs>
</svg>
