<svg width="100" height="100" viewBox="0 0 100 100" fill="none" xmlns="http://www.w3.org/2000/svg">
<g filter="url(#filter0_d_37_211)">
    <path d="M21.1192 91.6666H78.8807C83.4315 91.6666 87.1323 87.9291 87.1323 83.3333V20.8333C87.1323 16.2374 83.4315 12.4999 78.8807 12.4999H70.6291C70.6291 11.3949 70.1944 10.335 69.4206 9.55364C68.6469 8.77224 67.5975 8.33325 66.5032 8.33325H33.4967C32.4025 8.33325 31.3531 8.77224 30.5793 9.55364C29.8056 10.335 29.3709 11.3949 29.3709 12.4999H21.1192C16.5685 12.4999 12.8676 16.2374 12.8676 20.8333V83.3333C12.8676 87.9291 16.5685 91.6666 21.1192 91.6666ZM21.1192 20.8333H29.3709V29.1666H70.6291V20.8333H78.8807V83.3333H21.1192V20.8333Z" fill="#5F7B7D"/>
    <path d="M45.8742 56.6084L38.4766 49.1375L32.6427 55.0292L45.8742 68.3917L67.3573 46.6959L61.5234 40.8042L45.8742 56.6084Z" fill="#5F7B7D"/>
</g>
<defs>
    <filter id="filter0_d_37_211" x="-3.50983" y="0" width="107.02" height="108" filterUnits="userSpaceOnUse" color-interpolation-filters="sRGB">
        <feFlood flood-opacity="0" result="BackgroundImageFix"/>
        <feColorMatrix in="SourceAlpha" type="matrix" values="0 0 0 0 0 0 0 0 0 0 0 0 0 0 0 0 0 0 127 0" result="hardAlpha"/>
        <feOffset dy="4"/>
        <feGaussianBlur stdDeviation="2"/>
        <feComposite in2="hardAlpha" operator="out"/>
        <feColorMatrix type="matrix" values="0 0 0 0 0 0 0 0 0 0 0 0 0 0 0 0 0 0 0.25 0"/>
        <feBlend mode="normal" in2="BackgroundImageFix" result="effect1_dropShadow_37_211"/>
        <feBlend mode="normal" in="SourceGraphic" in2="effect1_dropShadow_37_211" result="shape"/>
    </filter>
</defs>
</svg>
