<svg width="99" height="100" viewBox="0 0 99 100" fill="none" xmlns="http://www.w3.org/2000/svg">
    <path d="M20.6193 91.6667H78.3807C82.9315 91.6667 86.6324 87.9292 86.6324 83.3333V20.8333C86.6324 16.2375 82.9315 12.5 78.3807 12.5H70.1291C70.1291 11.3949 69.6944 10.3351 68.9207 9.55372C68.1469 8.77231 67.0975 8.33333 66.0033 8.33333H32.9967C31.9025 8.33333 30.8531 8.77231 30.0793 9.55372C29.3056 10.3351 28.8709 11.3949 28.8709 12.5H20.6193C16.0685 12.5 12.3676 16.2375 12.3676 20.8333V83.3333C12.3676 87.9292 16.0685 91.6667 20.6193 91.6667ZM20.6193 20.8333H28.8709V29.1667H70.1291V20.8333H78.3807V83.3333H20.6193V20.8333Z" fill="#27AEB9"/>
    <path d="M45.3742 56.6083L37.9766 49.1375L32.1427 55.0292L45.3742 68.3917L66.8573 46.6958L61.0234 40.8042L45.3742 56.6083Z" fill="#27AEB9"/>
</svg>
