<svg width="72" height="100" viewBox="0 0 72 100" fill="none" xmlns="http://www.w3.org/2000/svg">
    <g filter="url(#filter0_d_15_16)">
        <path d="M15.5455 25H42.4738V29.8344H15.5455V25ZM15.5455 34.6688H42.4738V39.5033H15.5455V34.6688ZM15.5455 44.3377H32.6817V49.1721H15.5455V44.3377ZM52.9979 37.7919L42.4714 48.1641L39.3085 45.0435L35.847 48.4639L42.4714 55L56.4546 41.2146L52.9979 37.7919Z" fill="#27AEB9"/>
        <path d="M9.51338 71.208C8.91071 71.208 8.32938 71.1147 7.76938 70.928C7.20938 70.736 6.71871 70.464 6.29738 70.112C5.88138 69.76 5.58538 69.3413 5.40938 68.856L6.66537 68.384C6.77204 68.6827 6.96938 68.944 7.25738 69.168C7.55071 69.3867 7.89471 69.5573 8.28938 69.68C8.68404 69.8027 9.09204 69.864 9.51338 69.864C9.99338 69.864 10.4387 69.7867 10.8494 69.632C11.2654 69.472 11.6014 69.2507 11.8574 68.968C12.1134 68.6853 12.2414 68.3547 12.2414 67.976C12.2414 67.5867 12.108 67.2693 11.8414 67.024C11.5747 66.7733 11.2334 66.576 10.8174 66.432C10.4014 66.2827 9.96671 66.168 9.51338 66.088C8.74004 65.96 8.04671 65.7787 7.43338 65.544C6.82538 65.304 6.34271 64.9707 5.98538 64.544C5.63338 64.1173 5.45738 63.5547 5.45738 62.856C5.45738 62.2053 5.64404 61.6373 6.01738 61.152C6.39604 60.6667 6.89471 60.2907 7.51338 60.024C8.13204 59.7573 8.79871 59.624 9.51338 59.624C10.1054 59.624 10.6787 59.7173 11.2334 59.904C11.7934 60.0853 12.2867 60.352 12.7134 60.704C13.14 61.056 13.4467 61.4853 13.6334 61.992L12.3614 62.456C12.2547 62.152 12.0547 61.8907 11.7614 61.672C11.4734 61.448 11.132 61.2773 10.7374 61.16C10.348 61.0373 9.94004 60.976 9.51338 60.976C9.03871 60.9707 8.59604 61.048 8.18538 61.208C7.77471 61.368 7.44138 61.5893 7.18538 61.872C6.92938 62.1547 6.80138 62.4827 6.80138 62.856C6.80138 63.304 6.91871 63.648 7.15338 63.888C7.39338 64.1227 7.71871 64.2987 8.12938 64.416C8.54004 64.5333 9.00138 64.6373 9.51338 64.728C10.2387 64.8507 10.9107 65.0453 11.5294 65.312C12.148 65.5733 12.644 65.9227 13.0174 66.36C13.396 66.7973 13.5854 67.336 13.5854 67.976C13.5854 68.6267 13.396 69.1947 13.0174 69.68C12.644 70.1653 12.148 70.5413 11.5294 70.808C10.9107 71.0747 10.2387 71.208 9.51338 71.208ZM18.7769 71.208C18.0409 71.208 17.3689 71.0187 16.7609 70.64C16.1582 70.2613 15.6755 69.7547 15.3129 69.12C14.9555 68.48 14.7769 67.7733 14.7769 67C14.7769 66.4133 14.8809 65.8667 15.0889 65.36C15.2969 64.848 15.5822 64.4 15.9449 64.016C16.3129 63.6267 16.7395 63.3227 17.2249 63.104C17.7102 62.8853 18.2275 62.776 18.7769 62.776C19.3795 62.776 19.9315 62.8987 20.4329 63.144C20.9395 63.384 21.3715 63.72 21.7289 64.152C22.0915 64.584 22.3609 65.0853 22.5369 65.656C22.7182 66.2267 22.7849 66.8373 22.7369 67.488H16.2089C16.2729 67.9413 16.4222 68.3467 16.6569 68.704C16.8915 69.056 17.1902 69.336 17.5529 69.544C17.9209 69.752 18.3289 69.8587 18.7769 69.864C19.2569 69.864 19.6915 69.7413 20.0809 69.496C20.4702 69.2453 20.7849 68.904 21.0249 68.472L22.3929 68.792C22.0729 69.5013 21.5902 70.0827 20.9449 70.536C20.2995 70.984 19.5769 71.208 18.7769 71.208ZM16.1689 66.432H21.3849C21.3422 65.984 21.1982 65.576 20.9529 65.208C20.7075 64.8347 20.3955 64.536 20.0169 64.312C19.6382 64.088 19.2249 63.976 18.7769 63.976C18.3289 63.976 17.9182 64.0853 17.5449 64.304C17.1715 64.5227 16.8622 64.8187 16.6169 65.192C16.3769 65.56 16.2275 65.9733 16.1689 66.432ZM24.085 71V63H25.429V64C25.7117 63.6267 26.069 63.3307 26.501 63.112C26.933 62.888 27.4023 62.776 27.909 62.776C28.2183 62.776 28.517 62.816 28.805 62.896L28.261 64.24C28.0423 64.1707 27.829 64.136 27.621 64.136C27.221 64.136 26.853 64.2347 26.517 64.432C26.1863 64.624 25.9223 64.8853 25.725 65.216C25.5277 65.5467 25.429 65.9147 25.429 66.32V71H24.085ZM34.0888 71H32.3688L29.4488 62.984H30.8808L33.2248 69.44L35.5688 62.984H37.0008L34.0888 71ZM38.3038 63H39.6478V71H38.3038V63ZM38.9918 61.696C38.7784 61.696 38.5998 61.6267 38.4558 61.488C38.3118 61.3493 38.2398 61.176 38.2398 60.968C38.2398 60.76 38.3118 60.5867 38.4558 60.448C38.5998 60.3093 38.7758 60.24 38.9838 60.24C39.1918 60.24 39.3678 60.3093 39.5118 60.448C39.6558 60.5867 39.7278 60.76 39.7278 60.968C39.7278 61.176 39.6558 61.3493 39.5118 61.488C39.3731 61.6267 39.1998 61.696 38.9918 61.696ZM46.972 68.888L48.172 69.536C47.8093 70.0427 47.348 70.448 46.788 70.752C46.2333 71.056 45.6307 71.208 44.98 71.208C44.244 71.208 43.572 71.0187 42.964 70.64C42.3613 70.2613 41.8787 69.7547 41.516 69.12C41.1587 68.48 40.98 67.7733 40.98 67C40.98 66.4133 41.084 65.8667 41.292 65.36C41.5 64.848 41.7853 64.4 42.148 64.016C42.516 63.6267 42.9427 63.3227 43.428 63.104C43.9133 62.8853 44.4307 62.776 44.98 62.776C45.6307 62.776 46.2333 62.928 46.788 63.232C47.348 63.536 47.8093 63.944 48.172 64.456L46.972 65.104C46.716 64.7893 46.412 64.5467 46.06 64.376C45.708 64.2053 45.348 64.12 44.98 64.12C44.484 64.12 44.0333 64.2533 43.628 64.52C43.228 64.7813 42.9107 65.1307 42.676 65.568C42.4413 66.0053 42.324 66.4827 42.324 67C42.324 67.5173 42.4413 67.9947 42.676 68.432C42.916 68.864 43.236 69.2107 43.636 69.472C44.0413 69.7333 44.4893 69.864 44.98 69.864C45.3747 69.864 45.7453 69.7733 46.092 69.592C46.4387 69.4107 46.732 69.176 46.972 68.888ZM49.4288 63H50.7728V71H49.4288V63ZM50.1168 61.696C49.9034 61.696 49.7248 61.6267 49.5808 61.488C49.4368 61.3493 49.3648 61.176 49.3648 60.968C49.3648 60.76 49.4368 60.5867 49.5808 60.448C49.7248 60.3093 49.9008 60.24 50.1088 60.24C50.3168 60.24 50.4928 60.3093 50.6368 60.448C50.7808 60.5867 50.8528 60.76 50.8528 60.968C50.8528 61.176 50.7808 61.3493 50.6368 61.488C50.4981 61.6267 50.3248 61.696 50.1168 61.696ZM56.105 71.208C55.369 71.208 54.697 71.0187 54.089 70.64C53.4863 70.2613 53.0037 69.7547 52.641 69.12C52.2837 68.48 52.105 67.7733 52.105 67C52.105 66.4133 52.209 65.8667 52.417 65.36C52.625 64.848 52.9103 64.4 53.273 64.016C53.641 63.6267 54.0677 63.3227 54.553 63.104C55.0383 62.8853 55.5557 62.776 56.105 62.776C56.841 62.776 57.5103 62.9653 58.113 63.344C58.721 63.7227 59.2037 64.232 59.561 64.872C59.9237 65.512 60.105 66.2213 60.105 67C60.105 67.5813 60.001 68.1253 59.793 68.632C59.585 69.1387 59.297 69.5867 58.929 69.976C58.5663 70.36 58.1423 70.6613 57.657 70.88C57.177 71.0987 56.6597 71.208 56.105 71.208ZM56.105 69.864C56.6063 69.864 57.057 69.7333 57.457 69.472C57.8623 69.2053 58.1797 68.856 58.409 68.424C58.6437 67.9867 58.761 67.512 58.761 67C58.761 66.4773 58.641 65.9973 58.401 65.56C58.1663 65.1227 57.849 64.7733 57.449 64.512C57.049 64.2507 56.601 64.12 56.105 64.12C55.6037 64.12 55.153 64.2533 54.753 64.52C54.353 64.7813 54.0357 65.1307 53.801 65.568C53.5663 66.0053 53.449 66.4827 53.449 67C53.449 67.5333 53.569 68.0187 53.809 68.456C54.049 68.888 54.3717 69.232 54.777 69.488C55.1823 69.7387 55.625 69.864 56.105 69.864ZM63.9 71.152C63.468 71.136 63.0467 71.056 62.636 70.912C62.2307 70.7627 61.8733 70.5627 61.564 70.312C61.26 70.056 61.0387 69.7627 60.9 69.432L62.052 68.936C62.132 69.1173 62.276 69.288 62.484 69.448C62.692 69.608 62.932 69.736 63.204 69.832C63.476 69.928 63.7507 69.976 64.028 69.976C64.3213 69.976 64.596 69.9307 64.852 69.84C65.108 69.7493 65.316 69.616 65.476 69.44C65.6413 69.2587 65.724 69.0427 65.724 68.792C65.724 68.5253 65.6333 68.3173 65.452 68.168C65.276 68.0133 65.052 67.8933 64.78 67.808C64.5133 67.7173 64.2413 67.632 63.964 67.552C63.4147 67.4133 62.924 67.248 62.492 67.056C62.06 66.8587 61.7187 66.6107 61.468 66.312C61.2227 66.008 61.1 65.6213 61.1 65.152C61.1 64.656 61.236 64.2267 61.508 63.864C61.7853 63.5013 62.148 63.2213 62.596 63.024C63.044 62.8267 63.524 62.728 64.036 62.728C64.6813 62.728 65.2707 62.8667 65.804 63.144C66.3373 63.4213 66.7347 63.7973 66.996 64.272L65.916 64.904C65.8253 64.712 65.6867 64.544 65.5 64.4C65.3133 64.2507 65.1 64.1333 64.86 64.048C64.62 63.9627 64.3747 63.9173 64.124 63.912C63.8147 63.9013 63.524 63.9413 63.252 64.032C62.9853 64.1227 62.7693 64.2613 62.604 64.448C62.444 64.6293 62.364 64.856 62.364 65.128C62.364 65.3947 62.4493 65.5973 62.62 65.736C62.796 65.8747 63.0227 65.9867 63.3 66.072C63.5827 66.152 63.8893 66.2453 64.22 66.352C64.7053 66.5067 65.1587 66.6853 65.58 66.888C66.0013 67.0907 66.34 67.344 66.596 67.648C66.8573 67.952 66.9853 68.328 66.98 68.776C66.98 69.2667 66.8333 69.696 66.54 70.064C66.2467 70.4267 65.8653 70.704 65.396 70.896C64.932 71.088 64.4333 71.1733 63.9 71.152Z" fill="#27AEB9"/>
        <path d="M4.60938 72H14.4334V72.4H4.60938V72ZM14.2969 72H23.2409V72.4H14.2969V72ZM23.125 72H37.4808V72.4H23.125V72ZM37.3438 72H40.6077V72.4H37.3438V72ZM40.5 72H48.652V72.4H40.5V72ZM48.4688 72H51.7327V72.4H48.4688V72ZM51.625 72H60.585V72.4H51.625V72ZM60.5 72H67.396V72.4H60.5V72Z" fill="#27AEB9"/>
    </g>
    <defs>
        <filter id="filter0_d_15_16" x="-3" y="0" width="78" height="108" filterUnits="userSpaceOnUse" color-interpolation-filters="sRGB">
            <feFlood flood-opacity="0" result="BackgroundImageFix"/>
            <feColorMatrix in="SourceAlpha" type="matrix" values="0 0 0 0 0 0 0 0 0 0 0 0 0 0 0 0 0 0 127 0" result="hardAlpha"/>
            <feOffset dy="4"/>
            <feGaussianBlur stdDeviation="2"/>
            <feComposite in2="hardAlpha" operator="out"/>
            <feColorMatrix type="matrix" values="0 0 0 0 0 0 0 0 0 0 0 0 0 0 0 0 0 0 0.25 0"/>
            <feBlend mode="normal" in2="BackgroundImageFix" result="effect1_dropShadow_15_16"/>
            <feBlend mode="normal" in="SourceGraphic" in2="effect1_dropShadow_15_16" result="shape"/>
        </filter>
    </defs>
</svg>
