<svg width="432" height="364" viewBox="0 0 432 364" fill="none" xmlns="http://www.w3.org/2000/svg">
    <g opacity="0.73">
        <path d="M96.8841 209.781C183.028 233.344 273.918 233.344 360.061 209.781C372.4 254.902 384.745 300.03 397.097 345.163C286.703 375.365 170.224 375.365 59.8306 345.163C72.2122 300.03 84.5634 254.902 96.8841 209.781Z" fill="white"/>
        <path d="M228.5 368.433C171.479 368.439 114.713 360.819 59.7117 345.775C59.6302 345.755 59.5535 345.718 59.4861 345.668C59.4187 345.618 59.3618 345.555 59.3187 345.483C59.2388 345.331 59.2161 345.156 59.2547 344.989L96.2991 209.608C96.344 209.444 96.452 209.305 96.5994 209.221C96.7468 209.137 96.9216 209.115 97.0852 209.16C183.117 232.677 273.883 232.677 359.915 209.16C360.079 209.115 360.253 209.137 360.401 209.221C360.548 209.305 360.656 209.444 360.701 209.608L397.746 344.989C397.784 345.156 397.761 345.331 397.682 345.483C397.638 345.555 397.582 345.618 397.514 345.668C397.447 345.718 397.37 345.755 397.289 345.775C342.287 360.819 285.521 368.439 228.5 368.433ZM60.6623 344.669C170.555 374.585 286.446 374.585 396.338 344.669L359.641 210.567C273.762 233.927 183.202 233.927 97.3228 210.567L60.6623 344.669Z" fill="#231F20"/>
        <path d="M171.04 346.353L314.62 333.431L306.186 239.718L162.606 252.641L171.04 346.353Z" fill="white"/>
        <path d="M172.472 347.722C172.313 347.72 172.16 347.66 172.044 347.552C171.927 347.443 171.855 347.296 171.841 347.137L163.487 253.8C163.478 253.716 163.487 253.631 163.512 253.551C163.537 253.471 163.579 253.397 163.634 253.333C163.742 253.204 163.896 253.122 164.063 253.105L307.068 240.309C307.235 240.296 307.402 240.349 307.531 240.456C307.661 240.564 307.744 240.717 307.762 240.885L316.125 334.222C316.138 334.394 316.086 334.563 315.979 334.698C315.925 334.762 315.858 334.815 315.782 334.852C315.707 334.89 315.625 334.912 315.54 334.917L172.536 347.713L172.472 347.722ZM164.813 254.321L173.039 346.388L314.773 333.692L306.547 241.634L164.813 254.321Z" fill="#D1D3D4"/>
        <path d="M146.45 323.328L287.28 323.328V235.894L146.45 235.894L146.45 323.328Z" fill="white"/>
        <path d="M287.279 323.967H146.45C146.281 323.967 146.118 323.9 145.998 323.78C145.878 323.66 145.811 323.497 145.811 323.328L145.811 235.903C145.811 235.734 145.878 235.571 145.998 235.451C146.118 235.331 146.281 235.264 146.45 235.264L287.279 235.264C287.449 235.264 287.612 235.331 287.732 235.451C287.852 235.571 287.919 235.734 287.919 235.903V323.328C287.919 323.497 287.852 323.66 287.732 323.78C287.612 323.9 287.449 323.967 287.279 323.967ZM147.09 322.688H286.64V236.543L147.09 236.543L147.09 322.688Z" fill="#231F20"/>
        <path d="M261.715 288.787H278.313V272.189H261.715V288.787Z" fill="white"/>
        <path d="M278.313 289.436H261.715C261.546 289.434 261.385 289.366 261.265 289.246C261.146 289.127 261.078 288.966 261.075 288.797V272.198C261.075 272.029 261.143 271.866 261.263 271.746C261.383 271.626 261.545 271.559 261.715 271.559H278.313C278.483 271.559 278.646 271.626 278.766 271.746C278.886 271.866 278.953 272.029 278.953 272.198V288.824C278.946 288.989 278.875 289.145 278.756 289.259C278.637 289.373 278.478 289.437 278.313 289.436ZM262.318 288.157H277.673V272.838H262.318V288.157Z" fill="#D1D3D4"/>
        <path d="M234.606 302.9H251.204V272.198H234.606V302.9Z" fill="white"/>
        <path d="M251.195 303.539H234.597C234.427 303.539 234.264 303.472 234.144 303.352C234.024 303.232 233.957 303.069 233.957 302.9V272.198C233.957 272.029 234.024 271.866 234.144 271.746C234.264 271.626 234.427 271.559 234.597 271.559H251.195C251.365 271.559 251.527 271.626 251.647 271.746C251.767 271.866 251.835 272.029 251.835 272.198V302.9C251.835 302.984 251.818 303.067 251.786 303.144C251.754 303.222 251.707 303.293 251.647 303.352C251.588 303.411 251.517 303.459 251.44 303.491C251.362 303.523 251.279 303.539 251.195 303.539ZM235.236 302.26H250.555V272.838H235.236V302.26Z" fill="#D1D3D4"/>
        <path d="M207.478 315.065H224.076V272.198H207.478V315.065Z" fill="#6ADEF9"/>
        <path d="M194.627 306.72H160.864C160.694 306.72 160.532 306.653 160.412 306.533C160.292 306.413 160.224 306.25 160.224 306.08C160.224 305.911 160.292 305.748 160.412 305.628C160.532 305.508 160.694 305.441 160.864 305.441H194.682C194.852 305.441 195.015 305.508 195.135 305.628C195.255 305.748 195.322 305.911 195.322 306.08C195.322 306.25 195.255 306.413 195.135 306.533C195.015 306.653 194.852 306.72 194.682 306.72H194.627Z" fill="#D1D3D4"/>
        <path d="M194.627 297.452H160.864C160.694 297.452 160.532 297.385 160.412 297.265C160.292 297.145 160.224 296.982 160.224 296.812C160.224 296.643 160.292 296.48 160.412 296.36C160.532 296.24 160.694 296.173 160.864 296.173H194.682C194.852 296.173 195.015 296.24 195.135 296.36C195.255 296.48 195.322 296.643 195.322 296.812C195.322 296.982 195.255 297.145 195.135 297.265C195.015 297.385 194.852 297.452 194.682 297.452H194.627Z" fill="#D1D3D4"/>
        <path d="M194.627 288.184H169.538C169.454 288.184 169.371 288.168 169.293 288.135C169.216 288.103 169.145 288.056 169.086 287.997C169.026 287.937 168.979 287.867 168.947 287.789C168.915 287.712 168.898 287.628 168.898 287.544C168.898 287.46 168.915 287.377 168.947 287.3C168.979 287.222 169.026 287.151 169.086 287.092C169.145 287.033 169.216 286.985 169.293 286.953C169.371 286.921 169.454 286.905 169.538 286.905H194.627C194.711 286.905 194.795 286.921 194.872 286.953C194.95 286.985 195.02 287.033 195.08 287.092C195.139 287.151 195.186 287.222 195.218 287.3C195.251 287.377 195.267 287.46 195.267 287.544C195.267 287.628 195.251 287.712 195.218 287.789C195.186 287.867 195.139 287.937 195.08 287.997C195.02 288.056 194.95 288.103 194.872 288.135C194.795 288.168 194.711 288.184 194.627 288.184Z" fill="#D1D3D4"/>
        <path d="M277.061 258.388H209.178C209.094 258.388 209.011 258.371 208.933 258.339C208.856 258.307 208.785 258.26 208.726 258.2C208.666 258.141 208.619 258.07 208.587 257.993C208.555 257.915 208.538 257.832 208.538 257.748C208.538 257.664 208.555 257.581 208.587 257.503C208.619 257.426 208.666 257.355 208.726 257.296C208.785 257.236 208.856 257.189 208.933 257.157C209.011 257.125 209.094 257.108 209.178 257.108H277.061C277.231 257.108 277.393 257.176 277.513 257.296C277.633 257.416 277.701 257.578 277.701 257.748C277.701 257.918 277.633 258.08 277.513 258.2C277.393 258.32 277.231 258.388 277.061 258.388Z" fill="#D1D3D4"/>
        <path d="M277.061 249.403H221.499C221.329 249.403 221.167 249.336 221.047 249.216C220.927 249.096 220.859 248.933 220.859 248.763C220.859 248.594 220.927 248.431 221.047 248.311C221.167 248.191 221.329 248.124 221.499 248.124H277.061C277.231 248.124 277.393 248.191 277.513 248.311C277.633 248.431 277.701 248.594 277.701 248.763C277.701 248.933 277.633 249.096 277.513 249.216C277.393 249.336 277.231 249.403 277.061 249.403Z" fill="#D1D3D4"/>
        <path d="M159.045 276.54H181.502V244.376H159.045V276.54Z" fill="#D1D3D4"/>
        <path d="M139.842 201.994C139.368 201.995 138.904 201.864 138.5 201.617C138.096 201.369 137.769 201.014 137.554 200.592C137.34 200.169 137.248 199.695 137.287 199.223C137.326 198.751 137.495 198.299 137.776 197.918C147.136 185.122 157.281 169.529 157.647 166.183C156.623 163.825 146.989 156.404 138.453 150.837C138.155 150.662 137.896 150.428 137.691 150.15C137.486 149.871 137.339 149.555 137.26 149.218C137.181 148.882 137.171 148.533 137.231 148.192C137.29 147.852 137.418 147.527 137.606 147.237C137.795 146.947 138.04 146.699 138.327 146.506C138.614 146.314 138.937 146.182 139.277 146.118C139.616 146.053 139.965 146.059 140.303 146.133C140.64 146.208 140.959 146.35 141.24 146.551C159.347 158.35 162.262 163.423 162.655 165.059C163.816 169.702 152.016 187.132 141.908 200.943C141.671 201.269 141.36 201.534 141.001 201.717C140.642 201.899 140.245 201.994 139.842 201.994Z" fill="#231F20"/>
        <path d="M136.634 213.465H136.643C141.716 213.465 145.829 209.352 145.829 204.279L145.829 152.208C145.829 147.135 141.716 143.023 136.643 143.023H136.634C131.561 143.023 127.448 147.135 127.448 152.208L127.448 204.279C127.448 209.352 131.561 213.465 136.634 213.465Z" fill="#231F20"/>
        <path d="M136.643 214.104C134.038 214.102 131.54 213.066 129.698 211.224C127.856 209.382 126.82 206.884 126.817 204.279L126.817 152.181C126.895 149.626 127.965 147.201 129.8 145.421C131.635 143.642 134.091 142.646 136.647 142.646C139.204 142.646 141.66 143.642 143.495 145.421C145.33 147.201 146.4 149.626 146.478 152.181V204.279C146.473 206.885 145.435 209.383 143.591 211.225C141.748 213.066 139.249 214.102 136.643 214.104ZM136.643 143.672C134.376 143.672 132.203 144.572 130.6 146.175C128.997 147.777 128.097 149.951 128.097 152.218V204.316C128.17 206.535 129.102 208.639 130.698 210.183C132.293 211.728 134.427 212.591 136.647 212.591C138.868 212.591 141.002 211.728 142.597 210.183C144.193 208.639 145.125 206.535 145.198 204.316V152.218C145.196 149.95 144.293 147.777 142.689 146.174C141.085 144.572 138.91 143.672 136.643 143.672Z" fill="#231F20"/>
        <path d="M317.158 201.994C316.755 201.994 316.358 201.899 315.999 201.717C315.64 201.534 315.329 201.269 315.092 200.943C304.983 187.132 293.156 169.702 294.345 165.059C294.747 163.423 297.653 158.35 315.76 146.551C316.04 146.326 316.364 146.162 316.711 146.071C317.059 145.979 317.422 145.962 317.776 146.02C318.131 146.078 318.469 146.21 318.77 146.408C319.07 146.605 319.325 146.864 319.519 147.166C319.712 147.469 319.84 147.809 319.893 148.165C319.947 148.52 319.925 148.883 319.829 149.229C319.733 149.575 319.565 149.897 319.337 150.175C319.108 150.452 318.823 150.678 318.502 150.837C309.983 156.395 300.377 163.798 299.308 166.193C299.682 169.547 309.828 185.149 319.178 197.918C319.457 198.296 319.626 198.744 319.667 199.212C319.708 199.68 319.619 200.15 319.41 200.571C319.202 200.992 318.881 201.348 318.484 201.599C318.087 201.85 317.628 201.987 317.158 201.994Z" fill="#231F20"/>
        <path d="M320.357 143.032H320.348C315.275 143.032 311.162 147.144 311.162 152.218V204.288C311.162 209.361 315.275 213.474 320.348 213.474H320.357C325.43 213.474 329.543 209.361 329.543 204.288V152.218C329.543 147.144 325.43 143.032 320.357 143.032Z" fill="#231F20"/>
        <path d="M320.357 214.104C317.751 214.102 315.252 213.066 313.409 211.225C311.565 209.383 310.527 206.885 310.522 204.279V152.181C310.6 149.626 311.67 147.201 313.505 145.421C315.34 143.642 317.796 142.646 320.352 142.646C322.909 142.646 325.365 143.642 327.2 145.421C329.035 147.201 330.104 149.626 330.182 152.181V204.279C330.18 206.884 329.144 209.382 327.302 211.224C325.46 213.066 322.962 214.102 320.357 214.104ZM320.357 143.672C318.09 143.672 315.915 144.572 314.311 146.174C312.707 147.777 311.804 149.95 311.802 152.218V204.316C311.874 206.535 312.807 208.639 314.403 210.183C315.998 211.728 318.132 212.591 320.352 212.591C322.573 212.591 324.706 211.728 326.302 210.183C327.898 208.639 328.83 206.535 328.903 204.316V152.218C328.903 149.951 328.002 147.777 326.4 146.175C324.797 144.572 322.623 143.672 320.357 143.672Z" fill="#231F20"/>
        <path d="M169.794 89.2064L287.206 89.2064C297.004 89.2064 304.673 96.6189 303.722 105.183L295.962 174.729L161.038 174.729L153.278 105.183C152.327 96.6189 159.996 89.2064 169.794 89.2064Z" fill="#231F20"/>
        <path d="M295.962 175.369L161.037 175.369C160.88 175.37 160.727 175.313 160.609 175.208C160.491 175.104 160.416 174.959 160.398 174.802L152.638 105.256C152.433 103.283 152.653 101.289 153.284 99.4079C153.914 97.5269 154.941 95.803 156.294 94.3522C158.017 92.493 160.111 91.0171 162.442 90.0203C164.772 89.0236 167.287 88.5283 169.821 88.5666L287.206 88.5666C289.74 88.5283 292.255 89.0236 294.585 90.0203C296.916 91.0171 299.01 92.493 300.733 94.3522C302.086 95.803 303.113 97.5269 303.743 99.4079C304.374 101.289 304.594 103.283 304.389 105.256L296.639 174.802C296.62 174.966 296.54 175.116 296.414 175.221C296.288 175.327 296.126 175.38 295.962 175.369ZM161.604 174.09L295.395 174.09L303.082 105.11C303.269 103.32 303.072 101.51 302.504 99.8017C301.937 98.0934 301.012 96.5254 299.792 95.2022C298.188 93.4778 296.24 92.1099 294.073 91.1872C291.906 90.2645 289.57 89.8076 287.215 89.8462L169.794 89.8462C167.437 89.8063 165.099 90.2626 162.931 91.1853C160.763 92.1081 158.813 93.4767 157.208 95.2022C155.987 96.5254 155.063 98.0934 154.495 99.8017C153.928 101.51 153.731 103.32 153.917 105.11L161.604 174.09Z" fill="#231F20"/>
        <path d="M295.222 101.454L161.778 101.454C161.688 101.465 161.597 101.456 161.511 101.429C161.424 101.402 161.345 101.357 161.277 101.297C161.209 101.237 161.155 101.164 161.118 101.081C161.081 100.999 161.062 100.909 161.062 100.819C161.062 100.728 161.081 100.639 161.118 100.556C161.155 100.474 161.209 100.4 161.277 100.34C161.345 100.28 161.424 100.235 161.511 100.208C161.597 100.181 161.688 100.173 161.778 100.184L295.222 100.184C295.312 100.173 295.403 100.181 295.489 100.208C295.575 100.235 295.655 100.28 295.723 100.34C295.79 100.4 295.845 100.474 295.882 100.556C295.919 100.639 295.938 100.728 295.938 100.819C295.938 100.909 295.919 100.999 295.882 101.081C295.845 101.164 295.79 101.237 295.723 101.297C295.655 101.357 295.575 101.402 295.489 101.429C295.403 101.456 295.312 101.465 295.222 101.454Z" fill="white"/>
        <path d="M199.672 264.244L195.42 266.326L187.646 250.45C187.386 249.919 187.347 249.306 187.539 248.747C187.731 248.187 188.137 247.727 188.668 247.467L188.914 247.346C189.445 247.086 190.058 247.048 190.618 247.239C191.177 247.431 191.638 247.837 191.898 248.368L199.672 264.244Z" fill="white"/>
        <path d="M195.422 266.961C195.302 266.963 195.184 266.93 195.082 266.867C194.981 266.804 194.899 266.713 194.846 266.605L187.068 250.728C186.736 250.044 186.687 249.256 186.931 248.535C187.053 248.178 187.244 247.85 187.494 247.567C187.743 247.285 188.046 247.055 188.385 246.89L188.631 246.771C189.315 246.436 190.103 246.387 190.823 246.634C191.543 246.881 192.135 247.403 192.47 248.087L200.248 263.963C200.321 264.115 200.331 264.289 200.276 264.448C200.222 264.607 200.106 264.738 199.956 264.813L195.706 266.888C195.618 266.934 195.521 266.959 195.422 266.961ZM189.893 247.767C189.651 247.767 189.414 247.824 189.198 247.932L188.951 248.05C188.763 248.141 188.595 248.269 188.456 248.426C188.318 248.583 188.213 248.766 188.147 248.964C188.011 249.36 188.037 249.794 188.22 250.171L195.715 265.471L198.813 263.954L191.318 248.608C191.182 248.349 190.977 248.132 190.725 247.982C190.474 247.832 190.185 247.755 189.893 247.758V247.767Z" fill="#231F20"/>
        <path d="M201.063 281.149L207.926 277.789L200.321 262.258L193.458 265.619L201.063 281.149Z" fill="white"/>
        <path d="M201.08 281.795C201.013 281.808 200.945 281.808 200.879 281.795C200.719 281.739 200.585 281.625 200.504 281.475L192.9 265.937C192.862 265.861 192.841 265.779 192.836 265.694C192.831 265.609 192.843 265.525 192.871 265.445C192.899 265.365 192.943 265.291 192.999 265.228C193.056 265.166 193.125 265.114 193.201 265.078L200.056 261.715C200.209 261.642 200.385 261.631 200.545 261.686C200.706 261.741 200.839 261.856 200.915 262.007L208.52 277.545C208.593 277.698 208.603 277.874 208.549 278.034C208.494 278.195 208.379 278.328 208.227 278.404L201.363 281.768C201.271 281.795 201.175 281.804 201.08 281.795ZM194.335 265.919L201.372 280.296L207.085 277.5L200.047 263.122L194.335 265.919Z" fill="#231F20"/>
        <path d="M190.612 253.678L192.631 252.689C193.969 252.034 194.522 250.419 193.867 249.081L183.018 226.926C182.363 225.589 180.748 225.036 179.411 225.69L177.391 226.679C176.054 227.334 175.501 228.949 176.156 230.287L187.004 252.442C187.659 253.779 189.274 254.333 190.612 253.678Z" fill="white"/>
        <path d="M189.426 254.595C189.059 254.593 188.695 254.531 188.348 254.412C187.932 254.272 187.548 254.05 187.218 253.759C186.889 253.469 186.62 253.116 186.429 252.721L175.579 230.566C175.385 230.173 175.27 229.746 175.241 229.308C175.212 228.871 175.271 228.432 175.413 228.017C175.555 227.603 175.777 227.22 176.068 226.892C176.358 226.564 176.711 226.296 177.106 226.105L179.126 225.109C179.921 224.721 180.837 224.665 181.674 224.953C182.51 225.241 183.198 225.85 183.586 226.645L194.444 248.8C194.832 249.595 194.888 250.512 194.6 251.348C194.312 252.184 193.704 252.872 192.909 253.26L190.898 254.257C190.438 254.476 189.936 254.592 189.426 254.595ZM180.588 226.051C180.272 226.052 179.96 226.124 179.674 226.261L177.663 227.248C177.42 227.367 177.202 227.534 177.024 227.738C176.845 227.942 176.708 228.179 176.621 228.436C176.533 228.69 176.497 228.959 176.514 229.228C176.531 229.496 176.602 229.758 176.722 229.999L187.571 252.163C187.689 252.407 187.854 252.624 188.056 252.803C188.258 252.982 188.494 253.119 188.75 253.205C189.267 253.379 189.832 253.343 190.322 253.105L192.342 252.118C192.823 251.871 193.188 251.446 193.359 250.933C193.529 250.421 193.493 249.862 193.256 249.376L182.407 227.211C182.239 226.87 181.98 226.582 181.659 226.377C181.339 226.173 180.968 226.06 180.588 226.051Z" fill="#231F20"/>
        <path d="M206.436 303.722C217.637 303.722 226.718 294.642 226.718 283.441C226.718 272.239 217.637 263.159 206.436 263.159C195.235 263.159 186.154 272.239 186.154 283.441C186.154 294.642 195.235 303.722 206.436 303.722Z" fill="white"/>
        <path d="M206.454 304.362C202.536 304.363 198.696 303.265 195.37 301.192C192.045 299.119 189.368 296.154 187.644 292.635C185.652 288.558 185.041 283.942 185.903 279.487C186.766 275.031 189.055 270.977 192.425 267.937C195.795 264.897 200.063 263.037 204.584 262.637C209.104 262.237 213.633 263.319 217.484 265.72C221.335 268.121 224.301 271.711 225.932 275.946C227.563 280.181 227.771 284.832 226.526 289.196C225.28 293.56 222.648 297.401 219.027 300.137C215.406 302.873 210.993 304.356 206.454 304.362ZM188.796 292.069C190.505 295.557 193.211 298.459 196.57 300.41C199.929 302.361 203.791 303.271 207.667 303.027C211.544 302.783 215.261 301.395 218.349 299.039C221.437 296.682 223.757 293.463 225.015 289.789C226.274 286.114 226.415 282.148 225.42 278.394C224.425 274.639 222.339 271.263 219.426 268.694C216.513 266.124 212.904 264.476 209.054 263.958C205.204 263.44 201.288 264.075 197.799 265.782C195.465 266.898 193.377 268.469 191.657 270.401C189.938 272.333 188.62 274.589 187.782 277.036C186.944 279.484 186.602 282.074 186.776 284.655C186.95 287.236 187.637 289.756 188.796 292.069Z" fill="#231F20"/>
        <path d="M206.436 299.92C215.537 299.92 222.915 292.542 222.915 283.441C222.915 274.339 215.537 266.961 206.436 266.961C197.335 266.961 189.957 274.339 189.957 283.441C189.957 292.542 197.335 299.92 206.436 299.92Z" fill="white"/>
        <path d="M206.463 300.551C202.266 300.551 198.215 299.007 195.083 296.213C191.951 293.419 189.956 289.57 189.479 285.399C189.003 281.229 190.078 277.029 192.499 273.6C194.92 270.172 198.518 267.753 202.607 266.807C206.696 265.861 210.991 266.452 214.672 268.469C218.354 270.485 221.164 273.786 222.568 277.742C223.972 281.698 223.871 286.032 222.285 289.918C220.699 293.804 217.738 296.971 213.967 298.814C211.63 299.955 209.064 300.549 206.463 300.551ZM206.408 267.601C203.716 267.603 201.069 268.29 198.716 269.599C196.364 270.908 194.384 272.795 192.963 275.082C191.542 277.369 190.728 279.981 190.597 282.67C190.466 285.359 191.022 288.037 192.214 290.451C193.464 292.984 195.369 295.136 197.731 296.685C200.093 298.235 202.826 299.124 205.647 299.261C208.468 299.399 211.275 298.779 213.776 297.467C216.277 296.155 218.382 294.198 219.873 291.799C221.363 289.399 222.185 286.645 222.253 283.821C222.321 280.998 221.632 278.207 220.259 275.739C218.886 273.271 216.877 271.215 214.442 269.784C212.007 268.353 209.233 267.599 206.408 267.601Z" fill="#231F20"/>
        <path d="M216.865 279.62L207.999 286.987L204.206 279.62L194.627 288.797" fill="white"/>
        <path d="M194.627 289.436C194.451 289.432 194.284 289.36 194.161 289.235C194.04 289.114 193.973 288.949 193.973 288.778C193.973 288.607 194.04 288.443 194.161 288.321L203.73 279.181C203.802 279.112 203.889 279.059 203.984 279.029C204.079 278.999 204.18 278.992 204.279 279.008C204.377 279.026 204.47 279.065 204.55 279.124C204.631 279.182 204.697 279.258 204.745 279.346L208.172 286.018L216.398 279.154C216.462 279.095 216.537 279.049 216.618 279.02C216.7 278.99 216.787 278.978 216.873 278.983C216.96 278.988 217.045 279.011 217.122 279.05C217.2 279.089 217.269 279.144 217.324 279.21C217.38 279.276 217.422 279.353 217.447 279.437C217.472 279.52 217.48 279.607 217.471 279.693C217.461 279.779 217.434 279.863 217.391 279.938C217.348 280.014 217.29 280.079 217.221 280.132L208.392 287.48C208.32 287.542 208.235 287.587 208.143 287.61C208.051 287.634 207.955 287.637 207.862 287.618C207.767 287.598 207.677 287.558 207.599 287.499C207.522 287.441 207.458 287.366 207.414 287.279L204.023 280.671L195.057 289.254C194.942 289.367 194.788 289.433 194.627 289.436Z" fill="#D1D3D4"/>
        <path d="M111.342 304.012L148.701 307.057L152.927 255.214L115.568 252.168L111.342 304.012Z" fill="white"/>
        <path d="M148.69 307.698H148.635L111.28 304.654C111.196 304.647 111.116 304.623 111.042 304.583C110.968 304.544 110.903 304.491 110.85 304.426C110.74 304.296 110.684 304.129 110.695 303.96L114.917 252.118C114.936 251.95 115.018 251.795 115.148 251.686C115.277 251.577 115.443 251.522 115.612 251.533L152.967 254.576C153.052 254.583 153.134 254.607 153.21 254.646C153.285 254.685 153.352 254.739 153.406 254.805C153.461 254.868 153.502 254.943 153.527 255.023C153.553 255.103 153.561 255.187 153.552 255.271L149.329 307.104C149.316 307.265 149.243 307.415 149.124 307.525C149.006 307.635 148.851 307.696 148.69 307.698ZM112.029 303.448L148.068 306.373L152.19 255.801L116.105 252.858L112.029 303.448Z" fill="#D1D3D4"/>
        <path d="M140.089 297.26C140.581 296.889 141.051 296.489 141.496 296.063C143.747 293.894 145.213 291.039 145.664 287.947L139.504 287.444C139.208 288.906 138.512 290.257 137.493 291.347C137.069 291.796 136.597 292.198 136.085 292.544C134.846 293.375 133.4 293.843 131.908 293.897L131.406 300.057C134.529 300.108 137.582 299.125 140.089 297.26Z" fill="#D1D3D4"/>
        <path d="M117.449 285.643C117.395 288.767 118.379 291.821 120.246 294.326L124.962 290.323C124.131 289.084 123.663 287.637 123.609 286.146C123.592 285.842 123.592 285.536 123.609 285.232C123.633 284.925 123.676 284.62 123.737 284.318C124.021 282.852 124.719 281.497 125.748 280.415C126.165 279.958 126.638 279.556 127.156 279.218C128.394 278.384 129.841 277.916 131.333 277.865C131.634 277.865 131.945 277.865 132.247 277.865C132.548 277.865 132.868 277.938 133.161 277.993C134.933 278.351 136.533 279.295 137.703 280.672C138.874 282.05 139.547 283.782 139.614 285.588L145.774 286.091C145.83 282.967 144.846 279.912 142.977 277.408C142.611 276.912 142.211 276.442 141.78 276.001C139.611 273.75 136.756 272.284 133.663 271.833C133.362 271.787 133.06 271.75 132.749 271.723L131.835 271.677C128.71 271.622 125.655 272.609 123.152 274.483C122.655 274.848 122.184 275.248 121.745 275.681C119.489 277.847 118.019 280.702 117.568 283.797C117.568 284.099 117.486 284.4 117.467 284.711C117.449 285.022 117.449 285.342 117.449 285.643Z" fill="#D1D3D4"/>
        <path d="M121.443 295.734C123.611 297.987 126.466 299.456 129.559 299.911L130.062 293.741C128.599 293.448 127.248 292.751 126.159 291.731L121.443 295.734Z" fill="#6ADEF9"/>
        <path d="M145.033 269.1H144.979L121.562 267.19C121.478 267.183 121.396 267.16 121.321 267.122C121.246 267.083 121.179 267.031 121.124 266.967C121.014 266.837 120.959 266.669 120.972 266.5C120.986 266.33 121.066 266.172 121.195 266.062C121.325 265.951 121.493 265.897 121.663 265.91L145.079 267.802C145.249 267.802 145.412 267.869 145.532 267.989C145.652 268.109 145.719 268.272 145.719 268.442C145.719 268.611 145.652 268.774 145.532 268.894C145.412 269.014 145.249 269.082 145.079 269.082L145.033 269.1Z" fill="#D1D3D4"/>
        <path d="M145.527 262.994H145.472L128.454 261.605C128.37 261.598 128.288 261.575 128.213 261.536C128.138 261.497 128.071 261.444 128.017 261.38C127.962 261.315 127.921 261.24 127.896 261.16C127.87 261.079 127.861 260.994 127.869 260.91C127.874 260.827 127.897 260.746 127.935 260.671C127.973 260.597 128.025 260.531 128.089 260.477C128.153 260.423 128.227 260.383 128.307 260.358C128.387 260.334 128.471 260.326 128.554 260.335L145.582 261.715C145.752 261.722 145.912 261.796 146.026 261.922C146.141 262.047 146.202 262.212 146.194 262.382C146.187 262.552 146.113 262.711 145.988 262.826C145.863 262.941 145.697 263.002 145.527 262.994Z" fill="#D1D3D4"/>
        <path d="M335.283 306.793C345.913 306.793 354.531 298.175 354.531 287.544C354.531 276.914 345.913 268.296 335.283 268.296C324.652 268.296 316.034 276.914 316.034 287.544C316.034 298.175 324.652 306.793 335.283 306.793Z" fill="white"/>
        <path d="M335.283 307.442C331.347 307.444 327.499 306.279 324.226 304.093C320.952 301.908 318.4 298.801 316.893 295.165C315.386 291.53 314.99 287.529 315.757 283.668C316.524 279.808 318.418 276.261 321.2 273.478C323.983 270.694 327.528 268.798 331.388 268.03C335.248 267.261 339.25 267.655 342.886 269.16C346.522 270.666 349.631 273.216 351.817 276.489C354.004 279.761 355.171 283.609 355.171 287.544C355.166 292.819 353.07 297.875 349.341 301.606C345.613 305.336 340.557 307.435 335.283 307.442ZM335.283 268.935C331.6 268.934 327.999 270.024 324.936 272.069C321.872 274.114 319.485 277.022 318.074 280.424C316.664 283.827 316.295 287.571 317.013 291.184C317.731 294.796 319.504 298.114 322.108 300.719C324.713 303.323 328.031 305.096 331.644 305.814C335.256 306.533 339 306.163 342.403 304.753C345.805 303.342 348.713 300.955 350.758 297.892C352.803 294.828 353.894 291.227 353.892 287.544C353.884 282.611 351.922 277.882 348.433 274.394C344.945 270.906 340.216 268.943 335.283 268.935Z" fill="#D1D3D4"/>
        <path d="M339.515 280.763L339.523 280.768C340.427 281.292 341.584 280.984 342.109 280.08L344.429 276.08C344.954 275.176 344.646 274.019 343.742 273.494L343.734 273.49C342.831 272.965 341.673 273.273 341.148 274.177L338.828 278.177C338.303 279.081 338.611 280.239 339.515 280.763Z" fill="white"/>
        <path d="M340.465 281.658C340.02 281.655 339.584 281.536 339.2 281.312C338.816 281.088 338.498 280.767 338.277 280.381C338.055 279.995 337.939 279.558 337.94 279.113C337.941 278.669 338.058 278.232 338.281 277.847L340.593 273.853C340.934 273.273 341.488 272.849 342.138 272.674C342.622 272.546 343.133 272.565 343.607 272.727C344.081 272.889 344.496 273.188 344.801 273.585C345.106 273.982 345.286 274.461 345.32 274.961C345.353 275.461 345.238 275.959 344.989 276.394L342.668 280.397C342.442 280.781 342.12 281.099 341.734 281.32C341.348 281.541 340.91 281.658 340.465 281.658ZM342.796 273.871C342.687 273.857 342.576 273.857 342.467 273.871C342.146 273.958 341.873 274.168 341.708 274.456L339.387 278.459C339.305 278.595 339.252 278.746 339.23 278.903C339.208 279.06 339.218 279.22 339.259 279.373C339.3 279.533 339.373 279.682 339.473 279.813C339.574 279.943 339.7 280.052 339.844 280.132C339.98 280.213 340.131 280.265 340.288 280.287C340.445 280.309 340.604 280.3 340.758 280.26C340.917 280.219 341.067 280.147 341.199 280.048C341.331 279.95 341.442 279.826 341.525 279.684L343.838 275.681C344.004 275.392 344.049 275.049 343.964 274.727C343.878 274.405 343.668 274.13 343.381 273.962C343.196 273.885 342.995 273.854 342.796 273.871Z" fill="#D1D3D4"/>
        <path d="M335.283 300.148C341.956 300.148 347.366 294.739 347.366 288.065C347.366 281.392 341.956 275.982 335.283 275.982C328.609 275.982 323.199 281.392 323.199 288.065C323.199 294.739 328.609 300.148 335.283 300.148Z" fill="white"/>
        <path d="M335.264 300.797C333.03 300.792 330.836 300.199 328.904 299.077C326.972 297.955 325.369 296.343 324.257 294.405C323.145 292.467 322.564 290.27 322.571 288.036C322.577 285.801 323.173 283.608 324.296 281.677C325.348 279.869 326.829 278.349 328.608 277.25C330.387 276.151 332.41 275.508 334.496 275.377C336.583 275.246 338.67 275.632 340.573 276.499C342.476 277.367 344.135 278.69 345.404 280.352C346.673 282.014 347.513 283.963 347.85 286.027C348.187 288.09 348.01 290.205 347.334 292.184C346.659 294.163 345.506 295.945 343.978 297.373C342.45 298.8 340.593 299.829 338.573 300.368C337.493 300.651 336.381 300.796 335.264 300.797ZM335.264 276.613C333.263 276.623 331.298 277.155 329.565 278.157C327.832 279.159 326.391 280.596 325.384 282.325C324.127 284.503 323.623 287.034 323.951 289.526C324.278 292.019 325.419 294.334 327.196 296.113C328.972 297.891 331.286 299.034 333.779 299.364C336.271 299.694 338.803 299.193 340.981 297.938C343.16 296.683 344.863 294.745 345.828 292.423C346.793 290.102 346.965 287.527 346.318 285.097C345.671 282.668 344.241 280.52 342.249 278.986C340.257 277.452 337.815 276.618 335.301 276.613H335.264Z" fill="#D1D3D4"/>
        <path d="M335.822 297.059C341.299 297.059 345.739 292.619 345.739 287.142C345.739 281.665 341.299 277.225 335.822 277.225C330.345 277.225 325.905 281.665 325.905 287.142C325.905 292.619 330.345 297.059 335.822 297.059Z" fill="#D1D3D4"/>
        <path d="M274.264 190.112L276.576 232.905L215.777 235.885L177.718 233.673C177.718 233.673 184.847 191.52 188.823 188.284C192.799 185.048 274.264 190.112 274.264 190.112Z" fill="#231F20"/>
        <path d="M215.813 236.534L177.681 234.331C177.592 234.329 177.505 234.306 177.426 234.265C177.347 234.223 177.278 234.165 177.224 234.094C177.168 234.024 177.126 233.944 177.102 233.857C177.079 233.77 177.074 233.68 177.087 233.591C177.828 229.249 184.399 191.099 188.421 187.8C192.443 184.5 265.937 188.97 274.337 189.49C274.494 189.499 274.642 189.566 274.754 189.677C274.865 189.788 274.931 189.937 274.94 190.094L277.253 232.896C277.26 233.064 277.201 233.229 277.088 233.353C277.032 233.418 276.963 233.469 276.886 233.506C276.809 233.542 276.725 233.562 276.64 233.564L215.813 236.534ZM178.467 233.07L215.823 235.236L275.9 232.293L273.651 190.706C241.003 188.686 191.995 186.52 189.225 188.768C186.456 191.017 181.347 216.243 178.467 233.07Z" fill="#231F20"/>
        <path d="M185.542 224.14C185.542 224.14 185.012 234.898 187.708 237.64C190.404 240.382 201.966 251.423 201.272 253.516C200.577 255.609 190.825 251.569 190.825 251.569C190.825 251.569 190.413 260.481 190.825 261.87C191.236 263.259 189.609 266.605 187.708 265.91C185.807 265.215 178.851 258.388 176.21 253.79C173.304 248.245 171.483 242.196 170.845 235.967C170.497 230.822 169.529 222.742 169.529 222.742L185.542 224.14Z" fill="white"/>
        <path d="M188.229 266.65C187.977 266.648 187.727 266.605 187.489 266.522C185.469 265.773 178.349 258.817 175.652 254.119C172.688 248.492 170.826 242.349 170.168 236.022C169.83 230.95 168.861 222.906 168.852 222.824C168.844 222.73 168.856 222.635 168.885 222.546C168.915 222.456 168.963 222.374 169.026 222.303C169.094 222.236 169.176 222.183 169.266 222.15C169.355 222.117 169.451 222.104 169.547 222.111L185.56 223.51C185.724 223.524 185.876 223.601 185.984 223.726C186.092 223.851 186.146 224.012 186.136 224.177C185.999 227.083 186.081 235.09 188.138 237.21C188.549 237.64 189.18 238.262 189.966 239.038C199.27 248.306 202.387 252.154 201.848 253.736C201.787 253.917 201.687 254.084 201.557 254.224C201.426 254.365 201.266 254.475 201.089 254.549C199.206 255.408 193.777 253.434 191.401 252.52C191.264 255.947 191.154 260.846 191.401 261.706C191.51 262.469 191.434 263.248 191.18 263.977C190.925 264.705 190.5 265.362 189.938 265.892C189.484 266.35 188.874 266.62 188.229 266.65ZM170.251 223.455C170.507 225.612 171.165 231.763 171.485 235.94C172.124 242.067 173.917 248.018 176.768 253.48C179.455 258.159 186.282 264.713 187.928 265.316C188.137 265.376 188.359 265.373 188.567 265.308C188.775 265.243 188.959 265.119 189.097 264.95C189.483 264.58 189.783 264.129 189.976 263.63C190.168 263.131 190.249 262.596 190.213 262.062C189.783 260.609 190.149 252.465 190.213 251.542C190.217 251.441 190.246 251.342 190.297 251.255C190.348 251.167 190.419 251.093 190.505 251.039C190.59 250.981 190.688 250.945 190.79 250.936C190.893 250.926 190.996 250.943 191.09 250.984C194.307 252.319 199.371 253.937 200.605 253.379C200.925 251.716 192.022 242.85 189.097 239.934L187.269 238.106C184.747 235.501 184.811 227.23 184.893 224.734L170.251 223.455Z" fill="#231F20"/>
        <path d="M284.3 226.608V238.088C282.305 239.853 280.572 241.893 279.154 244.148C276.787 247.904 268.497 261.696 272.326 262.949C276.156 264.201 284.3 251.67 284.3 251.67L288.477 267.957C288.477 267.957 295.578 263.78 298.083 256.679C300.587 249.577 299.545 222.861 299.545 222.861L284.3 226.608Z" fill="white"/>
        <path d="M288.477 268.597C288.392 268.6 288.308 268.584 288.23 268.551C288.14 268.511 288.06 268.452 287.995 268.378C287.93 268.304 287.883 268.216 287.855 268.122L284.035 253.178C281.649 256.679 275.699 264.685 272.153 263.515C271.86 263.423 271.594 263.262 271.376 263.045C271.158 262.829 270.995 262.564 270.9 262.272C269.612 258.708 275.882 248.151 278.633 243.773C280.038 241.549 281.739 239.526 283.687 237.759V226.608C283.685 226.465 283.732 226.325 283.82 226.212C283.909 226.099 284.032 226.02 284.172 225.987L299.426 222.221C299.519 222.2 299.615 222.199 299.708 222.217C299.801 222.236 299.889 222.275 299.966 222.331C300.04 222.388 300.101 222.461 300.144 222.545C300.187 222.629 300.21 222.721 300.212 222.815C300.258 223.921 301.236 249.76 298.713 256.898C296.191 264.036 289.098 268.332 288.824 268.515C288.718 268.573 288.598 268.601 288.477 268.597ZM284.3 251.03H284.409C284.531 251.048 284.645 251.102 284.736 251.185C284.827 251.268 284.892 251.377 284.921 251.496L288.879 266.925C290.707 265.663 295.551 261.934 297.48 256.459C299.682 250.226 299.079 228.125 298.933 223.647L284.939 227.092V238.06C284.941 238.155 284.921 238.248 284.881 238.333C284.842 238.419 284.783 238.494 284.711 238.554C282.767 240.275 281.078 242.263 279.693 244.458C275.297 251.441 271.239 259.53 272.079 261.824C272.108 261.933 272.165 262.032 272.243 262.112C272.322 262.192 272.42 262.25 272.527 262.281C274.986 263.095 280.753 255.947 283.77 251.313C283.828 251.226 283.907 251.155 283.999 251.106C284.092 251.056 284.195 251.03 284.3 251.03Z" fill="#231F20"/>
        <path d="M250.747 119.478C250.747 119.478 290.844 135.354 299.618 156.239C308.393 177.124 302.077 231.845 302.077 231.845L277.701 232.924L265.06 203.21C265.06 203.21 218.135 209.681 191.401 199.462L188.887 230.593L168.423 229.972C168.423 229.972 161.467 213.574 158.817 203.53C153.387 182.983 154.64 166.677 162.573 146.633C170.507 126.589 196.857 109.451 250.747 119.478Z" fill="#6ADEF9"/>
        <path d="M260.91 170.159C260.91 170.159 256.45 187.982 245.034 196.894C233.618 205.805 217.742 204.699 211.061 199.965C204.379 195.23 192.123 181.027 194.609 158.186C197.095 135.345 260.91 170.159 260.91 170.159Z" fill="white"/>
        <path d="M225.018 204.215C219.068 204.215 213.812 202.698 210.686 200.486C203.374 195.276 191.538 180.488 193.997 158.122C194.077 156.687 194.532 155.298 195.316 154.094C196.1 152.89 197.186 151.912 198.466 151.258C213.191 143.571 259.265 168.532 261.212 169.602C261.336 169.67 261.434 169.776 261.491 169.905C261.549 170.033 261.563 170.177 261.532 170.315C261.349 171.055 256.889 188.458 245.427 197.406C239.568 201.877 232.388 204.273 225.018 204.215ZM205.824 151.048C203.492 150.952 201.17 151.413 199.051 152.391C197.957 152.948 197.03 153.784 196.364 154.814C195.698 155.845 195.316 157.033 195.258 158.259C194.134 168.505 196.272 188.704 211.417 199.389C217.697 203.84 233.143 205.321 244.632 196.345C254.686 188.485 259.338 173.322 260.17 170.443C255.92 168.24 223.208 151.048 205.833 151.048H205.824Z" fill="#231F20"/>
        <path d="M242.722 173.87C235.126 179.354 225.228 179.299 216.353 177.901C208.812 176.704 198.731 175.159 193.85 168.761C190.615 164.52 189.216 159.155 188.522 153.863C187.297 144.485 187.516 134.148 191.355 125.364C194.435 118.308 201.619 114.853 208.246 111.444C223.637 103.529 243.398 106.161 256.395 117.486C263.177 123.381 267.171 132.11 268.433 140.966C269.721 150.061 269.036 161.257 264.585 169.392C259.485 178.678 250.984 183.714 242.722 173.87Z" fill="white"/>
        <path d="M252.099 179.848C248.8 179.848 245.619 178.129 242.621 174.729C236.278 179.089 227.641 180.332 216.252 178.532C208.712 177.334 198.384 175.707 193.347 169.108C190.487 165.379 188.777 160.544 187.863 153.908C186.374 142.547 187.342 132.886 190.742 125.072C193.795 118.089 200.577 114.606 207.14 111.243L207.926 110.841C223.409 102.88 243.499 105.357 256.788 116.965C263.305 122.641 267.656 131.113 269.036 140.838C270.571 151.614 269.1 162.381 265.124 169.657C261.779 175.753 257.483 179.354 253.022 179.802C252.73 179.83 252.41 179.848 252.099 179.848ZM242.722 173.23C242.815 173.231 242.908 173.252 242.993 173.291C243.078 173.331 243.154 173.388 243.215 173.459C246.332 177.161 249.613 178.87 252.922 178.532C256.898 178.129 260.938 174.675 264.027 169.044C267.884 162.007 269.292 151.523 267.802 141.012C266.458 131.616 262.263 123.39 255.975 117.906C243.069 106.673 223.564 104.196 208.538 111.947L207.752 112.358C201.354 115.621 194.81 118.994 191.94 125.556C188.64 133.106 187.699 142.584 189.198 153.717C190.03 160.115 191.684 164.758 194.398 168.341C199.124 174.528 209.16 176.119 216.49 177.279C227.814 179.107 236.287 177.791 242.383 173.368C242.481 173.291 242.598 173.243 242.722 173.23Z" fill="#231F20"/>
        <path d="M220.457 191.94C220.457 191.94 220.036 205.303 222.34 206.765C224.643 208.227 229.231 200.184 229.231 200.184" fill="white"/>
        <path d="M222.961 207.606C222.618 207.604 222.282 207.506 221.992 207.323C219.515 205.741 219.744 194.225 219.817 191.931C219.818 191.847 219.836 191.764 219.87 191.687C219.904 191.61 219.954 191.541 220.015 191.484C220.077 191.427 220.149 191.383 220.228 191.354C220.307 191.326 220.391 191.314 220.475 191.318C220.559 191.321 220.642 191.34 220.719 191.374C220.795 191.408 220.864 191.458 220.922 191.519C220.98 191.58 221.025 191.652 221.055 191.73C221.085 191.809 221.099 191.893 221.097 191.977C220.895 198.375 221.435 205.449 222.678 206.244C222.75 206.286 222.831 206.312 222.914 206.322C222.998 206.331 223.082 206.323 223.162 206.299C224.734 205.906 227.376 202.159 228.646 199.901C228.687 199.821 228.744 199.751 228.813 199.695C228.883 199.639 228.963 199.599 229.05 199.576C229.136 199.554 229.226 199.55 229.314 199.565C229.402 199.58 229.486 199.614 229.56 199.663C229.706 199.748 229.813 199.886 229.858 200.049C229.902 200.211 229.881 200.385 229.798 200.532C229.423 201.181 226.087 206.93 223.482 207.542C223.312 207.586 223.137 207.607 222.961 207.606Z" fill="#231F20"/>
        <path d="M237.64 197.232C238.65 197.232 239.468 196.414 239.468 195.404C239.468 194.394 238.65 193.576 237.64 193.576C236.63 193.576 235.812 194.394 235.812 195.404C235.812 196.414 236.63 197.232 237.64 197.232Z" fill="#231F20"/>
        <path d="M211.107 194.929C212.116 194.929 212.935 194.11 212.935 193.101C212.935 192.091 212.116 191.273 211.107 191.273C210.097 191.273 209.279 192.091 209.279 193.101C209.279 194.11 210.097 194.929 211.107 194.929Z" fill="#231F20"/>
        <path d="M264.502 202.689C264.355 202.689 264.213 202.638 264.099 202.545C263.986 202.451 263.909 202.321 263.881 202.177C263.849 202.011 263.883 201.839 263.978 201.698C264.072 201.558 264.218 201.46 264.384 201.427C264.484 201.427 274.438 199.325 277.609 194.216C277.649 194.138 277.705 194.068 277.774 194.013C277.842 193.957 277.921 193.916 278.006 193.892C278.091 193.869 278.179 193.863 278.267 193.875C278.354 193.887 278.438 193.917 278.513 193.963C278.588 194.009 278.652 194.07 278.703 194.143C278.753 194.215 278.788 194.297 278.805 194.383C278.823 194.469 278.822 194.558 278.803 194.644C278.785 194.73 278.748 194.812 278.697 194.883C275.251 200.477 265.069 202.597 264.63 202.68L264.502 202.689Z" fill="#231F20"/>
        <path d="M187.37 200.495C183.66 200.601 180.021 199.462 177.033 197.259C176.965 197.207 176.909 197.141 176.867 197.067C176.825 196.992 176.798 196.91 176.788 196.825C176.777 196.74 176.784 196.654 176.807 196.572C176.831 196.49 176.87 196.413 176.923 196.345C177.031 196.211 177.187 196.125 177.357 196.104C177.528 196.084 177.7 196.131 177.837 196.236C183.376 200.596 191.209 198.832 191.291 198.813C191.457 198.775 191.632 198.803 191.776 198.893C191.921 198.983 192.024 199.127 192.063 199.293C192.102 199.459 192.073 199.634 191.983 199.779C191.893 199.924 191.749 200.027 191.583 200.065C190.198 200.356 188.786 200.5 187.37 200.495Z" fill="#231F20"/>
        <path d="M173.77 211.006C173.45 211.006 173.121 211.006 172.792 211.006C172.708 211.001 172.626 210.98 172.551 210.943C172.475 210.907 172.408 210.856 172.353 210.793C172.297 210.73 172.255 210.656 172.228 210.577C172.202 210.497 172.191 210.413 172.198 210.33C172.203 210.246 172.226 210.163 172.263 210.088C172.301 210.013 172.353 209.945 172.417 209.89C172.48 209.835 172.554 209.793 172.634 209.766C172.714 209.74 172.799 209.729 172.883 209.736C181.84 210.348 189.609 201.51 189.691 201.391C189.747 201.326 189.814 201.272 189.891 201.234C189.967 201.195 190.05 201.172 190.135 201.166C190.22 201.16 190.306 201.171 190.386 201.199C190.467 201.226 190.542 201.27 190.605 201.327C190.672 201.381 190.728 201.447 190.768 201.523C190.808 201.599 190.832 201.682 190.839 201.768C190.846 201.854 190.835 201.94 190.808 202.021C190.78 202.102 190.736 202.177 190.679 202.241C190.331 202.561 182.937 211.006 173.77 211.006Z" fill="#231F20"/>
        <path d="M269.877 204.16C268.541 204.2 267.206 204.077 265.901 203.795C265.813 203.78 265.73 203.747 265.656 203.699C265.581 203.65 265.518 203.586 265.47 203.512C265.421 203.437 265.389 203.354 265.375 203.266C265.361 203.179 265.365 203.089 265.387 203.003C265.409 202.917 265.449 202.837 265.504 202.767C265.559 202.697 265.628 202.64 265.707 202.598C265.785 202.557 265.871 202.532 265.96 202.526C266.048 202.519 266.137 202.531 266.221 202.561C272.034 204.051 292.462 199.992 292.672 199.956C292.838 199.924 293.01 199.958 293.15 200.052C293.291 200.147 293.388 200.293 293.421 200.458C293.439 200.541 293.439 200.626 293.423 200.708C293.407 200.791 293.375 200.869 293.328 200.939C293.281 201.009 293.221 201.069 293.15 201.115C293.08 201.161 293.001 201.193 292.919 201.208C292.206 201.354 278.057 204.16 269.877 204.16Z" fill="#231F20"/>
    </g>
</svg>
