<svg width="386" height="297" viewBox="0 0 386 297" fill="none" xmlns="http://www.w3.org/2000/svg">
    <path opacity="0.18" d="M262.084 47.9242C269.183 61.1009 276.405 75.4425 281.906 89.2286C287.461 103.254 299.49 115.142 310.601 124.917C322.831 135.748 336.125 145.384 347.63 156.979C359.134 168.574 368.979 182.553 372.181 198.561C375.8 216.652 370.53 235.584 361.526 251.715C358.602 256.953 355.237 262.014 350.855 266.111C346.472 270.207 341.025 273.293 335.577 276.024C321.041 283.291 305.763 288.923 289.63 291.099C272.832 293.359 255.749 292.356 238.975 290.281C216.422 287.504 194.092 282.774 171.4 281.432C155.042 280.506 138.63 281.262 122.281 282.489C104.804 283.801 86.996 285.575 69.944 281.509C47.5603 276.163 28.1704 260.687 16.3112 240.961C6.03365 223.773 -5.625 191.055 3.41797 171.783C13.0551 151.247 39.1501 137.314 56.2484 123.868C63.1849 118.413 70.0289 112.427 73.964 104.542C78.3543 95.7552 78.6783 85.595 80.4993 75.9516C86.4173 44.684 110.074 17.4204 140.197 7.15983C182.564 -7.26662 233.69 2.3073 258.681 41.9608C259.854 43.8971 260.996 45.8721 262.084 47.9242Z" fill="#F89F3B"/>
    <path d="M139.226 50.4177H239.776V112.756C239.776 114.025 239.271 115.243 238.373 116.14C237.474 117.038 236.256 117.542 234.986 117.542H144.016C142.746 117.542 141.528 117.038 140.629 116.14C139.731 115.243 139.226 114.025 139.226 112.756V50.4177Z" fill="white"/>
    <path d="M234.986 118.108H144.016C142.594 118.105 141.232 117.538 140.227 116.533C139.223 115.527 138.659 114.164 138.659 112.744V50.4177C138.659 50.2662 138.718 50.1207 138.825 50.0125C138.931 49.9042 139.075 49.8417 139.226 49.8384H239.776C239.929 49.8384 240.077 49.8994 240.186 50.0081C240.294 50.1167 240.355 50.2641 240.355 50.4177V112.744C240.355 113.448 240.217 114.146 239.947 114.797C239.677 115.448 239.281 116.039 238.783 116.537C238.284 117.035 237.692 117.43 237.041 117.7C236.389 117.97 235.691 118.108 234.986 118.108ZM139.806 50.997V112.706C139.806 113.823 140.249 114.894 141.039 115.685C141.828 116.475 142.899 116.921 144.016 116.925H234.986C236.106 116.925 237.18 116.48 237.972 115.689C238.763 114.898 239.208 113.825 239.208 112.706V50.997H139.806Z" fill="#231F20"/>
    <path d="M144.016 41.5014H234.986C236.256 41.5014 237.474 42.0056 238.373 42.903C239.271 43.8005 239.776 45.0177 239.776 46.287V50.4177H139.226V46.287C139.226 45.0177 139.731 43.8005 140.629 42.903C141.528 42.0056 142.746 41.5014 144.016 41.5014Z" fill="white"/>
    <path d="M239.776 50.997H139.226C139.075 50.9937 138.931 50.9312 138.825 50.8229C138.718 50.7146 138.659 50.5692 138.659 50.4177V46.287C138.662 44.8685 139.228 43.509 140.232 42.506C141.236 41.503 142.596 40.938 144.016 40.9347H234.986C236.403 40.9413 237.761 41.5077 238.762 42.5104C239.763 43.5131 240.327 44.8706 240.33 46.287V50.4177C240.33 50.567 240.273 50.7107 240.169 50.8187C240.066 50.9266 239.925 50.9905 239.776 50.997ZM139.806 49.8384H239.208V46.287C239.205 45.1702 238.759 44.1004 237.967 43.3119C237.176 42.5234 236.103 42.0807 234.986 42.0807H144.016C142.901 42.084 141.832 42.5282 141.043 43.3163C140.254 44.1045 139.81 45.1724 139.806 46.287V49.8384Z" fill="#231F20"/>
    <path d="M163.982 75.3657C167.561 75.3657 170.461 72.4676 170.461 68.8926C170.461 65.3176 167.561 62.4195 163.982 62.4195C160.404 62.4195 157.503 65.3176 157.503 68.8926C157.503 72.4676 160.404 75.3657 163.982 75.3657Z" fill="#26AEB9"/>
    <path d="M152.209 88.4631C152.309 85.4085 153.594 82.5124 155.792 80.3869C157.991 78.2614 160.93 77.0731 163.989 77.0731C167.048 77.0731 169.987 78.2614 172.185 80.3869C174.383 82.5124 175.668 85.4085 175.768 88.4631H152.209Z" fill="#26AEB9"/>
    <path d="M215.02 75.3657C218.598 75.3657 221.499 72.4676 221.499 68.8926C221.499 65.3176 218.598 62.4195 215.02 62.4195C211.442 62.4195 208.541 65.3176 208.541 68.8926C208.541 72.4676 211.442 75.3657 215.02 75.3657Z" fill="#26AEB9"/>
    <path d="M203.247 88.4631C203.347 85.4085 204.632 82.5124 206.83 80.3869C209.028 78.2614 211.967 77.0731 215.026 77.0731C218.085 77.0731 221.024 78.2614 223.222 80.3869C225.42 82.5124 226.705 85.4085 226.805 88.4631H203.247Z" fill="#26AEB9"/>
    <path d="M200.562 69.4719H185.436C185.282 69.4719 185.135 69.4109 185.026 69.3022C184.917 69.1936 184.856 69.0462 184.856 68.8926C184.856 68.739 184.917 68.5916 185.026 68.483C185.135 68.3743 185.282 68.3133 185.436 68.3133H199.226L196.213 65.1523C196.16 65.0996 196.117 65.0368 196.089 64.9676C196.06 64.8985 196.045 64.8243 196.045 64.7493C196.045 64.6743 196.06 64.6001 196.089 64.5309C196.117 64.4618 196.16 64.399 196.213 64.3463C196.323 64.2408 196.47 64.182 196.623 64.182C196.775 64.182 196.922 64.2408 197.033 64.3463L200.965 68.4896C201.044 68.569 201.098 68.6704 201.118 68.7806C201.138 68.8907 201.124 69.0044 201.079 69.1067C201.037 69.2111 200.966 69.3011 200.875 69.366C200.783 69.4308 200.674 69.4676 200.562 69.4719Z" fill="#231F20"/>
    <path d="M196.78 73.1619C196.624 73.1603 196.474 73.0969 196.364 72.9855C196.256 72.8769 196.195 72.7297 196.195 72.5763C196.195 72.4228 196.256 72.2756 196.364 72.167L200.146 68.4896C200.257 68.3894 200.404 68.3363 200.553 68.3414C200.703 68.3465 200.845 68.4095 200.95 68.5171C201.054 68.6247 201.113 68.7685 201.113 68.9184C201.114 69.0683 201.056 69.2125 200.953 69.3208L197.171 72.9981C197.066 73.1 196.927 73.1585 196.78 73.1619Z" fill="#231F20"/>
    <path d="M193.39 74.3205H178.264C178.152 74.3223 178.042 74.2911 177.948 74.2305C177.853 74.17 177.779 74.083 177.734 73.9804C177.689 73.876 177.676 73.7605 177.696 73.6485C177.716 73.5366 177.769 73.433 177.848 73.3508L181.781 69.22C181.832 69.1623 181.895 69.1154 181.965 69.0822C182.035 69.049 182.111 69.0302 182.188 69.0268C182.265 69.0234 182.343 69.0355 182.415 69.0624C182.488 69.0893 182.554 69.1305 182.611 69.1835C182.667 69.2365 182.712 69.3002 182.744 69.371C182.775 69.4417 182.792 69.518 182.793 69.5954C182.795 69.6728 182.78 69.7496 182.751 69.8214C182.723 69.8932 182.68 69.9585 182.625 70.0134L179.6 73.1619H193.39C193.542 73.1651 193.688 73.2271 193.796 73.3351C193.904 73.443 193.966 73.5885 193.97 73.7412C193.97 73.8948 193.908 74.0422 193.8 74.1508C193.691 74.2594 193.543 74.3205 193.39 74.3205Z" fill="#231F20"/>
    <path d="M182.033 77.9978C181.96 77.9989 181.887 77.9849 181.82 77.9567C181.753 77.9285 181.692 77.8868 181.642 77.8341L177.86 74.1693C177.755 74.0592 177.696 73.9125 177.696 73.76C177.696 73.6075 177.755 73.4609 177.86 73.3507C177.969 73.2423 178.117 73.1814 178.27 73.1814C178.424 73.1814 178.571 73.2423 178.68 73.3507L182.461 77.0281C182.515 77.0808 182.557 77.1436 182.586 77.2127C182.615 77.2819 182.63 77.3561 182.63 77.4311C182.63 77.506 182.615 77.5803 182.586 77.6494C182.557 77.7186 182.515 77.7814 182.461 77.8341C182.404 77.8885 182.337 77.931 182.263 77.9591C182.19 77.9872 182.111 78.0003 182.033 77.9978Z" fill="#231F20"/>
    <path d="M219.482 96.0823H159.52C159.353 96.0823 159.193 96.016 159.075 95.8979C158.956 95.7798 158.89 95.6196 158.89 95.4526C158.893 95.2866 158.961 95.1284 159.078 95.011C159.196 94.8936 159.354 94.8262 159.52 94.823H219.482C219.649 94.823 219.809 94.8893 219.927 95.0074C220.046 95.1255 220.112 95.2856 220.112 95.4526C220.112 95.6196 220.046 95.7798 219.927 95.8979C219.809 96.016 219.649 96.0823 219.482 96.0823Z" fill="#F89F3B"/>
    <path d="M219.482 100.339H159.52C159.353 100.339 159.193 100.273 159.075 100.155C158.956 100.036 158.89 99.8763 158.89 99.7093C158.893 99.5433 158.961 99.385 159.078 99.2676C159.196 99.1502 159.354 99.0828 159.52 99.0796H219.482C219.649 99.0796 219.809 99.1459 219.927 99.264C220.046 99.3821 220.112 99.5423 220.112 99.7093C220.112 99.8763 220.046 100.036 219.927 100.155C219.809 100.273 219.649 100.339 219.482 100.339Z" fill="#F89F3B"/>
    <path d="M213.318 104.646H159.52C159.353 104.646 159.193 104.58 159.075 104.462C158.956 104.343 158.89 104.183 158.89 104.016C158.893 103.85 158.961 103.692 159.078 103.575C159.196 103.457 159.354 103.39 159.52 103.387H213.318C213.484 103.39 213.643 103.457 213.76 103.575C213.878 103.692 213.945 103.85 213.948 104.016C213.948 104.183 213.882 104.343 213.764 104.462C213.645 104.58 213.485 104.646 213.318 104.646Z" fill="#F89F3B"/>
    <path d="M146.298 47.496C147.147 47.496 147.836 46.8081 147.836 45.9595C147.836 45.111 147.147 44.4231 146.298 44.4231C145.448 44.4231 144.76 45.111 144.76 45.9595C144.76 46.8081 145.448 47.496 146.298 47.496Z" fill="#26AEB9"/>
    <path d="M151.718 47.496C152.567 47.496 153.256 46.8081 153.256 45.9595C153.256 45.111 152.567 44.4231 151.718 44.4231C150.869 44.4231 150.18 45.111 150.18 45.9595C150.18 46.8081 150.869 47.496 151.718 47.496Z" fill="#F89F3B"/>
    <path d="M157.138 47.496C157.987 47.496 158.676 46.8081 158.676 45.9595C158.676 45.111 157.987 44.4231 157.138 44.4231C156.289 44.4231 155.6 45.111 155.6 45.9595C155.6 46.8081 156.289 47.496 157.138 47.496Z" fill="#F89F3B"/>
    <path d="M255.343 44.6624H385.098V197.65C385.098 199.32 384.434 200.922 383.252 202.102C382.07 203.283 380.467 203.947 378.795 203.947H261.633C259.961 203.947 258.358 203.283 257.176 202.102C255.994 200.922 255.33 199.32 255.33 197.65V44.6624H255.343Z" fill="white"/>
    <path d="M378.795 204.576H261.57C259.733 204.573 257.973 203.842 256.676 202.543C255.378 201.245 254.65 199.485 254.65 197.65V44.6624C254.65 44.4954 254.716 44.3352 254.834 44.2171C254.952 44.099 255.113 44.0327 255.28 44.0327H385.098C385.265 44.0327 385.425 44.099 385.543 44.2171C385.661 44.3352 385.728 44.4954 385.728 44.6624V197.65C385.725 199.486 384.993 201.246 383.694 202.544C382.394 203.842 380.633 204.573 378.795 204.576ZM255.973 45.2921V197.675C255.973 199.176 256.569 200.615 257.63 201.678C258.691 202.74 260.131 203.339 261.633 203.342H378.858C380.362 203.339 381.802 202.741 382.865 201.679C383.928 200.617 384.527 199.177 384.53 197.675V45.2921H255.973Z" fill="#231F20"/>
    <path d="M358.64 191.341H281.75C280.134 191.328 278.587 190.682 277.442 189.543C276.296 188.403 275.644 186.86 275.624 185.245V181.593C275.628 179.961 276.278 178.397 277.433 177.242C278.588 176.088 280.154 175.438 281.788 175.435H358.678C360.313 175.435 361.88 176.084 363.036 177.239C364.192 178.394 364.842 179.96 364.842 181.593V185.245C364.825 186.874 364.163 188.43 363.001 189.573C361.838 190.715 360.27 191.351 358.64 191.341ZM281.75 176.694C280.456 176.704 279.219 177.225 278.307 178.143C277.396 179.06 276.885 180.301 276.885 181.593V185.245C276.888 186.543 277.406 187.785 278.325 188.701C279.244 189.617 280.49 190.132 281.788 190.132H358.678C359.976 190.132 361.221 189.617 362.141 188.701C363.06 187.785 363.578 186.543 363.581 185.245V181.593C363.581 180.294 363.065 179.048 362.145 178.129C361.225 177.21 359.978 176.694 358.678 176.694H281.75Z" fill="#231F20"/>
    <path d="M273.897 86.5867H284.183V160.65H273.897V86.5867Z" fill="#26AEB9"/>
    <path d="M292.88 103.928H303.166V160.637H292.88V103.928Z" fill="#26AEB9"/>
    <path d="M311.851 92.6316H322.136V160.65H311.851V92.6316Z" fill="#26AEB9"/>
    <path d="M330.834 113.121H341.119V160.637H330.834V113.121Z" fill="#26AEB9"/>
    <path d="M349.817 92.6316H360.102V160.65H349.817V92.6316Z" fill="#26AEB9"/>
    <path d="M359.863 58.0494H342.43C342.263 58.0494 342.103 57.9831 341.985 57.865C341.867 57.7469 341.8 57.5868 341.8 57.4198C341.8 57.2528 341.867 57.0926 341.985 56.9745C342.103 56.8564 342.263 56.7901 342.43 56.7901H359.838C360.004 56.7933 360.162 56.8607 360.28 56.9781C360.397 57.0955 360.465 57.2538 360.468 57.4198C360.468 57.5825 360.405 57.739 360.292 57.8563C360.18 57.9737 360.026 58.0429 359.863 58.0494Z" fill="#231F20"/>
    <path d="M353.775 64.5352H342.43C342.263 64.5352 342.103 64.4688 341.985 64.3508C341.867 64.2327 341.8 64.0725 341.8 63.9055C341.8 63.7385 341.867 63.5783 341.985 63.4602C342.103 63.3422 342.263 63.2758 342.43 63.2758H353.775C353.942 63.2758 354.102 63.3422 354.22 63.4602C354.339 63.5783 354.405 63.7385 354.405 63.9055C354.405 64.0725 354.339 64.2327 354.22 64.3508C354.102 64.4688 353.942 64.5352 353.775 64.5352Z" fill="#231F20"/>
    <path d="M337.25 93.3998C331.754 93.3998 326.964 87.2793 323.107 82.3426C320.586 79.1438 318.229 76.0458 316.653 76.0458C314.863 76.0458 312.393 77.5192 309.784 79.0305C306.229 81.0832 302.221 83.413 298.439 83.1989C291.368 82.8211 278.082 67.2302 277.528 66.5628C277.475 66.5036 277.436 66.4346 277.411 66.3599C277.386 66.2852 277.376 66.2062 277.381 66.1276C277.387 66.049 277.409 65.9724 277.445 65.9022C277.481 65.8321 277.53 65.7698 277.591 65.719C277.706 65.6082 277.859 65.5462 278.019 65.5462C278.179 65.5462 278.333 65.6082 278.448 65.719C278.574 65.8827 291.948 81.587 298.502 81.9396C301.956 82.1411 305.813 79.8994 309.216 77.9222C311.964 76.3354 314.561 74.8368 316.653 74.7738C318.746 74.7108 321.178 77.6955 324.128 81.4862C327.909 86.3096 332.573 92.3041 337.628 92.0649C342.002 91.8508 344.094 88.0475 346.312 84.0175C348.531 79.9876 350.636 76.1339 355.06 75.2901C355.21 75.2783 355.359 75.3223 355.477 75.4138C355.596 75.5053 355.677 75.6376 355.704 75.7852C355.73 75.9327 355.701 76.0849 355.622 76.2121C355.543 76.3394 355.419 76.4327 355.275 76.4739C351.417 77.2044 349.451 80.7936 347.359 84.5968C345.09 88.7402 342.733 93.022 337.691 93.2739L337.25 93.3998Z" fill="#F89F3B"/>
    <path d="M368.9 161.242H265.54C265.461 161.242 265.383 161.226 265.311 161.196C265.238 161.165 265.172 161.12 265.117 161.064C265.062 161.008 265.018 160.941 264.989 160.868C264.96 160.795 264.946 160.716 264.948 160.637C264.954 160.484 265.019 160.338 265.129 160.23C265.239 160.123 265.386 160.061 265.54 160.058H368.9C369.061 160.058 369.215 160.122 369.328 160.235C369.442 160.349 369.505 160.502 369.505 160.663C369.504 160.74 369.487 160.817 369.456 160.888C369.424 160.959 369.379 161.024 369.323 161.077C369.267 161.131 369.201 161.173 369.128 161.202C369.056 161.23 368.978 161.244 368.9 161.242Z" fill="#F89F3B"/>
    <path d="M278.145 68.4896C277.687 68.4896 277.238 68.3537 276.857 68.0991C276.475 67.8444 276.178 67.4825 276.002 67.0591C275.827 66.6357 275.781 66.1698 275.87 65.7203C275.96 65.2708 276.181 64.8579 276.505 64.5338C276.83 64.2098 277.243 63.9891 277.693 63.8996C278.143 63.8102 278.609 63.8561 279.033 64.0315C279.457 64.2069 279.819 64.5039 280.074 64.885C280.329 65.266 280.465 65.714 280.465 66.1723C280.465 66.4766 280.405 66.778 280.288 67.0591C280.171 67.3403 280.001 67.5957 279.785 67.8109C279.57 68.026 279.314 68.1967 279.033 68.3132C278.751 68.4296 278.45 68.4896 278.145 68.4896ZM278.145 65.0641C277.923 65.0641 277.705 65.1302 277.521 65.2539C277.336 65.3776 277.192 65.5534 277.108 65.759C277.023 65.9645 277.002 66.1905 277.046 66.4083C277.09 66.626 277.198 66.8257 277.357 66.982C277.515 67.1382 277.716 67.2439 277.934 67.2857C278.153 67.3276 278.379 67.3036 278.583 67.2168C278.788 67.13 278.962 66.9844 279.084 66.7984C279.206 66.6125 279.27 66.3945 279.267 66.1723C279.267 66.0257 279.238 65.8806 279.181 65.7453C279.125 65.61 279.042 65.4873 278.938 65.3842C278.833 65.2811 278.71 65.1998 278.574 65.1448C278.438 65.0899 278.292 65.0624 278.145 65.0641Z" fill="#F89F3B"/>
    <path d="M355.035 78.3252C354.577 78.3228 354.13 78.1847 353.75 77.9286C353.37 77.6725 353.075 77.3097 352.902 76.8861C352.728 76.4625 352.684 75.9969 352.775 75.5483C352.866 75.0996 353.087 74.6879 353.412 74.3651C353.737 74.0423 354.15 73.8228 354.6 73.7344C355.05 73.646 355.515 73.6927 355.938 73.8684C356.361 74.0442 356.723 74.3412 356.977 74.722C357.231 75.1027 357.367 75.5503 357.367 76.008C357.364 76.6237 357.117 77.2131 356.68 77.6473C356.243 78.0815 355.652 78.3253 355.035 78.3252ZM355.035 74.8872C354.813 74.8872 354.596 74.9529 354.412 75.0761C354.228 75.1992 354.084 75.3743 353.999 75.5791C353.914 75.7839 353.892 76.0093 353.935 76.2267C353.978 76.4441 354.085 76.6438 354.242 76.8006C354.399 76.9573 354.599 77.0641 354.816 77.1073C355.034 77.1506 355.26 77.1284 355.465 77.0435C355.67 76.9587 355.845 76.815 355.968 76.6307C356.091 76.4464 356.157 76.2297 356.157 76.008C356.157 75.7108 356.039 75.4257 355.828 75.2155C355.618 75.0053 355.333 74.8872 355.035 74.8872Z" fill="#F89F3B"/>
    <path d="M261.633 31.6028H378.795C380.467 31.6028 382.07 32.2662 383.252 33.4471C384.434 34.6279 385.098 36.2296 385.098 37.8996V44.6372H255.343V37.8996C255.343 36.2317 256.005 34.632 257.184 33.4515C258.364 32.271 259.963 31.6061 261.633 31.6028Z" fill="white"/>
    <path d="M385.098 45.292H255.343C255.176 45.292 255.015 45.2257 254.897 45.1076C254.779 44.9895 254.713 44.8294 254.713 44.6624V37.8996C254.713 36.0647 255.441 34.3049 256.739 33.0062C258.036 31.7076 259.796 30.9764 261.633 30.9731H378.858C380.696 30.9764 382.457 31.7072 383.757 33.0055C385.056 34.3037 385.788 36.0636 385.791 37.8996V44.6372C385.795 44.7275 385.78 44.8177 385.746 44.9016C385.712 44.9854 385.66 45.061 385.594 45.1231C385.529 45.1853 385.45 45.2325 385.364 45.2617C385.279 45.2908 385.188 45.3012 385.098 45.292ZM255.973 44.0327H384.467V37.8996C384.464 36.3976 383.865 34.9581 382.802 33.896C381.739 32.8339 380.299 32.2358 378.795 32.2324H261.57C260.068 32.2358 258.628 32.8343 257.567 33.8967C256.506 34.9592 255.91 36.3987 255.91 37.8996L255.973 44.0327Z" fill="#231F20"/>
    <path d="M121.453 109.469H34.6434C32.0885 109.469 30.0174 111.539 30.0174 114.091V222.774C30.0174 225.327 32.0885 227.396 34.6434 227.396H121.453C124.008 227.396 126.079 225.327 126.079 222.774V114.091C126.079 111.539 124.008 109.469 121.453 109.469Z" fill="white"/>
    <path d="M121.453 228.064H34.6433C33.2493 228.064 31.9124 227.51 30.9266 226.525C29.9409 225.541 29.3871 224.205 29.3871 222.812V114.091C29.3904 112.699 29.9453 111.366 30.9303 110.382C31.9153 109.397 33.2503 108.843 34.6433 108.84H121.453C122.846 108.843 124.181 109.397 125.166 110.382C126.151 111.366 126.706 112.699 126.709 114.091V222.774C126.714 223.467 126.582 224.154 126.32 224.796C126.058 225.437 125.672 226.021 125.183 226.512C124.695 227.004 124.114 227.394 123.473 227.66C122.833 227.927 122.147 228.064 121.453 228.064ZM34.6433 110.099C33.5846 110.102 32.5702 110.524 31.8216 111.272C31.073 112.02 30.6509 113.033 30.6476 114.091V222.774C30.6426 223.302 30.7423 223.825 30.9408 224.314C31.1394 224.802 31.4329 225.247 31.8045 225.622C32.176 225.996 32.6182 226.294 33.1054 226.497C33.5927 226.7 34.1154 226.804 34.6433 226.804H121.453C122.513 226.804 123.529 226.384 124.279 225.635C125.028 224.886 125.449 223.871 125.449 222.812V114.091C125.446 113.033 125.024 112.02 124.275 111.272C123.526 110.524 122.512 110.102 121.453 110.099H34.6433Z" fill="#231F20"/>
    <path d="M101.865 202.486H50.097C49.9298 202.486 49.7695 202.42 49.6513 202.302C49.5332 202.184 49.4668 202.024 49.4668 201.857C49.47 201.691 49.5374 201.532 49.6549 201.415C49.7724 201.297 49.9309 201.23 50.097 201.227H101.865C102.032 201.227 102.193 201.293 102.311 201.411C102.429 201.529 102.496 201.69 102.496 201.857C102.496 202.024 102.429 202.184 102.311 202.302C102.193 202.42 102.032 202.486 101.865 202.486Z" fill="#F89F3B"/>
    <path d="M76.8698 210.937H50.097C49.9309 210.933 49.7724 210.866 49.6549 210.749C49.5374 210.631 49.47 210.473 49.4668 210.307C49.4668 210.14 49.5332 209.98 49.6513 209.862C49.7695 209.744 49.9298 209.677 50.097 209.677H76.8698C77.0369 209.677 77.1972 209.744 77.3154 209.862C77.4336 209.98 77.5 210.14 77.5 210.307C77.4968 210.473 77.4294 210.631 77.3119 210.749C77.1944 210.866 77.0359 210.933 76.8698 210.937Z" fill="#F89F3B"/>
    <path d="M53.2986 136.017C60.8616 143.573 68.3951 151.104 75.8992 158.61C76.0141 158.735 76.1547 158.833 76.3114 158.898C76.4681 158.964 76.6371 158.994 76.8067 158.988H111.432C111.243 164.331 109.77 169.551 107.139 174.207C104.508 178.863 100.795 182.819 96.313 185.742C91.8313 188.664 86.7122 190.468 81.3869 191C76.0617 191.532 70.6864 190.778 65.7141 188.8C60.7417 186.823 56.318 183.68 52.8156 179.637C49.3133 175.594 46.8349 170.769 45.5894 165.569C44.344 160.369 44.3678 154.946 45.659 149.757C46.9502 144.567 49.4709 139.764 53.0087 135.752L53.2986 136.017Z" fill="#26AEB9"/>
    <path d="M79.2522 124.393V156.607H79.5799L110.79 156.532C111.483 156.532 111.483 156.532 111.432 155.839C111.039 149.712 108.975 143.81 105.465 138.771C101.954 133.732 97.1308 129.748 91.5167 127.252C88.0899 125.756 84.4406 124.833 80.7144 124.519L79.2522 124.393Z" fill="#F89F3B"/>
    <path d="M76.8698 156.179V124.418C73.1208 124.612 69.4252 125.39 65.9161 126.723C61.7186 128.382 57.8894 130.851 54.6474 133.989L76.8698 156.179Z" fill="#F89F3B"/>
    <path d="M176.928 139.027C169.503 136.798 165.583 128.121 163.604 121.219C161.386 113.373 158.777 106.951 161.94 98.7773C162.659 96.9009 163.819 94.9993 165.722 94.3948C166.197 94.3264 166.655 94.1682 167.071 93.9288C167.401 93.6022 167.648 93.2003 167.789 92.7576C172.302 82.1286 185.07 81.8389 194.65 83.3375C200.196 84.2065 207.394 86.7378 209.121 92.4302C212.284 102.921 209.612 114.33 203.789 123.398C198.343 131.924 188.045 142.427 176.928 139.027Z" fill="white"/>
    <path d="M181.176 140.286C179.676 140.29 178.185 140.069 176.751 139.631C168.999 137.301 164.991 128.435 162.999 121.395C162.747 120.501 162.495 119.62 162.23 118.751C160.214 111.912 158.449 105.993 161.348 98.601C162.369 95.9438 163.806 94.3444 165.583 93.8406L165.961 93.7525C166.269 93.7551 166.567 93.6451 166.799 93.4433C167.032 93.2414 167.182 92.9617 167.222 92.6568C171.924 81.6248 184.869 81.1966 194.801 82.7708C198.583 83.3627 207.734 85.491 209.789 92.3042C212.789 102.278 210.822 113.713 204.381 123.788C198.923 132.188 190.327 140.286 181.176 140.286ZM186.772 83.3123C179.209 83.3123 171.646 85.4533 168.407 92.9968C168.238 93.5441 167.924 94.0357 167.499 94.4199C167.124 94.6835 166.692 94.856 166.239 94.9237L165.924 95.0118C164.55 95.3896 163.403 96.7372 162.52 99.004C159.798 106.044 161.487 111.774 163.44 118.398C163.705 119.267 163.957 120.149 164.222 121.055C166.125 127.78 169.907 136.269 177.117 138.435C187.201 141.445 197.285 132.465 203.297 123.058C209.537 113.336 211.452 102.241 208.553 92.6064C206.7 86.4859 198.167 84.5213 194.587 83.9672C192.003 83.548 189.39 83.3291 186.772 83.3123Z" fill="#231F20"/>
    <path d="M210.658 117.794C210.658 117.794 218.612 127.73 217.364 130.06C216.116 132.39 211.175 131.319 211.175 131.319" fill="white"/>
    <path d="M213.532 132.239C212.686 132.24 211.841 132.155 211.011 131.987C210.844 131.953 210.697 131.855 210.603 131.713C210.508 131.572 210.474 131.398 210.507 131.231C210.541 131.064 210.639 130.917 210.781 130.823C210.923 130.728 211.096 130.694 211.264 130.727C212.524 130.979 215.94 131.307 216.772 129.745C217.427 128.486 213.822 122.781 210.129 118.159C210.024 118.028 209.974 117.861 209.991 117.694C210.007 117.527 210.089 117.373 210.217 117.265C210.351 117.164 210.518 117.119 210.685 117.137C210.851 117.156 211.004 117.238 211.112 117.366C213.041 119.784 219.23 127.831 217.881 130.337C217.1 131.886 215.121 132.239 213.532 132.239Z" fill="#231F20"/>
    <path d="M207.885 103.941C212.675 107.165 212.083 114.973 212.499 119.972C213.079 127 213.499 134.044 213.759 141.105C213.923 145.575 202.415 146.721 200.234 145.575L203.637 163.018L178.566 155.915L177.495 135.526C177.495 135.526 185.058 134.883 188.839 125.451C192.621 116.018 191.07 102.027 191.07 102.027C191.07 102.027 203.209 100.78 207.885 103.941Z" fill="white"/>
    <path d="M203.637 163.647H203.461L178.365 156.544C178.237 156.51 178.124 156.438 178.04 156.336C177.957 156.234 177.907 156.109 177.898 155.978L176.827 135.576C176.82 135.415 176.874 135.257 176.98 135.136C177.085 135.014 177.234 134.937 177.394 134.921C177.697 134.921 184.692 134.178 188.184 125.199C191.776 115.955 190.39 102.203 190.377 102.064C190.367 101.897 190.416 101.732 190.516 101.598C190.569 101.534 190.634 101.481 190.707 101.442C190.781 101.403 190.861 101.379 190.944 101.372C191.449 101.372 203.436 100.2 208.238 103.437C212.486 106.308 212.751 112.353 212.965 117.29C212.965 118.247 213.053 119.166 213.129 120.01C213.709 127.037 214.137 134.153 214.389 141.168C214.384 141.879 214.178 142.574 213.794 143.173C213.41 143.773 212.865 144.252 212.221 144.555C209.284 146.394 203.738 147.011 201.041 146.558L204.255 162.929C204.275 163.036 204.268 163.146 204.235 163.249C204.202 163.352 204.144 163.446 204.066 163.521C203.941 163.609 203.79 163.654 203.637 163.647ZM179.134 155.436L202.818 162.136L199.616 145.701C199.589 145.584 199.598 145.462 199.64 145.35C199.683 145.238 199.758 145.141 199.856 145.072C199.957 145.01 200.072 144.978 200.19 144.978C200.308 144.978 200.423 145.01 200.524 145.072C201.923 145.815 208.402 145.424 211.553 143.46C212.637 142.78 213.167 142.011 213.129 141.18C212.877 134.178 212.448 127.075 211.868 120.073C211.793 119.217 211.755 118.285 211.705 117.303C211.503 112.719 211.251 107.014 207.532 104.507C203.751 101.913 194.209 102.417 191.688 102.593C191.928 105.477 192.659 117.202 189.356 125.677C186.054 134.153 180.066 135.752 178.113 136.117L179.134 155.436Z" fill="#231F20"/>
    <path d="M213.116 135.878C213.116 135.878 206.209 135.878 204.558 126.559L213.116 135.878Z" fill="white"/>
    <path d="M213.116 136.508C213.041 136.508 205.654 136.395 203.927 126.672C203.902 126.507 203.941 126.339 204.038 126.202C204.134 126.066 204.28 125.973 204.444 125.942C204.608 125.912 204.777 125.949 204.914 126.043C205.051 126.138 205.145 126.282 205.175 126.446C206.701 135.11 212.864 135.261 213.116 135.261C213.284 135.261 213.444 135.327 213.562 135.446C213.68 135.564 213.747 135.724 213.747 135.891C213.743 136.056 213.675 136.213 213.558 136.328C213.44 136.443 213.281 136.508 213.116 136.508Z" fill="#231F20"/>
    <path d="M197.575 123.536C197.215 121.799 196.382 120.196 195.167 118.902C194.37 117.78 193.41 116.782 192.318 115.943C191.771 115.525 191.137 115.235 190.463 115.093C189.79 114.952 189.093 114.962 188.423 115.124C187.856 115.33 187.339 115.653 186.905 116.072C186.47 116.491 186.129 116.996 185.902 117.555C185.449 118.685 185.256 119.903 185.335 121.119C185.454 123.776 186.273 126.355 187.71 128.595C189.146 130.835 191.149 132.657 193.516 133.876L193.1 133.485" fill="white"/>
    <path d="M193.478 134.48C193.381 134.479 193.285 134.453 193.201 134.405C190.741 133.128 188.658 131.229 187.161 128.898C185.664 126.567 184.804 123.885 184.667 121.119C184.59 119.829 184.801 118.538 185.285 117.34C185.553 116.693 185.955 116.11 186.466 115.63C186.977 115.15 187.584 114.785 188.247 114.557C189.007 114.366 189.801 114.348 190.569 114.505C191.337 114.662 192.06 114.99 192.684 115.464C193.828 116.334 194.831 117.375 195.659 118.549C196.948 119.934 197.822 121.654 198.18 123.511C198.197 123.677 198.149 123.842 198.045 123.972C197.941 124.102 197.79 124.185 197.625 124.204C197.46 124.222 197.294 124.173 197.164 124.07C197.034 123.966 196.951 123.815 196.932 123.65C196.576 122.027 195.788 120.53 194.65 119.318C193.894 118.25 192.985 117.3 191.953 116.497C191.483 116.135 190.938 115.881 190.358 115.755C189.779 115.628 189.178 115.632 188.6 115.766C188.111 115.942 187.666 116.219 187.292 116.58C186.918 116.94 186.625 117.375 186.432 117.857C186.015 118.9 185.838 120.023 185.915 121.144C186.035 123.529 186.74 125.849 187.966 127.9C189.192 129.951 190.903 131.67 192.949 132.906C193.04 132.888 193.136 132.892 193.226 132.918C193.316 132.944 193.398 132.992 193.465 133.057L193.894 133.435C193.993 133.52 194.064 133.633 194.096 133.76C194.128 133.886 194.12 134.019 194.073 134.141C194.025 134.263 193.942 134.367 193.833 134.439C193.724 134.511 193.596 134.547 193.465 134.543L193.478 134.48Z" fill="#231F20"/>
    <path d="M200.234 145.575C200.234 145.575 194.07 144.316 190.919 140.412C190.919 140.412 192.028 149.731 201.482 151.998L200.234 145.575Z" fill="#231F20"/>
    <path d="M201.482 152.628H201.331C191.562 150.298 190.302 140.614 190.289 140.513C190.272 140.377 190.3 140.24 190.369 140.122C190.437 140.004 190.542 139.911 190.667 139.858C190.791 139.803 190.93 139.79 191.063 139.822C191.195 139.854 191.313 139.929 191.398 140.034C194.385 143.674 200.297 144.971 200.36 144.984C200.483 145.009 200.595 145.071 200.683 145.16C200.771 145.25 200.829 145.364 200.852 145.487L202.112 151.897C202.131 151.989 202.129 152.083 202.107 152.174C202.084 152.265 202.042 152.349 201.983 152.422C201.924 152.494 201.849 152.552 201.765 152.592C201.68 152.632 201.588 152.653 201.495 152.653L201.482 152.628ZM192.028 142.402C192.642 144.453 193.752 146.321 195.26 147.841C196.768 149.361 198.628 150.486 200.675 151.117L199.692 146.079C196.913 145.403 194.304 144.159 192.028 142.427V142.402Z" fill="#231F20"/>
    <path d="M207.207 113.372C207.314 111.985 206.957 110.827 206.409 110.784C205.86 110.742 205.329 111.832 205.221 113.219C205.114 114.606 205.472 115.765 206.02 115.807C206.568 115.849 207.1 114.759 207.207 113.372Z" fill="#231F20"/>
    <path d="M140.613 197.638L127.68 220.306L93.9999 185.774C93.9999 185.774 96.7225 171.103 93.0923 172.274C90.7987 173.09 88.8045 174.578 87.3697 176.543C87.3697 176.543 84.3824 156.393 76.5169 163.018C68.6514 169.642 72.2691 181.278 78.2312 192.462C82.6555 200.761 121.97 261.298 132.873 258.868C143.777 256.437 169.667 201.453 169.667 201.453L140.613 197.638Z" fill="white"/>
    <path d="M132.268 259.548C119.878 259.548 81.6219 200.156 77.6765 192.802C72.7102 183.47 67.1388 170.133 76.1135 162.577C77.7774 161.166 79.3908 160.738 80.916 161.317C85.0504 162.879 87.0924 171.657 87.7478 175.17C89.1456 173.614 90.9211 172.443 92.9032 171.77C93.1707 171.666 93.4621 171.637 93.7447 171.688C94.0274 171.74 94.2903 171.868 94.5041 172.06C96.6091 173.911 95.1343 183.092 94.6805 185.661L127.542 219.248L140.071 197.298C140.132 197.188 140.225 197.1 140.338 197.044C140.45 196.988 140.577 196.966 140.701 196.983L169.692 200.761C169.791 200.773 169.885 200.809 169.966 200.866C170.048 200.923 170.114 201 170.159 201.088C170.202 201.176 170.225 201.273 170.225 201.372C170.225 201.47 170.202 201.567 170.159 201.655C169.087 203.909 143.991 256.954 132.924 259.409C132.71 259.476 132.491 259.522 132.268 259.548ZM79.5673 162.287C78.5633 162.38 77.625 162.826 76.9202 163.547C70.6178 168.886 71.2102 178.004 78.7984 192.222C83.6008 201.239 122.613 260.543 132.735 258.314C142.516 256.135 165.507 208.72 168.734 202.02L141.004 198.368L128.273 220.671C128.224 220.756 128.157 220.828 128.076 220.882C127.995 220.937 127.903 220.972 127.806 220.986C127.709 221 127.61 220.99 127.518 220.957C127.426 220.924 127.343 220.869 127.277 220.797L93.5965 186.265C93.5278 186.192 93.4771 186.104 93.4487 186.008C93.4202 185.912 93.4147 185.81 93.4327 185.711C94.2898 181.064 94.9578 174.05 93.7226 172.967C93.7226 172.967 93.5839 172.853 93.3318 172.967C91.1771 173.746 89.3005 175.144 87.9369 176.984C87.8634 177.088 87.7611 177.169 87.6424 177.216C87.5237 177.263 87.3939 177.274 87.2689 177.248C87.1466 177.22 87.0357 177.155 86.9504 177.063C86.8651 176.971 86.8092 176.856 86.7899 176.732C86.2731 173.244 84.1555 163.912 80.4874 162.552C80.2004 162.406 79.8881 162.316 79.5673 162.287Z" fill="#231F20"/>
    <path d="M239.133 187.474C239.133 187.474 265.2 180.724 274.969 174.994C285.683 168.697 305.863 128.926 312.418 119.04C315.976 113.581 318.619 107.579 320.245 101.271C321.002 98.4499 321.355 96.4097 319.943 93.7147C319.653 93.1479 315.027 88.0853 314.813 88.6772C316.073 85.1384 317.334 81.7759 318.67 78.2749C319.023 77.3051 319.287 76.0836 318.544 75.3783C318.218 75.124 317.816 74.9859 317.403 74.9859C316.99 74.9859 316.588 75.124 316.262 75.3783C315.605 75.8817 315.07 76.5276 314.699 77.2674L303.985 95.8304C304.071 93.5383 303.609 91.2587 302.636 89.1809C302.483 88.7639 302.206 88.4036 301.842 88.1483C300.67 87.4934 299.536 89.0928 299.17 90.3773C297.267 97.0772 298.641 105.15 294.531 111.081C291.405 115.59 263.637 148.862 263.637 148.862L239.133 155.159" fill="white"/>
    <path d="M239.133 188.104C238.966 188.126 238.797 188.08 238.663 187.977C238.53 187.875 238.443 187.723 238.421 187.556C238.399 187.389 238.445 187.22 238.547 187.087C238.65 186.953 238.802 186.866 238.969 186.845C239.234 186.782 265.074 180.069 274.654 174.44C282.406 169.881 295.578 146.822 304.3 131.559C307.451 126.055 310.162 121.295 311.863 118.688C315.378 113.268 317.988 107.313 319.59 101.057C320.308 98.4121 320.687 96.4853 319.338 93.9036C317.99 92.2148 316.488 90.6549 314.851 89.2439C314.759 89.2626 314.665 89.2626 314.573 89.2439C314.416 89.1868 314.287 89.0707 314.214 88.9202C314.141 88.7697 314.13 88.5967 314.182 88.4379C314.951 86.1711 315.809 83.942 316.628 81.7759C317.107 80.5165 317.573 79.2572 318.04 77.9978C318.506 76.7384 318.468 76.1465 318.04 75.7813C317.823 75.6208 317.56 75.5342 317.29 75.5342C317.02 75.5342 316.757 75.6208 316.54 75.7813C315.975 76.2484 315.519 76.8329 315.203 77.4941L304.451 96.0949C304.383 96.2178 304.274 96.3135 304.143 96.3662C304.013 96.4189 303.868 96.4254 303.733 96.3845C303.624 96.3371 303.531 96.26 303.464 96.1619C303.397 96.0639 303.359 95.949 303.355 95.8304C303.428 93.6623 302.997 91.5068 302.094 89.5336C301.988 89.2396 301.8 88.9819 301.552 88.7906C301.483 88.7508 301.405 88.7298 301.326 88.7298C301.246 88.7298 301.168 88.7508 301.099 88.7906C300.454 89.2325 300.003 89.9038 299.838 90.667C299.19 93.2277 298.768 95.8405 298.578 98.4751C298.162 103.009 297.72 107.706 295.048 111.547C291.947 116.043 265.25 147.968 264.116 149.328C264.031 149.429 263.916 149.5 263.788 149.53L239.284 155.826C239.122 155.865 238.952 155.839 238.808 155.755C238.665 155.67 238.56 155.533 238.515 155.373C238.494 155.293 238.49 155.209 238.501 155.127C238.513 155.045 238.54 154.966 238.583 154.895C238.625 154.824 238.681 154.761 238.747 154.711C238.813 154.662 238.889 154.625 238.969 154.605L263.284 148.308C265.339 145.789 291.015 115.061 294.015 110.779C296.536 107.202 296.914 102.669 297.33 98.2987C297.505 95.5837 297.927 92.8903 298.59 90.2514C298.723 89.6863 298.972 89.155 299.322 88.6911C299.671 88.2272 300.113 87.8408 300.62 87.5564C300.868 87.451 301.138 87.4052 301.407 87.4227C301.676 87.4402 301.937 87.5205 302.17 87.6571C302.654 87.9467 303.027 88.3902 303.229 88.9165C303.925 90.4037 304.372 91.9948 304.552 93.6265L314.182 76.9399C314.604 76.1074 315.212 75.3833 315.96 74.8242C316.409 74.4959 316.954 74.3252 317.51 74.3389C318.067 74.3526 318.603 74.5498 319.035 74.8998C319.817 75.6428 319.918 76.8518 319.313 78.4764C318.846 79.7357 318.367 80.9951 317.888 82.2545C317.145 84.2191 316.376 86.2466 315.657 88.2994C317.475 89.7865 319.116 91.4767 320.548 93.3368C322.098 96.3089 321.67 98.5506 320.901 101.397C319.254 107.766 316.585 113.827 312.998 119.343C311.283 121.924 308.586 126.66 305.435 132.138C296.12 148.434 283.376 170.763 275.322 175.485C265.603 181.203 240.393 187.751 239.322 188.079L239.133 188.104Z" fill="#231F20"/>
    <path d="M245.372 296.07L237.217 259.019L155.877 280.819C155.877 280.819 156.041 286.901 156.268 296.044L245.372 296.07Z" fill="#231F20"/>
    <path d="M261.758 146.205C261.758 146.205 169.213 144.253 157.466 160.851C148.323 174.626 140.667 189.329 134.626 204.715L151.264 220.256C151.191 242.234 152.31 264.2 154.617 286.057C183.293 291.095 242.7 268.174 242.196 267.948L234.633 191.127L270.053 180.195L261.758 146.205Z" fill="#26AEB9"/>
    <path d="M150.18 214.488C150.097 214.485 150.016 214.465 149.941 214.43C149.865 214.396 149.798 214.347 149.742 214.286C149.685 214.225 149.642 214.154 149.613 214.076C149.585 213.998 149.572 213.916 149.575 213.833C149.575 212.448 150.672 179.666 155.172 168.206C155.201 168.128 155.245 168.057 155.303 167.997C155.36 167.936 155.429 167.888 155.506 167.855C155.582 167.822 155.665 167.805 155.748 167.805C155.832 167.805 155.914 167.821 155.991 167.854C156.069 167.881 156.14 167.925 156.2 167.981C156.26 168.037 156.308 168.105 156.341 168.18C156.375 168.256 156.392 168.337 156.392 168.42C156.393 168.502 156.376 168.584 156.344 168.66C151.932 179.918 150.848 213.543 150.836 213.871C150.829 214.039 150.757 214.198 150.634 214.313C150.511 214.429 150.348 214.491 150.18 214.488Z" fill="#231F20"/>
    <path d="M221.965 195.056C221.828 195.058 221.694 195.015 221.585 194.933C221.475 194.851 221.396 194.734 221.36 194.603C221.317 194.441 221.339 194.268 221.422 194.123C221.504 193.977 221.64 193.869 221.801 193.822L247.956 186.392C248.124 186.345 248.302 186.366 248.454 186.451C248.605 186.536 248.716 186.678 248.763 186.845C248.81 187.012 248.788 187.191 248.703 187.342C248.618 187.493 248.476 187.604 248.309 187.651L222.142 195.081C222.082 195.085 222.021 195.077 221.965 195.056Z" fill="#231F20"/>
    <path d="M324.216 283.274H278.473C277.838 283.276 277.21 283.152 276.624 282.911C276.037 282.669 275.504 282.314 275.056 281.865C274.607 281.417 274.251 280.885 274.009 280.299C273.767 279.713 273.644 279.085 273.645 278.451V227.963C273.645 227.33 273.77 226.703 274.013 226.117C274.255 225.532 274.611 225 275.059 224.553C275.508 224.105 276.04 223.749 276.625 223.507C277.211 223.265 277.839 223.14 278.473 223.14H318.809L328.993 233.064V278.401C329 279.034 328.882 279.663 328.645 280.25C328.409 280.838 328.059 281.374 327.615 281.826C327.171 282.279 326.643 282.64 326.06 282.888C325.477 283.137 324.85 283.268 324.216 283.274Z" fill="white"/>
    <path d="M324.216 283.904H278.473C277.025 283.904 275.637 283.33 274.614 282.307C273.59 281.284 273.015 279.897 273.015 278.451V227.963C273.018 226.518 273.594 225.133 274.617 224.111C275.64 223.089 277.026 222.513 278.473 222.51H318.809C318.89 222.508 318.971 222.523 319.047 222.553C319.123 222.583 319.192 222.629 319.25 222.686L329.447 232.623C329.565 232.74 329.633 232.898 329.636 233.064V278.401C329.646 279.848 329.081 281.24 328.065 282.272C327.049 283.304 325.665 283.891 324.216 283.904ZM278.473 223.769C277.361 223.773 276.295 224.216 275.509 225.001C274.722 225.787 274.279 226.852 274.276 227.963V278.438C274.276 278.989 274.384 279.534 274.595 280.043C274.806 280.552 275.115 281.014 275.505 281.404C275.895 281.793 276.357 282.102 276.867 282.313C277.376 282.524 277.922 282.632 278.473 282.632H324.216C325.328 282.629 326.394 282.186 327.18 281.4C327.967 280.614 328.41 279.55 328.414 278.438V233.328L318.594 223.769H278.473Z" fill="#231F20"/>
    <path d="M263.208 40.4183C264.378 40.4183 265.326 39.4711 265.326 38.3026C265.326 37.1341 264.378 36.1869 263.208 36.1869C262.039 36.1869 261.091 37.1341 261.091 38.3026C261.091 39.4711 262.039 40.4183 263.208 40.4183Z" fill="#26AEB9"/>
    <path d="M270.557 40.4183C271.727 40.4183 272.675 39.4711 272.675 38.3026C272.675 37.1341 271.727 36.1869 270.557 36.1869C269.388 36.1869 268.439 37.1341 268.439 38.3026C268.439 39.4711 269.388 40.4183 270.557 40.4183Z" fill="#F89F3B"/>
    <path d="M277.906 40.4183C279.075 40.4183 280.023 39.4711 280.023 38.3026C280.023 37.1341 279.075 36.1869 277.906 36.1869C276.736 36.1869 275.788 37.1341 275.788 38.3026C275.788 39.4711 276.736 40.4183 277.906 40.4183Z" fill="#F89F3B"/>
    <path d="M318.481 71.5121C318.337 71.5109 318.198 71.4572 318.09 71.3609C317.969 71.2583 317.894 71.1123 317.88 70.9545C317.866 70.7967 317.914 70.6397 318.015 70.5172L323.46 64.0692C323.517 64.0016 323.589 63.9473 323.669 63.9103C323.75 63.8733 323.838 63.8545 323.926 63.8551H337.552C337.719 63.8551 337.88 63.9215 337.998 64.0396C338.116 64.1577 338.182 64.3178 338.182 64.4848C338.182 64.6518 338.116 64.812 337.998 64.9301C337.88 65.0482 337.719 65.1145 337.552 65.1145H324.178L318.909 71.4113C318.784 71.4975 318.631 71.5334 318.481 71.5121Z" fill="#F89F3B"/>
    <path d="M318.859 223.14V233.366L329.044 233.064L318.859 223.14Z" fill="#26AEB9"/>
    <path d="M318.847 233.996C318.686 233.995 318.533 233.931 318.418 233.819C318.354 233.762 318.303 233.692 318.268 233.614C318.234 233.536 318.216 233.451 318.216 233.366V223.14C318.219 223.016 318.257 222.895 318.326 222.792C318.395 222.69 318.493 222.609 318.607 222.56C318.72 222.511 318.845 222.497 318.967 222.519C319.088 222.542 319.2 222.6 319.288 222.686L329.485 232.623C329.571 232.71 329.629 232.82 329.653 232.94C329.677 233.06 329.666 233.184 329.62 233.298C329.575 233.411 329.498 233.509 329.397 233.579C329.297 233.65 329.179 233.689 329.057 233.693L318.872 233.996H318.847ZM319.477 224.638V232.724L327.531 232.484L319.477 224.638Z" fill="#231F20"/>
    <path d="M98.399 249.738H85.4538C83.5533 249.738 82.0126 251.277 82.0126 253.176V266.109C82.0126 268.008 83.5533 269.547 85.4538 269.547H98.399C100.299 269.547 101.84 268.008 101.84 266.109V253.176C101.84 251.277 100.299 249.738 98.399 249.738Z" fill="#26AEB9"/>
    <path d="M94.9831 243.39H81.6093C79.8271 243.39 78.3824 244.834 78.3824 246.614V259.976C78.3824 261.757 79.8271 263.2 81.6093 263.2H94.9831C96.7652 263.2 98.2099 261.757 98.2099 259.976V246.614C98.2099 244.834 96.7652 243.39 94.9831 243.39Z" fill="white"/>
    <path d="M94.9831 263.83H81.6093C81.1006 263.833 80.5964 263.736 80.1255 263.544C79.6546 263.352 79.2264 263.068 78.8656 262.71C78.5048 262.352 78.2184 261.926 78.023 261.457C77.8276 260.988 77.727 260.484 77.727 259.976V246.614C77.727 245.592 78.1333 244.612 78.8567 243.889C79.58 243.167 80.5611 242.761 81.5841 242.761H94.9579C95.4644 242.761 95.9659 242.86 96.4339 243.054C96.9019 243.248 97.3271 243.532 97.6852 243.889C98.0434 244.247 98.3275 244.672 98.5214 245.14C98.7152 245.607 98.815 246.108 98.815 246.614V259.976C98.815 260.994 98.4121 261.97 97.6942 262.692C96.9763 263.414 96.0017 263.823 94.9831 263.83ZM81.6093 244.02C81.2662 244.017 80.9258 244.081 80.6079 244.21C80.2899 244.339 80.0007 244.53 79.7569 244.771C79.5131 245.012 79.3196 245.299 79.1875 245.616C79.0554 245.932 78.9874 246.272 78.9875 246.614V259.976C78.9875 260.664 79.261 261.324 79.748 261.811C80.235 262.297 80.8954 262.57 81.5841 262.57H94.9579C95.6465 262.57 96.307 262.297 96.7939 261.811C97.2809 261.324 97.5545 260.664 97.5545 259.976V246.614C97.5545 245.926 97.2809 245.266 96.7939 244.78C96.307 244.293 95.6465 244.02 94.9579 244.02H81.6093Z" fill="#231F20"/>
    <path d="M298.616 272.003V269.031C297.532 268.729 296.485 268.515 295.464 268.162C293.495 267.547 291.79 266.287 290.624 264.585C289.665 263.083 289.178 261.329 289.225 259.548H295.036C295.074 260.558 295.444 261.527 296.089 262.306C296.734 263.084 297.617 263.629 298.603 263.855V255.971C297.431 255.631 296.271 255.317 295.111 254.951C293.848 254.587 292.689 253.927 291.733 253.024C290.742 252.032 290.085 250.756 289.855 249.372C289.518 247.691 289.645 245.95 290.221 244.335C290.649 243.172 291.328 242.117 292.21 241.247C293.093 240.376 294.156 239.71 295.326 239.297C296.291 238.994 297.271 238.742 298.263 238.542L298.616 238.466V234.361H304.061V234.751V238.126C304.061 238.403 304.149 238.491 304.414 238.554C306.265 238.913 307.998 239.726 309.456 240.922C311.007 242.188 312.035 243.982 312.342 245.959C312.443 246.501 312.481 247.055 312.557 247.622H306.645C306.635 246.816 306.392 246.03 305.944 245.36C305.497 244.689 304.865 244.163 304.124 243.844V251.211L304.767 251.362C306.365 251.671 307.922 252.166 309.405 252.836C310.52 253.318 311.481 254.095 312.187 255.082C312.893 256.07 313.317 257.23 313.414 258.44C313.762 260.693 313.214 262.994 311.889 264.85C310.797 266.36 309.265 267.495 307.502 268.099C306.405 268.477 305.271 268.716 304.099 269.044V271.928L298.616 272.003ZM304.074 257.029V263.88C304.959 263.751 305.792 263.38 306.481 262.81C306.837 262.521 307.121 262.154 307.311 261.737C307.502 261.321 307.594 260.866 307.581 260.408C307.568 259.95 307.449 259.502 307.234 259.097C307.019 258.692 306.714 258.342 306.342 258.075C305.611 257.674 304.853 257.325 304.074 257.029ZM298.603 250.015V243.39C297.89 243.702 297.195 244.055 296.523 244.448C296.137 244.723 295.825 245.089 295.616 245.514C295.407 245.939 295.306 246.409 295.324 246.882C295.341 247.355 295.476 247.817 295.716 248.225C295.956 248.633 296.294 248.976 296.7 249.221C297.292 249.536 297.935 249.75 298.603 250.027V250.015Z" fill="#26AEB9"/>
    <path d="M60.5337 58.4397H116.046V91.4854H60.5337V58.4397Z" fill="#F89F3B"/>
</svg>
