<svg width="406" height="388" viewBox="0 0 406 388" fill="none" xmlns="http://www.w3.org/2000/svg">
    <path opacity="0.24" d="M357.796 376.957C344.976 382.426 331.217 385.357 317.282 385.586C242.286 386.682 167.262 386.782 92.2658 387.398C80.5573 387.497 68.3145 387.398 56.95 385.043C48.3565 383.232 40.2248 380.162 33.1888 374.856C17.0975 362.776 10.3603 341.605 9.32799 321.493C8.29568 301.381 12.0446 281.377 12.3887 261.238C13.0135 222.3 0.969916 183.987 0.616758 144.995C0.2636 106.002 16.3821 62.0384 52.9928 48.6365C75.4863 40.4051 100.986 45.4852 123.932 38.6756C141.717 33.4325 156.686 21.5247 173.311 13.3206C212.104 -5.83153 260.813 -3.26886 297.369 19.8585C333.926 42.9859 357.135 85.8902 356.464 129.193C356.039 155.707 347.409 182.683 354.409 208.264C362.74 238.591 391.309 259.798 401.261 289.663C415.206 331.517 391.146 362.676 357.796 376.957Z" fill="#27AEB9" fill-opacity="0.7"/>
    <path d="M274.64 91.3688H344.711V363.356H274.64V91.3688Z" fill="#27AEB9" fill-opacity="0.7"/>
    <path d="M123.28 181.995H193.351V376.323H123.28V181.995Z" fill="#27AEB9" fill-opacity="0.7"/>
    <path d="M274.64 91.3688H344.711V363.356H274.64V91.3688Z" fill="url(#paint0_linear_32_532)"/>
    <path d="M123.28 181.995H193.351V376.323H123.28V181.995Z" fill="url(#paint1_linear_32_532)"/>
    <path d="M242.385 133.367C242.716 132.51 243.217 131.728 243.858 131.07C244.499 130.411 245.267 129.89 246.116 129.537C247.521 128.865 249.05 128.492 250.607 128.441C252.163 128.389 253.714 128.661 255.16 129.239C256.606 129.816 257.917 130.688 259.01 131.797C260.103 132.907 260.954 134.231 261.51 135.686C262.099 137.597 262.562 139.545 262.896 141.517C263.232 143.518 264.234 145.346 265.739 146.706C267.776 148.3 270.575 148.309 273.137 148.68C276.633 149.146 279.925 150.59 282.636 152.846C285.349 155.134 287.082 158.374 287.481 161.901C287.689 164.083 287.318 166.429 288.223 168.403C289.029 170.214 290.759 171.463 291.474 173.293C291.782 174.164 291.873 175.097 291.741 176.012C291.608 176.927 291.256 177.796 290.714 178.545C289.609 180.028 287.997 181.053 286.186 181.424C283.397 182.022 280.336 181.297 277.764 182.502C276.162 183.253 274.867 184.702 273.128 184.992C271.758 185.121 270.387 184.765 269.252 183.987C267.15 182.593 265.249 180.917 263.602 179.006C261.697 177.156 260.039 175.068 258.667 172.794C257.211 170.332 255.614 167.956 253.886 165.677C252.391 163.522 248.959 163.531 247.692 161.24C245.319 156.957 248.507 148.336 247.447 143.745C247.119 141.976 246.188 140.376 244.812 139.217C243.046 137.678 241.616 135.74 242.385 133.367Z" fill="#606161"/>
    <path d="M242.385 133.367C242.716 132.51 243.217 131.728 243.858 131.07C244.499 130.411 245.267 129.89 246.116 129.537C247.521 128.865 249.05 128.492 250.607 128.441C252.163 128.389 253.714 128.661 255.16 129.239C256.606 129.816 257.917 130.688 259.01 131.797C260.103 132.907 260.954 134.231 261.51 135.686C262.099 137.597 262.562 139.545 262.896 141.517C263.232 143.518 264.234 145.346 265.739 146.706C267.776 148.3 270.575 148.309 273.137 148.68C276.633 149.146 279.925 150.59 282.636 152.846C285.349 155.134 287.082 158.374 287.481 161.901C287.689 164.083 287.318 166.429 288.223 168.403C289.029 170.214 290.759 171.463 291.474 173.293C291.782 174.164 291.873 175.097 291.741 176.012C291.608 176.927 291.256 177.796 290.714 178.545C289.609 180.028 287.997 181.053 286.186 181.424C283.397 182.022 280.336 181.297 277.764 182.502C276.162 183.253 274.867 184.702 273.128 184.992C271.758 185.121 270.387 184.765 269.252 183.987C267.15 182.593 265.249 180.917 263.602 179.006C261.697 177.156 260.039 175.068 258.667 172.794C257.211 170.332 255.614 167.956 253.886 165.677C252.391 163.522 248.959 163.531 247.692 161.24C245.319 156.957 248.507 148.336 247.447 143.745C247.119 141.976 246.188 140.376 244.812 139.217C243.046 137.678 241.616 135.74 242.385 133.367Z" fill="url(#paint2_linear_32_532)"/>
    <path d="M218.407 168.611C218.646 166.777 219.23 165.004 220.127 163.386C221.661 160.162 223.17 156.924 224.655 153.67C225.388 152.049 226.167 150.428 226.828 148.78C226.96 148.268 227.198 147.79 227.525 147.376C228.033 146.869 228.829 146.634 229.337 146.154C230.876 144.814 231.048 142.532 231.093 140.485C231.229 139.482 231.035 138.462 230.541 137.578C230.001 136.952 229.299 136.485 228.512 136.229C227.881 135.912 227.19 135.733 226.484 135.704C225.583 135.781 224.748 136.207 224.157 136.89C223.58 137.572 223.095 138.327 222.717 139.136C219.937 144.415 217.03 149.495 213.861 154.53C211.777 157.601 210.045 160.896 208.699 164.355C207.368 167.836 207.249 171.665 208.364 175.221C208.913 176.835 209.886 178.27 211.181 179.378C212.792 180.556 214.65 181.352 216.614 181.705C224.734 183.595 233.213 183.283 241.172 180.8C243.046 180.202 244.984 179.432 246.216 177.893C247.157 176.612 247.71 175.087 247.809 173.501C248.19 170.078 246.841 164.563 242.657 165.224C240.176 165.614 237.088 167.796 234.806 168.846C232.207 170.087 218.289 170.495 218.407 168.611Z" fill="url(#paint3_linear_32_532)"/>
    <path d="M301.951 352.254L300.321 352.489L300.095 346.549C300.095 346.549 297.306 348.541 296.346 349.474C295.386 350.406 285.163 354.844 282.337 352.987C279.512 351.131 293.086 340.581 293.086 340.581L271.824 279.485L255.959 241.796C255.959 241.796 223.405 246.324 225.262 250.517C226.928 254.139 228.286 281.749 229.246 289.274C229.304 289.871 229.425 290.459 229.608 291.03C229.614 291.063 229.614 291.097 229.608 291.13C230.514 292.036 232.098 293.457 232.234 295.314C232.37 297.17 231.637 305.275 231.637 305.275L230.206 305.573L228.848 299.081C228.848 299.081 228.087 299.543 223.568 302.703C219.05 305.863 210.329 307.375 209.234 305.655C208.138 303.934 216.405 300.348 219.521 296.926C222.636 293.503 199.879 248.371 204.561 236.182C209.243 223.994 246.931 214.549 246.931 214.549C246.931 214.549 272.286 211.896 274.577 214.685C276.868 217.474 285.489 236.553 283.732 239.234C281.975 241.914 288.178 278.226 293.322 284.764C298.465 291.302 300.321 310.943 299.859 316.521C299.398 322.099 301.716 337.657 301.716 337.657C301.716 337.657 303.473 340.011 303.708 341.541C303.943 343.072 301.951 352.254 301.951 352.254Z" fill="#606161"/>
    <path d="M282.401 241.443C282.401 241.443 278.896 242.258 278.489 242.847C278.081 243.436 277.728 247.809 278.489 249.675L280.762 248.914C280.762 248.914 280.182 245.473 280.707 244.386C281.233 243.3 284.737 242.811 284.737 242.811C285.381 242.591 286.063 242.503 286.741 242.552C287.42 242.602 288.082 242.788 288.687 243.099C289.292 243.41 289.829 243.84 290.264 244.363C290.699 244.886 291.025 245.491 291.221 246.143L293.322 245.672C293.322 245.672 291.864 241 289.229 240.656C286.593 240.311 282.401 241.443 282.401 241.443Z" fill="url(#paint4_linear_32_532)"/>
    <path d="M237.957 177.186C237.26 178.867 236.824 180.644 236.662 182.457C236.526 185.988 238.473 189.212 240.284 192.264C243.409 197.697 246.216 203.501 246.433 209.731C246.524 212.448 246.27 215.518 248.199 217.41C249.43 218.615 251.25 218.968 252.971 219.221C258.609 219.98 264.317 220.074 269.977 219.502C271.634 219.339 273.536 218.941 274.296 217.456C274.639 216.594 274.742 215.655 274.595 214.739L272.585 186.55C272.304 182.556 272.005 178.518 270.774 174.723C269.696 171.473 266.165 167.977 263.837 165.469C261.971 163.5 259.608 162.071 256.998 161.332C254.388 160.592 251.627 160.57 249.005 161.267C240.438 163.25 240.52 170.06 237.957 177.186Z" fill="#27AEB9" fill-opacity="0.7"/>
    <path d="M234.797 174.624C233.977 172.595 232.641 170.816 230.921 169.462C233.116 167.562 235.605 166.033 238.292 164.935C239.198 164.554 248.987 160.67 249.865 161.104C250.743 161.539 242.376 166.057 242.693 166.945C243.325 168.305 243.596 169.805 243.481 171.301C243.227 172.344 242.802 173.339 242.222 174.244C241.359 175.791 240.579 177.384 239.886 179.016C239.569 179.758 238.682 183.435 237.966 183.543C236.445 183.797 235.268 175.792 234.797 174.624Z" fill="#27AEB9" fill-opacity="0.7"/>
    <path opacity="0.37" d="M265.558 204.416C265.676 206.897 265.757 209.523 264.571 211.66C263.964 212.774 263.068 213.697 262.434 214.802C262.077 215.329 261.862 215.94 261.811 216.575C261.761 217.21 261.875 217.847 262.144 218.424C263.267 220.308 266.237 219.891 267.885 221.34C268.508 221.957 268.979 222.711 269.261 223.541C272.3 230.817 273.178 238.815 271.788 246.577C271.48 248.253 271.145 250.2 272.25 251.485C273.644 253.115 276.225 252.554 278.344 252.183C280.327 251.839 282.781 251.495 283.487 249.602C283.701 248.767 283.701 247.892 283.487 247.057C282.147 237.921 281.676 228.666 280.173 219.556C278.67 210.447 276.053 201.337 270.864 193.703C269.903 192.212 268.735 190.864 267.396 189.701C265.295 187.953 264.761 188.17 264.888 190.869L265.558 204.416Z" fill="url(#paint5_linear_32_532)"/>
    <path d="M267.876 192.064C269.787 194.636 270.593 197.851 271.335 200.966L280.39 238.627C280.525 239.388 280.835 240.108 281.296 240.728C281.948 241.488 283.107 241.968 283.161 242.965C283.161 243.345 283.035 243.761 283.261 244.06C283.487 244.359 283.886 244.341 284.239 244.314C285.529 244.283 286.803 244.016 287.997 243.526C288.588 243.268 289.1 242.856 289.479 242.334C289.857 241.812 290.09 241.198 290.152 240.556C290.152 238.862 288.667 237.622 287.608 236.291C284.991 233.004 284.963 228.44 284.828 224.247C284.284 208.382 280.173 192.445 271.489 179.151C270.792 178.083 269.787 176.906 268.528 177.096C267.847 177.271 267.244 177.67 266.817 178.228C265.359 179.812 262.751 183.181 262.805 185.472C262.859 187.998 266.463 190.172 267.876 192.064Z" fill="url(#paint6_linear_32_532)"/>
    <path d="M239.922 141.3C239.089 141.78 238.111 142.296 237.867 143.22C237.797 143.582 237.746 143.948 237.713 144.315C237.432 145.982 235.612 147.177 235.621 148.843C235.63 150.509 237.233 151.515 238.338 152.674C239.731 154.216 240.641 156.134 240.955 158.188C241.258 160.229 241.385 162.292 241.335 164.355C241.335 166.229 241.597 168.466 243.264 169.326C244.049 169.672 244.92 169.773 245.763 169.616C246.75 169.519 247.691 169.149 248.48 168.548C248.963 168.093 249.351 167.546 249.622 166.94C249.892 166.334 250.04 165.68 250.055 165.016C250.087 163.692 250.005 162.369 249.811 161.059C249.684 159.674 249.666 158.281 249.756 156.893C249.734 156.367 249.817 155.842 249.998 155.348C250.18 154.854 250.458 154.4 250.816 154.014C251.467 153.572 252.2 153.264 252.971 153.108C254.144 152.816 255.164 152.096 255.832 151.089C256.143 150.578 256.277 149.98 256.213 149.385C256.15 148.791 255.892 148.235 255.479 147.802C254.691 147.086 253.315 146.896 253.052 145.864C253.007 145.579 253.007 145.289 253.052 145.004C253.189 142.566 252.415 140.165 250.879 138.267C249.702 136.818 247.257 135.296 245.401 136.455C244.549 136.999 243.907 138.131 243.155 138.819C242.171 139.761 241.087 140.593 239.922 141.3Z" fill="url(#paint7_linear_32_532)"/>
    <path d="M247.157 136.084C247.401 136.346 247.586 136.656 247.7 136.995C247.814 137.334 247.855 137.693 247.818 138.049C247.818 138.765 247.601 139.462 247.529 140.168C247.41 140.881 247.565 141.612 247.963 142.215C248.615 143.066 249.983 143.374 250.182 144.424C250.202 144.76 250.141 145.096 250.004 145.403C249.867 145.711 249.658 145.981 249.394 146.19C248.865 146.604 248.42 147.114 248.081 147.693C247.993 147.86 247.971 148.054 248.018 148.236C248.126 148.544 248.498 148.653 248.824 148.689C249.283 148.757 249.752 148.73 250.2 148.608C250.819 148.339 251.395 147.982 251.911 147.548C252.826 146.923 253.874 146.52 254.972 146.371C255.466 146.378 255.947 146.211 256.33 145.9C256.494 145.691 256.595 145.44 256.62 145.176C256.684 144.202 256.467 143.231 255.995 142.378C255.23 140.734 254.346 139.148 253.351 137.633C253.049 137.101 252.668 136.618 252.219 136.202C251.502 135.677 250.665 135.34 249.783 135.224C248.643 134.997 246.433 134.726 245.618 135.785C245.879 135.704 246.157 135.689 246.425 135.741C246.694 135.793 246.945 135.911 247.157 136.084Z" fill="#606161"/>
    <path d="M232.008 123.099C229.001 128.532 227.634 133.485 228.947 134.219C229.164 134.345 230.631 135.124 230.957 135.034C232.596 134.463 234.263 130.261 236.771 125.743C239.279 121.224 242.331 117.385 241.932 115.7C241.86 115.374 240.049 114.741 239.841 114.623C238.528 113.889 235.005 117.684 232.008 123.099Z" fill="#27AEB9" fill-opacity="0.7"/>
    <path d="M238.772 126.549C235.784 131.982 232.27 135.776 230.939 135.043C230.809 134.957 230.7 134.844 230.62 134.711C230.54 134.577 230.492 134.428 230.477 134.273C230.151 132.543 231.51 128.396 234 123.923C236.49 119.449 239.143 116.253 240.837 115.492C240.988 115.41 241.156 115.362 241.328 115.351C241.5 115.34 241.672 115.366 241.833 115.429C243.155 116.162 241.788 121.143 238.772 126.549Z" fill="black"/>
    <path d="M237.378 125.852C234.951 130.235 232.198 133.585 230.505 134.282C230.179 132.553 231.537 128.405 234.027 123.932C236.517 119.459 239.171 116.262 240.864 115.501C241.226 117.222 239.868 121.406 237.378 125.852Z" fill="#F89F3B"/>
    <path d="M229.328 134.354L228.522 136.229L229.554 136.745L230.432 134.88L229.328 134.354Z" fill="#27AEB9" fill-opacity="0.7"/>
    <path d="M224.256 143.383L221.151 149.223C221.107 149.356 221.091 149.496 221.103 149.635C221.115 149.774 221.154 149.909 221.219 150.032C221.285 150.155 221.374 150.264 221.482 150.352C221.589 150.441 221.714 150.506 221.848 150.545C222.862 150.935 223.324 150.618 223.324 150.618L226.439 144.777C226.439 144.777 225.742 142.676 224.256 143.383Z" fill="black"/>
    <path d="M304.848 242.675L262.967 253.901C260.517 254.558 259.064 257.076 259.72 259.526L266.694 285.543C267.351 287.993 269.869 289.447 272.319 288.79L314.199 277.564C316.649 276.908 318.103 274.389 317.446 271.939L310.472 245.922C309.816 243.472 307.297 242.019 304.848 242.675Z" fill="#606161"/>
    <path d="M304.848 242.675L262.967 253.901C260.517 254.558 259.064 257.076 259.72 259.526L266.694 285.543C267.351 287.993 269.869 289.447 272.319 288.79L314.199 277.564C316.649 276.908 318.103 274.389 317.446 271.939L310.472 245.922C309.816 243.472 307.297 242.019 304.848 242.675Z" fill="url(#paint8_linear_32_532)"/>
    <path d="M308.182 241.805L266.441 252.842C263.999 253.487 262.543 255.99 263.189 258.432L270.045 284.363C270.69 286.804 273.193 288.26 275.635 287.615L317.376 276.578C319.818 275.933 321.274 273.43 320.628 270.988L313.772 245.058C313.127 242.616 310.624 241.16 308.182 241.805Z" fill="#606161"/>
    <path d="M308.182 241.805L266.441 252.842C263.999 253.487 262.543 255.99 263.189 258.432L270.045 284.363C270.69 286.804 273.193 288.26 275.635 287.615L317.376 276.578C319.818 275.933 321.274 273.43 320.628 270.988L313.772 245.058C313.127 242.616 310.624 241.16 308.182 241.805Z" fill="url(#paint9_linear_32_532)"/>
    <path d="M357.796 348.305V376.957C344.976 382.426 331.218 385.357 317.282 385.586C242.286 386.682 167.262 386.782 92.2659 387.397C80.5573 387.497 68.3145 387.397 56.95 385.043V256.729H166.266V305.338H250.399V348.305H357.796Z" fill="#27AEB9" fill-opacity="0.7"/>
    <path opacity="0.37" d="M225.262 250.517C226.928 254.139 228.286 281.749 229.246 289.274C227.625 281.749 221.612 254.103 220.191 252.31C218.534 250.191 218.769 244.812 219.964 242.72C221.16 240.628 236.816 235.258 244.966 235.258C247.229 235.192 249.464 235.772 251.409 236.93C253.354 238.088 254.929 239.776 255.95 241.796C255.95 241.796 223.405 246.306 225.262 250.517Z" fill="url(#paint10_linear_32_532)"/>
    <path opacity="0.24" d="M79.7604 135.803V125.842C66.6754 124.756 59.0418 117.013 57.9551 106.545H67.5538C68.071 109.54 69.5363 112.29 71.7338 114.39C73.9313 116.49 76.7449 117.828 79.7604 118.209V91.8577C65.2718 87.502 59.5942 82.0417 59.5942 71.9359C59.5942 60.9246 68.0971 53.6169 79.7604 52.8472V45.4127H85.9814V52.9287C100.47 54.3504 105.17 63.7317 105.822 70.487H96.4584C95.2541 66.0137 92.6371 61.658 85.9905 60.4537V84.224C102.67 89.0233 107.47 95.996 107.47 105.703C107.47 117.81 99.4014 124.901 85.9905 125.879V135.84L79.7604 135.803ZM79.7604 82.3767V60.2363C71.9094 60.8974 69.0751 65.579 69.0751 70.813C69.0751 76.047 71.5834 79.5424 79.7604 82.3767ZM85.9814 93.714V118.354C93.5064 117.593 97.536 113.826 97.536 106.69C97.536 100.913 95.0277 96.8743 85.9814 93.714Z" fill="#27AEB9" fill-opacity="0.7"/>
    <path d="M82.7759 135.052V125.091C69.6909 124.004 62.0572 116.262 60.9615 105.794H70.5602C71.0779 108.79 72.5445 111.541 74.7438 113.641C76.9431 115.741 79.7588 117.079 82.7759 117.457V91.1062C68.2873 86.7415 62.6006 81.2902 62.6006 71.1844C62.6006 60.164 71.1035 52.8654 82.7759 52.0957V44.625H88.9878V52.1409C103.476 53.5626 108.176 62.944 108.837 69.6993H99.4558C98.2695 65.2622 95.6435 60.9247 88.9878 59.7022V83.4725C105.668 88.2718 110.467 95.2445 110.467 104.952C110.467 117.059 102.399 124.149 88.9878 125.127V135.088L82.7759 135.052ZM82.7759 81.6252V59.4849C74.9249 60.1368 72.0906 64.8275 72.0906 70.0615C72.0906 75.2955 74.5989 78.7909 82.7759 81.6252ZM88.9878 92.9625V117.602C96.5128 116.841 100.542 113.074 100.542 105.939C100.542 100.162 98.0432 96.1228 88.9878 92.9625Z" fill="#F89F3B"/>
    <path opacity="0.24" d="M129.058 160.28V155.644C122.945 155.136 119.378 151.514 118.87 146.588H123.398C123.643 147.985 124.329 149.266 125.356 150.244C126.383 151.222 127.696 151.845 129.103 152.021V139.751C122.33 137.714 119.676 135.169 119.676 130.433C119.676 125.29 123.652 121.876 129.103 121.523V118.055H132.001V121.595C138.774 122.265 140.966 126.639 141.273 129.799H136.891C136.666 128.606 136.073 127.512 135.197 126.671C134.32 125.83 133.203 125.284 132.001 125.109V136.22C139.797 138.456 142.034 141.716 142.034 146.244C142.034 151.904 138.267 155.209 132.001 155.671V160.307L129.058 160.28ZM129.058 135.323V124.982C125.436 125.29 124.068 127.481 124.068 129.926C124.068 132.371 125.218 134.001 129.058 135.323ZM131.955 140.621V152.13C135.478 151.777 137.389 149.993 137.389 146.697C137.334 143.98 136.166 142.097 131.937 140.612L131.955 140.621Z" fill="#27AEB9" fill-opacity="0.7"/>
    <path d="M130.443 159.927V155.29C124.331 154.783 120.763 151.17 120.256 146.235H124.738C124.983 147.632 125.669 148.913 126.696 149.891C127.723 150.869 129.036 151.492 130.443 151.668V139.398C123.67 137.361 121.017 134.816 121.017 130.08C121.017 124.937 124.992 121.523 130.443 121.17V117.711H133.35V121.224C140.123 121.885 142.315 126.259 142.613 129.374H138.24C138.011 128.183 137.417 127.093 136.541 126.254C135.665 125.415 134.55 124.87 133.35 124.692V135.794C141.137 138.031 143.383 141.291 143.383 145.828C143.383 151.478 139.607 154.792 133.35 155.245V159.882L130.443 159.927ZM130.443 134.97V124.629C126.776 124.937 125.454 127.128 125.454 129.573C125.454 132.018 126.622 133.648 130.443 134.97ZM133.35 140.268V151.777C136.863 151.424 138.783 149.64 138.783 146.344C138.747 143.627 137.57 141.744 133.35 140.268Z" fill="#F89F3B"/>
    <path opacity="0.24" d="M65.5073 186.368V181.732C59.395 181.225 55.8272 177.612 55.3201 172.722H59.8477C60.0924 174.119 60.7786 175.4 61.8054 176.378C62.8322 177.356 64.1456 177.979 65.5526 178.155V165.84C58.7792 163.803 56.126 161.258 56.126 156.522C56.126 151.379 60.1013 147.965 65.5526 147.612V144.143H68.3869V147.657C75.1694 148.327 77.3517 152.701 77.6596 155.861H73.2768C73.0527 154.668 72.4606 153.575 71.5836 152.735C70.7066 151.895 69.5888 151.351 68.3869 151.179V162.281C76.1836 164.518 78.4293 167.778 78.4293 172.315C78.4293 177.965 74.6532 181.27 68.3869 181.732V186.368H65.5073ZM65.5073 161.412V151.071C61.8852 151.379 60.5178 153.57 60.5178 156.015C60.5178 158.46 61.686 160.09 65.5073 161.439V161.412ZM68.405 166.709V178.219C71.9276 177.865 73.8382 176.082 73.8382 172.785C73.8201 170.069 72.6339 168.185 68.3869 166.709H68.405Z" fill="#27AEB9" fill-opacity="0.7"/>
    <path d="M66.911 186.015V181.361C60.7986 180.854 57.2398 177.241 56.7237 172.305H61.2061C61.4521 173.702 62.1387 174.982 63.1653 175.96C64.1919 176.938 65.5045 177.561 66.911 177.739V165.496C60.1376 163.458 57.4934 160.905 57.4934 156.169C57.4934 151.025 61.4596 147.621 66.911 147.258V143.799H69.8177V147.313C76.5911 147.974 78.7825 152.357 79.0813 155.462H74.7257C74.4965 154.272 73.9028 153.181 73.0268 152.342C72.1507 151.504 71.0356 150.958 69.8358 150.781V161.883C77.6234 164.119 79.8691 167.379 79.8691 171.916C79.8691 177.567 76.0931 180.881 69.8358 181.334V185.97L66.911 186.015ZM66.911 161.059V150.727C63.2435 151.025 61.9215 153.217 61.9215 155.662C61.9215 158.107 63.0896 159.737 66.911 161.059ZM69.8177 166.356V177.865C73.3312 177.512 75.2509 175.728 75.2509 172.432C75.2147 169.716 74.0466 167.832 69.8177 166.356Z" fill="#F89F3B"/>
    <defs>
        <linearGradient id="paint0_linear_32_532" x1="309.368" y1="237.278" x2="296.283" y2="655.844" gradientUnits="userSpaceOnUse">
            <stop stop-color="#010101" stop-opacity="0"/>
            <stop offset="0.95" stop-color="#010101"/>
        </linearGradient>
        <linearGradient id="paint1_linear_32_532" x1="156.966" y1="230.477" x2="162.572" y2="432.285" gradientUnits="userSpaceOnUse">
            <stop stop-color="#010101" stop-opacity="0"/>
            <stop offset="0.95" stop-color="#010101"/>
        </linearGradient>
        <linearGradient id="paint2_linear_32_532" x1="268.628" y1="149.558" x2="252.745" y2="202.107" gradientUnits="userSpaceOnUse">
            <stop stop-color="#010101" stop-opacity="0"/>
            <stop offset="0.95" stop-color="#010101"/>
        </linearGradient>
        <linearGradient id="paint3_linear_32_532" x1="207.586" y1="159.338" x2="247.891" y2="159.338" gradientUnits="userSpaceOnUse">
            <stop stop-color="#E5C6D6"/>
            <stop offset="0.42" stop-color="#EAD4D0"/>
            <stop offset="1" stop-color="#F0E9CB"/>
        </linearGradient>
        <linearGradient id="paint4_linear_32_532" x1="278.036" y1="245.12" x2="293.322" y2="245.12" gradientUnits="userSpaceOnUse">
            <stop stop-color="#010101" stop-opacity="0"/>
            <stop offset="0.95" stop-color="#010101"/>
        </linearGradient>
        <linearGradient id="paint5_linear_32_532" x1="261.791" y1="220.616" x2="283.669" y2="220.616" gradientUnits="userSpaceOnUse">
            <stop stop-color="#010101" stop-opacity="0"/>
            <stop offset="0.95" stop-color="#010101"/>
        </linearGradient>
        <linearGradient id="paint6_linear_32_532" x1="262.805" y1="210.7" x2="290.152" y2="210.7" gradientUnits="userSpaceOnUse">
            <stop stop-color="#E5C6D6"/>
            <stop offset="0.42" stop-color="#EAD4D0"/>
            <stop offset="1" stop-color="#F0E9CB"/>
        </linearGradient>
        <linearGradient id="paint7_linear_32_532" x1="235.621" y1="152.909" x2="256.285" y2="152.909" gradientUnits="userSpaceOnUse">
            <stop stop-color="#E5C6D6"/>
            <stop offset="0.42" stop-color="#EAD4D0"/>
            <stop offset="1" stop-color="#F0E9CB"/>
        </linearGradient>
        <linearGradient id="paint8_linear_32_532" x1="291.558" y1="262.953" x2="255.234" y2="296.851" gradientUnits="userSpaceOnUse">
            <stop stop-color="#010101" stop-opacity="0"/>
            <stop offset="0.95" stop-color="#010101"/>
        </linearGradient>
        <linearGradient id="paint9_linear_32_532" x1="263.065" y1="264.683" x2="320.811" y2="264.683" gradientUnits="userSpaceOnUse">
            <stop stop-color="#010101" stop-opacity="0"/>
            <stop offset="0.95" stop-color="#010101"/>
        </linearGradient>
        <linearGradient id="paint10_linear_32_532" x1="211.588" y1="262.271" x2="248.507" y2="262.271" gradientUnits="userSpaceOnUse">
            <stop stop-color="#010101" stop-opacity="0"/>
            <stop offset="0.95" stop-color="#010101"/>
        </linearGradient>
    </defs>
</svg>
