<svg width="452" height="434" viewBox="0 0 452 434" fill="none" xmlns="http://www.w3.org/2000/svg">
    <g opacity="0.65">
        <path opacity="0.18" d="M462.727 404.25C451.996 419.607 436.129 431.69 417.872 435.767C396.939 440.432 375.35 434.444 354.76 428.564C324.419 419.881 293.197 411.384 261.797 414.305C209.534 419.087 163.209 454.887 110.74 455.965C77.8317 456.435 46.2169 443.166 23.5005 419.352C17.6009 413.07 12.3383 406.024 9.22187 397.958C5.67427 388.678 5.21367 378.486 5.80167 368.568C7.37947 342.177 15.9447 317.922 29.9587 295.989L30.2919 295.46C44.6587 273.018 52.9299 247.234 54.3019 220.627C54.7919 210.945 54.3019 201.214 55.0369 191.541C56.3305 173.107 61.7205 155.124 68.9921 138.16C79.6545 113.357 94.9131 90.062 116.14 73.5C130.546 62.2496 147.265 54.4096 163.827 46.6774C172.323 42.6986 180.996 38.6806 190.345 37.4066C196.853 36.7108 203.419 36.8578 209.887 37.8672C215.473 38.5728 220.961 39.543 226.37 40.7876C258.044 48.0592 287.375 63.1904 311.65 84.7896C337.189 107.418 358.513 132.741 379.701 159.407C408.68 195.843 442.058 229.585 462.825 271.254C466.794 279.212 470.155 287.463 472.889 295.931C484.669 332.485 484.404 373.331 462.727 404.26V404.25Z" fill="#68E1FD"/>
        <path opacity="0.39" d="M276.664 413.139C347.761 413.139 405.397 402.74 405.397 389.913C405.397 377.085 347.761 366.687 276.664 366.687C205.567 366.687 147.931 377.085 147.931 389.913C147.931 402.74 205.567 413.139 276.664 413.139Z" fill="#68E1FD"/>
        <path d="M289.704 360.31C289.866 344.052 257.702 330.551 217.863 330.155C178.024 329.759 145.598 342.617 145.436 358.875C145.274 375.133 177.439 388.634 217.277 389.03C257.116 389.427 289.543 376.568 289.704 360.31Z" fill="#68E1FD"/>
        <path d="M284.755 365.427C284.953 351.578 257.597 339.957 223.654 339.472C189.711 338.986 162.034 349.819 161.836 363.668C161.638 377.517 188.994 389.137 222.937 389.623C256.88 390.109 284.557 379.276 284.755 365.427Z" fill="url(#paint0_linear_37_850)"/>
        <path d="M184.524 361.581L194.373 361.738C194.765 359.141 196.392 356.896 198.744 355.72L205.261 356.769C202.987 357.847 201.39 359.974 200.988 362.463C200.988 365.256 204.937 367.235 210.494 367.333C214.826 367.647 219.079 366.059 222.166 362.992C226.576 358.425 232.809 356.112 239.12 356.681C247.244 356.681 253.34 359.209 254.761 362.904L264.61 363.061V365.52L255.172 365.383C254.839 367.529 253.555 369.411 251.683 370.518L245.245 369.401C247.097 368.382 248.342 366.52 248.577 364.423C248.577 361.404 244.128 360.15 240.208 360.081C235.945 359.836 231.809 361.61 229.045 364.864C224.861 368.901 219.775 370.881 211.004 370.881C203.301 370.881 195.97 368.509 194.491 364.344H184.357L184.514 361.581H184.524Z" fill="#68E1FD"/>
        <path d="M230.829 384.621C190.982 384.052 158.868 370.43 159.103 354.152C159.103 352.349 157.711 342.118 158.535 340.501C164.816 326.85 196.216 325.242 231.672 325.732C266.56 326.252 295.793 325.732 302.31 339.198C303.271 341.128 303.428 354.231 303.398 356.181C303.192 372.41 270.666 385.169 230.839 384.611L230.829 384.621Z" fill="url(#paint1_linear_37_850)"/>
        <path d="M302.875 342.633C303.108 326.376 271.002 312.735 231.166 312.165C191.329 311.595 158.847 324.312 158.614 340.569C158.381 356.826 190.487 370.467 230.323 371.037C270.16 371.607 302.642 358.891 302.875 342.633Z" fill="#68E1FD"/>
        <path d="M292.204 342.481C292.402 328.632 265.047 317.011 231.104 316.525C197.161 316.04 169.484 326.873 169.285 340.721C169.087 354.57 196.443 366.191 230.386 366.677C264.329 367.163 292.006 356.33 292.204 342.481Z" fill="url(#paint2_linear_37_850)"/>
        <path d="M191.972 338.845H201.811C202.203 336.248 203.84 334.004 206.192 332.828L212.729 333.886C210.435 334.925 208.828 337.051 208.456 339.541C208.456 342.334 212.395 344.352 217.923 344.411C222.264 344.764 226.547 343.186 229.614 340.089C234.014 335.503 240.257 333.171 246.588 333.768C254.673 333.768 260.807 336.326 262.219 339.991L272.058 340.148V342.618L262.581 342.461C262.287 344.627 260.994 346.528 259.092 347.596L252.683 346.518C254.535 345.489 255.79 343.627 256.045 341.52C256.045 338.521 251.635 337.247 247.675 337.198C243.432 336.953 239.316 338.678 236.513 341.863C232.329 345.881 227.262 347.88 218.471 347.88C210.749 347.88 203.438 345.47 201.978 341.344L191.845 341.187L191.982 338.845H191.972Z" fill="#68E1FD"/>
        <path d="M230.829 360.258C190.982 359.689 158.868 346.067 159.103 329.799C159.103 327.996 157.711 317.765 158.535 316.148C164.816 302.487 196.216 300.889 231.672 301.379C266.56 301.879 295.793 301.379 302.31 314.845C303.271 316.775 303.428 329.878 303.398 331.828C303.192 348.106 270.666 360.816 230.839 360.248L230.829 360.258Z" fill="url(#paint3_linear_37_850)"/>
        <path d="M302.878 318.285C303.11 302.028 271.005 288.387 231.169 287.816C191.332 287.246 158.85 299.963 158.617 316.22C158.384 332.477 190.489 346.119 230.326 346.689C270.163 347.259 302.645 334.542 302.878 318.285Z" fill="#68E1FD"/>
        <path d="M292.207 313.022C292.405 299.173 265.05 287.552 231.107 287.067C197.164 286.581 169.487 297.414 169.289 311.262C169.09 325.111 196.446 336.732 230.389 337.218C264.332 337.704 292.009 326.871 292.207 313.022Z" fill="url(#paint4_linear_37_850)"/>
        <path d="M191.972 314.306L201.811 314.462C202.193 311.856 203.83 309.611 206.192 308.445L212.728 309.464C210.435 310.523 208.838 312.659 208.456 315.158C208.456 317.951 212.395 319.96 217.922 320.029C222.274 320.382 226.546 318.784 229.614 315.687C234.014 311.101 240.266 308.778 246.587 309.376C254.672 309.376 260.807 311.934 262.218 315.599L272.058 315.756V318.216L262.581 318.079C262.277 320.235 260.984 322.136 259.092 323.214L252.712 322.185C254.574 321.166 255.829 319.304 256.074 317.206C256.074 314.188 251.664 312.934 247.705 312.865C243.442 312.649 239.316 314.413 236.542 317.647C232.358 321.685 227.272 323.665 218.501 323.665C210.778 323.665 203.467 321.264 201.988 317.128L191.854 316.991L191.982 314.315L191.972 314.306Z" fill="#68E1FD"/>
        <path d="M230.917 332.828C191.071 332.338 158.927 318.755 159.113 302.516C159.113 300.713 157.721 290.501 158.515 288.865C164.767 275.204 196.196 273.508 231.603 273.949C266.491 274.38 295.803 273.812 302.31 287.267C303.241 289.198 303.457 302.301 303.428 304.251C303.222 320.529 270.764 333.229 230.917 332.837V332.828Z" fill="url(#paint5_linear_37_850)"/>
        <path d="M302.992 285.607C303.154 269.349 270.989 255.848 231.15 255.452C191.312 255.056 158.885 267.914 158.723 284.172C158.562 300.43 190.726 313.931 230.565 314.327C270.403 314.724 302.83 301.865 302.992 285.607Z" fill="#68E1FD"/>
        <path d="M189.267 289.061L199.116 289.218C199.508 286.621 201.135 284.376 203.487 283.2L210.004 284.259C207.731 285.327 206.133 287.454 205.731 289.943C205.731 292.736 209.681 294.715 215.237 294.813C219.569 295.127 223.822 293.549 226.909 290.492C231.309 285.925 237.552 283.602 243.863 284.171C251.987 284.171 258.083 286.699 259.504 290.394L269.353 290.55V293.01L259.916 292.873C259.582 295.019 258.299 296.901 256.427 298.008L249.988 296.891C251.84 295.872 253.085 294.01 253.32 291.913C253.32 288.894 248.871 287.64 244.951 287.591C240.688 287.336 236.543 289.1 233.789 292.363C229.604 296.401 224.518 298.381 215.747 298.381C208.044 298.381 200.714 296.009 199.234 291.844H189.101L189.258 289.08L189.267 289.061Z" fill="#68E1FD"/>
        <path d="M233.063 306.368C193.217 305.799 161.102 292.177 161.357 275.899C161.357 274.096 159.965 263.885 160.788 262.248C167.07 248.597 198.469 247.009 233.906 247.479C268.794 247.999 298.028 247.479 304.554 260.964C305.505 262.875 305.662 275.997 305.632 277.948C305.427 294.265 272.92 306.936 233.073 306.368H233.063Z" fill="url(#paint6_linear_37_850)"/>
        <path d="M305.101 264.378C305.333 248.121 273.228 234.48 233.391 233.91C193.555 233.339 161.072 246.056 160.84 262.313C160.607 278.57 192.712 292.212 232.549 292.782C272.385 293.352 304.868 280.635 305.101 264.378Z" fill="#68E1FD"/>
        <path d="M294.429 264.225C294.628 250.376 267.272 238.756 233.329 238.27C199.386 237.784 171.709 248.617 171.511 262.466C171.313 276.315 198.668 287.935 232.611 288.421C266.554 288.907 294.231 278.074 294.429 264.225Z" fill="url(#paint7_linear_37_850)"/>
        <path d="M196.725 266.354H206.564C206.956 263.757 208.593 261.513 210.945 260.337L217.482 261.395C215.208 262.424 213.611 264.522 213.209 266.981C213.209 269.774 217.148 271.793 222.676 271.852C227.017 272.205 231.3 270.627 234.367 267.53C238.767 262.963 245.01 260.651 251.321 261.248C259.406 261.248 265.541 263.806 266.952 267.471L276.723 267.628V270.098L267.246 269.941C266.952 272.107 265.658 274.008 263.757 275.076L257.348 273.998C259.2 272.969 260.455 271.107 260.709 269C260.709 266.001 256.299 264.727 252.34 264.678C248.097 264.433 243.981 266.158 241.178 269.343C236.993 273.381 231.927 275.36 223.136 275.36C215.414 275.36 208.103 272.95 206.643 268.824L196.51 268.667L196.735 266.354H196.725Z" fill="#68E1FD"/>
        <path d="M231.946 283.181C192.109 282.612 159.995 268.99 160.24 252.713C160.24 250.909 158.848 240.678 159.671 239.061C165.953 225.41 197.352 223.822 232.809 224.293C267.697 224.812 296.911 224.293 303.447 237.758C304.408 239.688 304.564 252.801 304.525 254.761C304.368 271.019 271.813 283.749 231.966 283.181H231.946Z" fill="url(#paint8_linear_37_850)"/>
        <path d="M303.999 241.202C304.232 224.945 272.127 211.304 232.29 210.734C192.454 210.164 159.971 222.881 159.738 239.138C159.506 255.395 191.611 269.036 231.448 269.606C271.284 270.176 303.767 257.46 303.999 241.202Z" fill="#68E1FD"/>
        <path d="M293.328 241.05C293.527 227.201 266.171 215.58 232.228 215.094C198.285 214.609 170.608 225.442 170.41 239.29C170.211 253.139 197.567 264.76 231.51 265.246C265.453 265.732 293.13 254.899 293.328 241.05Z" fill="url(#paint9_linear_37_850)"/>
        <path d="M193.109 237.238L202.879 237.376C203.281 234.779 204.918 232.534 207.28 231.358L213.797 232.387C211.513 233.446 209.916 235.582 209.524 238.071C209.524 240.864 213.473 242.883 219 242.942C223.342 243.295 227.624 241.717 230.692 238.62C235.082 234.034 241.325 231.711 247.646 232.299C255.741 232.299 261.885 234.857 263.287 238.522L273.057 238.679V241.149L263.59 240.992C263.296 243.158 262.003 245.059 260.102 246.127L253.692 245.049C255.545 244.01 256.799 242.158 257.054 240.051C257.054 237.052 252.634 235.778 248.685 235.729C244.422 235.504 240.296 237.268 237.522 240.502C233.338 244.539 228.252 246.519 219.481 246.519C211.748 246.519 204.447 244.118 202.968 240.002L192.972 239.835L193.099 237.238H193.109Z" fill="#68E1FD"/>
        <path d="M272.342 234.612C274.39 237.023 273.998 240.825 272.234 243.461C270.294 245.98 267.765 247.979 264.864 249.292C246.725 258.955 226.194 262.973 206.133 267.52C205.378 267.628 204.653 267.922 204.036 268.373C202.909 269.363 202.987 271.166 202.889 272.558C202.517 277.487 199.097 281.613 197.695 286.356C196.872 289.953 196.617 293.657 196.96 297.322L198.175 327.261C198.313 328.32 198.156 329.398 197.715 330.378C197.039 331.338 196.059 332.034 194.922 332.347C190.806 333.759 186.337 333.71 182.25 332.22C181.515 332.004 180.849 331.583 180.32 331.024C179.84 330.27 179.575 329.398 179.565 328.496C177.723 310.062 174.969 291.707 171.304 273.547C170.667 271.352 170.588 269.039 171.069 266.805C172.196 263.081 176.135 261.101 179.693 259.504L222.009 240.737C224.528 239.747 226.909 238.444 229.094 236.856C230.584 235.67 231.887 234.23 233.279 232.995C238.551 228.516 245.294 227.576 251.801 229.202C257.661 230.643 268.285 229.849 272.332 234.622L272.342 234.612Z" fill="url(#paint10_linear_37_850)"/>
        <path d="M188.679 327.624C188.679 331.936 181.702 335.993 178.311 337.012C176.87 337.326 175.469 337.796 174.126 338.404C172.794 339.06 171.951 340.432 171.98 341.922C172.117 343.196 173.156 344.215 173.372 345.45C173.509 346.528 173.372 347.626 172.97 348.635C171.686 352.82 166.531 355.416 165.267 359.591C158.133 358.866 154.909 359.464 147.853 358.278L141.963 354.505C144.922 348.919 147.862 343.421 150.871 337.855C152.008 335.503 153.409 333.288 155.056 331.25C156.986 329.231 159.181 327.477 161.592 326.046C167.825 322.008 174.303 318.382 181.006 315.188C180.153 315.638 188.699 326.497 188.699 327.614L188.679 327.624Z" fill="url(#paint11_linear_37_850)"/>
        <path d="M197.156 192.982C196.363 193.403 195.451 193.579 194.559 193.472C194.716 189.64 195.52 185.867 196.951 182.309C198.421 179.213 200.802 176.645 202.782 173.842C203.83 172.225 204.967 170.657 206.172 169.148C207.368 167.609 208.995 166.463 210.847 165.865C211.141 165.738 211.474 165.777 211.729 165.973C211.827 166.11 211.896 166.267 211.915 166.433L213.601 176.047C214.012 177.576 213.983 179.193 213.532 180.712C212.68 182.084 211.582 183.289 210.298 184.269C207.829 186.612 205.104 188.67 202.174 190.394C200.557 191.355 198.881 192.217 197.166 192.972L197.156 192.982Z" fill="#FFB4A3"/>
        <path d="M197.156 192.982C196.363 193.403 195.451 193.579 194.559 193.472C194.716 189.64 195.52 185.867 196.951 182.309C198.421 179.213 200.802 176.645 202.782 173.842C203.83 172.225 204.967 170.657 206.172 169.148C207.368 167.609 208.995 166.463 210.847 165.865C211.141 165.738 211.474 165.777 211.729 165.973C211.827 166.11 211.896 166.267 211.915 166.433L213.601 176.047C214.012 177.576 213.983 179.193 213.532 180.712C212.68 182.084 211.582 183.289 210.298 184.269C207.829 186.612 205.104 188.67 202.174 190.394C200.557 191.355 198.881 192.217 197.166 192.972L197.156 192.982Z" fill="url(#paint12_linear_37_850)"/>
        <path d="M184.534 308.043C185.259 310.415 185.926 313.208 184.534 315.207C183.858 316.06 182.956 316.707 181.937 317.079C179.516 318.275 176.625 317.961 174.509 316.285C173.421 315.08 172.647 313.61 172.264 312.032C170.393 306.25 169.04 300.301 168.217 294.274C168.099 293.716 168.129 293.138 168.305 292.599C168.609 292.011 169.099 291.55 169.697 291.285C172.862 289.58 177.801 288.218 179.575 292.001C181.878 296.842 182.927 302.859 184.534 308.053V308.043Z" fill="#FFB4A3"/>
        <path d="M174.989 310.787C174.313 310.699 173.636 310.758 172.99 310.983C172.549 311.228 172.176 311.562 171.872 311.963L165.022 319.794C163.699 321.303 162.229 323.38 163.219 325.164C163.885 326.173 164.963 326.82 166.159 326.938C169.422 327.526 172.735 326.35 175.792 325.027C177.899 324.106 179.977 323.086 182.015 321.999C183.554 321.303 184.887 320.244 185.906 318.902C187.474 316.471 187.935 310.67 185.142 308.857C183.75 307.945 182.515 308.602 181.182 309.229C179.281 310.258 177.145 310.797 174.989 310.797V310.787Z" fill="#68E1FD"/>
        <path d="M146.53 334.66C146.471 335.101 146.52 335.552 146.667 335.973C146.902 336.395 147.245 336.747 147.676 336.983C148.97 337.894 150.499 338.413 152.086 338.492C153.703 338.56 155.252 337.855 156.271 336.591C157.006 335.415 157.457 334.082 157.564 332.7C158.143 329.721 158.427 326.693 158.417 323.655C158.456 323.224 158.319 322.802 158.045 322.469C157.819 322.302 157.545 322.185 157.261 322.145C154.771 321.626 149.881 320.313 148.617 323.39C147.323 327.016 146.618 330.818 146.52 334.67L146.53 334.66Z" fill="#FFB4A3"/>
        <path d="M136.093 334.347C133.976 334.454 131.888 334.856 129.879 335.542C127.851 336.258 126.204 337.767 125.332 339.727C124.94 340.697 124.891 341.775 125.205 342.765C125.891 344.225 127.096 345.381 128.586 345.999C135.632 349.811 143.619 351.555 151.616 351.036C153.684 351.114 155.683 350.36 157.202 348.958C158.495 347.469 158.593 345.283 158.682 343.294L158.956 333.817C157.172 333.543 155.526 334.709 153.821 335.297C150.891 336.307 149.734 333.906 147.304 333.298C144.119 332.583 139.336 334.013 136.093 334.327V334.347Z" fill="#68E1FD"/>
        <path d="M174.989 310.787C174.313 310.699 173.636 310.758 172.99 310.983C172.549 311.228 172.176 311.562 171.872 311.963L165.022 319.794C163.699 321.303 162.229 323.38 163.219 325.164C163.885 326.173 164.963 326.82 166.159 326.938C169.422 327.526 172.735 326.35 175.792 325.027C177.899 324.106 179.977 323.086 182.015 321.999C183.554 321.303 184.887 320.244 185.906 318.902C187.474 316.471 187.935 310.67 185.142 308.857C183.75 307.945 182.515 308.602 181.182 309.229C179.281 310.258 177.145 310.797 174.989 310.797V310.787Z" fill="url(#paint13_linear_37_850)"/>
        <path d="M136.093 334.347C133.976 334.454 131.888 334.856 129.879 335.542C127.851 336.258 126.204 337.767 125.332 339.727C124.94 340.697 124.891 341.775 125.205 342.765C125.891 344.225 127.096 345.381 128.586 345.999C135.632 349.811 143.619 351.555 151.616 351.036C153.684 351.114 155.683 350.36 157.202 348.958C158.495 347.469 158.593 345.283 158.682 343.294L158.956 333.817C157.172 333.543 155.526 334.709 153.821 335.297C150.891 336.307 149.734 333.906 147.304 333.298C144.119 332.583 139.336 334.013 136.093 334.327V334.347Z" fill="url(#paint14_linear_37_850)"/>
        <path d="M161.416 229.722C159.387 230.133 157.525 231.104 156.016 232.515C154.262 234.494 154.105 237.425 154.105 240.09C154.154 259.239 157.711 278.212 164.601 296.068C164.934 297.391 165.787 298.537 166.963 299.233C168.011 299.537 169.138 299.488 170.157 299.076C174.293 297.92 178.37 296.548 182.368 294.97L176.949 258.583C176.694 257.573 176.753 256.505 177.115 255.525C177.507 254.82 178.066 254.222 178.752 253.781C184.926 249.214 191.463 245.147 198.293 241.629C203.713 238.836 209.916 235.651 211.415 229.663C212.023 227.625 211.621 225.42 210.337 223.714C209.485 222.852 208.466 222.166 207.348 221.686C203.752 219.883 199.214 217.57 195.069 218.001C191.757 218.354 190.492 220.294 187.709 221.725C179.938 225.763 169.746 227.252 161.416 229.692V229.722Z" fill="#282328"/>
        <path d="M220.03 229.006C216.668 227.693 213.405 226.145 210.259 224.371C198.293 217.687 208.093 214.395 212.092 206.329C214.885 200.626 213.777 193.766 212.288 187.572C209.691 176.674 206.212 165.395 208.73 154.477C209.054 152.713 209.749 151.028 210.769 149.548C211.494 148.637 212.337 147.813 213.268 147.108C215.786 144.913 218.687 143.188 221.823 142.031C227.85 140.052 234.534 141.502 240.208 144.393C262.473 155.722 267.217 184.397 266.335 207.299C266.08 213.66 265.139 220.402 261.092 225.263C257.299 229.83 251.321 231.976 245.5 232.721C236.837 233.622 228.085 232.348 220.039 229.026L220.03 229.006Z" fill="white"/>
        <path d="M233.475 157.662C231.515 160.132 228.595 161.651 225.449 161.847C224.959 161.906 224.469 161.798 224.057 161.543C223.616 161.092 223.371 160.485 223.362 159.858C223.224 158.603 223.038 156.986 222.901 155.379C222.764 153.772 222.509 151.802 222.342 150.44C221.97 146.794 220.588 143.335 218.354 140.434C217.903 139.797 217.374 139.219 216.776 138.719C212.925 135.24 228.614 136.612 230.731 131.898C233.122 134.966 232.907 139.307 233.955 143.06C234.632 144.893 235.22 146.755 235.7 148.646C236.288 151.831 235.484 155.124 233.485 157.672L233.475 157.662Z" fill="#FFB4A3"/>
        <path d="M223.097 156.094L222.891 155.359C222.685 153.576 222.499 151.782 222.332 150.42C221.96 146.775 220.578 143.315 218.344 140.414L218.236 140.022C218.236 140.022 230.672 131.869 231.995 141.414C233.318 150.959 223.107 156.094 223.107 156.094H223.097Z" fill="url(#paint15_linear_37_850)"/>
        <path d="M210.063 134.76C209.808 136.749 210.181 138.768 211.112 140.542C211.611 141.287 212.229 141.933 212.954 142.453C217.893 146.177 225.322 145.422 230.231 141.571C235.141 137.719 237.689 131.31 237.954 125.048C238.081 121.785 237.562 118.276 235.376 115.895C232.907 113.504 229.389 112.524 226.037 113.298C221.519 114.337 217.403 116.679 214.199 120.021C211.072 123.539 210.288 130.291 210.063 134.76Z" fill="#FFB4A3"/>
        <path d="M165.297 255.094C162.729 258.397 160.71 262.072 159.299 266.011C151.479 285.209 146.402 305.407 144.227 326.026C150.606 326.84 157.065 326.84 163.444 326.026C163.944 311.464 166.159 297.009 170.05 282.955C170.736 279.947 171.912 277.066 173.529 274.429C176.322 270.245 181.035 267.824 185.514 265.57C195.824 260.435 206.623 256.348 217.736 253.359C222.431 252.036 227.154 250.851 231.692 249.273C235.641 248.087 239.336 246.196 242.609 243.687C245.921 241.09 248.048 237.278 248.499 233.093C248.43 234.142 225.194 232.995 223.028 232.76C215.747 231.976 207.143 227.732 199.94 230.721C194.354 233.064 189.15 237.954 184.083 241.325C177.86 245.431 170.265 249.234 165.297 255.104V255.094Z" fill="#473F47"/>
        <path d="M198.479 253.546L239.041 233.416L192.09 216.502L155.104 232.917L198.479 253.546Z" fill="#68E1FD"/>
        <path d="M198.244 250.488L232.113 233.681L192.913 219.559L162.023 233.26L198.244 250.488Z" fill="url(#paint16_linear_37_850)"/>
        <path d="M254.78 167.355C254.888 168.05 254.976 168.746 255.045 169.452C256.152 179.761 255.153 189.924 254.78 200.155C254.545 206.515 253.722 218.638 247.058 221.882C234.612 227.977 210.602 225.635 210.602 225.635C207.819 225.184 204.967 225.302 202.233 225.968C200.743 226.439 199.371 227.242 197.911 227.801C192.668 229.849 186.749 228.82 181.271 227.801C180.31 227.683 179.389 227.37 178.566 226.88C176.42 225.488 176.518 221.95 178.115 219.902C179.889 217.981 182.221 216.678 184.789 216.178C191.766 214.14 199.371 213.248 206.378 215.326C207.299 215.59 208.221 215.914 209.171 216.09C210.279 216.266 211.386 216.345 212.503 216.325L220.99 216.394C230.761 216.492 239.904 216.531 241.364 204.947C241.913 200.665 242.021 196.343 241.697 192.041C241.109 184.25 239.12 176.547 239.532 168.766C239.551 166.306 240.149 163.885 241.276 161.7C242.442 159.515 244.667 158.084 247.136 157.947C249.724 158.152 252.017 159.711 253.154 162.053C253.996 163.709 254.545 165.512 254.771 167.355H254.78Z" fill="#FFB4A3"/>
        <path d="M139.875 195.882L191.561 222.597L198.479 253.546L155.105 232.917L139.875 195.882Z" fill="#68E1FD"/>
        <path d="M228.644 129.576C229.095 131.937 229.281 134.338 229.193 136.739C230.839 135.348 230.712 131.614 232.907 131.712C234.22 131.712 234.837 133.594 234.22 134.779C233.485 135.906 232.319 136.681 230.996 136.926C230.623 141.963 234.622 145.422 237.973 148.48C241.639 152.037 244.196 156.575 245.343 161.543C246.931 167.796 246.852 174.352 246.735 180.849C248.518 179.458 251.047 180.183 253.291 180.418C259.916 181.104 266.54 175.851 267.971 169.256C269.226 162.484 266.099 155.644 260.151 152.155C258.367 151.136 256.299 150.342 255.192 148.597C253.683 146.206 254.575 143.1 254.663 140.228C254.722 133.799 250.38 128.164 244.157 126.577C245.382 124.362 246.156 121.932 246.431 119.413C246.431 116.003 245.02 112.749 242.521 110.426C240.071 108.172 237.229 106.359 234.151 105.095C231.26 103.772 228.026 102.586 224.969 103.488C221.382 104.566 219.148 108.192 217.883 111.74C216.119 110.926 214.022 111.338 212.709 112.769C211.406 114.229 210.739 116.15 210.857 118.1C210.886 119.364 211.151 120.609 211.621 121.775C212.807 120.383 214.228 118.982 215.659 120.001C217.08 121.02 217.932 123.117 219.246 124.186C220.667 125.371 222.215 126.41 223.852 127.273C224.42 127.635 228.556 129.105 228.654 129.576H228.644Z" fill="#231F20"/>
        <path d="M210.661 158.633C210.72 158.309 210.906 158.025 211.19 157.849C211.68 157.662 212.141 158.201 212.67 158.28C213.062 158.309 213.444 158.162 213.718 157.878C213.993 157.604 214.238 157.31 214.473 156.996C214.875 156.545 215.384 156.183 215.767 155.722C216.521 154.781 216.737 153.517 216.335 152.37C217.57 152.096 218.422 150.969 218.344 149.705C218.295 149.528 218.295 149.342 218.344 149.156C218.471 148.901 218.775 148.852 219.04 148.784C219.902 148.539 220.588 147.892 220.892 147.049C221.108 146.579 221.019 146.03 220.667 145.657C220.451 145.51 220.206 145.422 219.951 145.393C217.923 144.991 215.904 144.638 213.865 144.344C213.562 144.305 213.258 144.227 212.974 144.119C212.542 143.913 212.239 143.521 211.827 143.286C210.641 142.757 209.25 143.178 208.564 144.276C207.985 145.461 207.574 146.716 207.348 148.019C206.829 149.411 206.888 150.979 206.3 152.37C205.869 153.341 205.349 154.281 204.751 155.163C202.145 159.348 191.815 173.186 189.522 176.096C187.082 179.252 184.691 182.672 184.191 186.621C183.966 188.003 184.122 189.414 184.622 190.708C186.474 195.089 192.727 196.294 196.265 193.374C197.98 191.806 199.293 189.836 200.077 187.65C200.743 186.014 201.106 184.299 201.733 182.672C202.341 181.467 203.007 180.291 203.732 179.154C205.369 176.008 206.77 172.745 207.917 169.383C208.613 167.355 209.201 165.306 209.7 163.229C209.936 162.18 210.161 161.132 210.357 160.073C210.465 159.769 210.494 159.142 210.631 158.623L210.661 158.633Z" fill="#FFB4A3"/>
    </g>
    <defs>
        <linearGradient id="paint0_linear_37_850" x1="161.83" y1="364.548" x2="284.752" y2="364.548" gradientUnits="userSpaceOnUse">
            <stop stop-color="white" stop-opacity="0"/>
            <stop offset="1" stop-color="white"/>
        </linearGradient>
        <linearGradient id="paint1_linear_37_850" x1="158.28" y1="355.152" x2="303.398" y2="355.152" gradientUnits="userSpaceOnUse">
            <stop stop-color="white" stop-opacity="0"/>
            <stop offset="1" stop-color="white"/>
        </linearGradient>
        <linearGradient id="paint2_linear_37_850" x1="169.283" y1="341.606" x2="292.205" y2="341.606" gradientUnits="userSpaceOnUse">
            <stop stop-color="white" stop-opacity="0"/>
            <stop offset="1" stop-color="white"/>
        </linearGradient>
        <linearGradient id="paint3_linear_37_850" x1="158.28" y1="330.789" x2="303.398" y2="330.789" gradientUnits="userSpaceOnUse">
            <stop stop-color="white" stop-opacity="0"/>
            <stop offset="1" stop-color="white"/>
        </linearGradient>
        <linearGradient id="paint4_linear_37_850" x1="169.286" y1="312.14" x2="292.208" y2="312.14" gradientUnits="userSpaceOnUse">
            <stop stop-color="white" stop-opacity="0"/>
            <stop offset="1" stop-color="white"/>
        </linearGradient>
        <linearGradient id="paint5_linear_37_850" x1="158.26" y1="303.359" x2="303.428" y2="303.359" gradientUnits="userSpaceOnUse">
            <stop stop-color="white" stop-opacity="0"/>
            <stop offset="1" stop-color="white"/>
        </linearGradient>
        <linearGradient id="paint6_linear_37_850" x1="160.524" y1="276.899" x2="305.632" y2="276.899" gradientUnits="userSpaceOnUse">
            <stop stop-color="white" stop-opacity="0"/>
            <stop offset="1" stop-color="white"/>
        </linearGradient>
        <linearGradient id="paint7_linear_37_850" x1="171.516" y1="263.346" x2="294.427" y2="263.346" gradientUnits="userSpaceOnUse">
            <stop stop-color="white" stop-opacity="0"/>
            <stop offset="1" stop-color="white"/>
        </linearGradient>
        <linearGradient id="paint8_linear_37_850" x1="159.407" y1="253.722" x2="304.515" y2="253.722" gradientUnits="userSpaceOnUse">
            <stop stop-color="white" stop-opacity="0"/>
            <stop offset="1" stop-color="white"/>
        </linearGradient>
        <linearGradient id="paint9_linear_37_850" x1="170.406" y1="240.169" x2="293.328" y2="240.169" gradientUnits="userSpaceOnUse">
            <stop stop-color="white" stop-opacity="0"/>
            <stop offset="1" stop-color="white"/>
        </linearGradient>
        <linearGradient id="paint10_linear_37_850" x1="175.998" y1="229.996" x2="301.144" y2="361.316" gradientUnits="userSpaceOnUse">
            <stop stop-color="#231F20"/>
            <stop offset="0.13" stop-color="#231F20" stop-opacity="0.69"/>
            <stop offset="0.25" stop-color="#231F20" stop-opacity="0.32"/>
            <stop offset="1" stop-color="#231F20" stop-opacity="0"/>
        </linearGradient>
        <linearGradient id="paint11_linear_37_850" x1="123.274" y1="299.547" x2="232.564" y2="400.585" gradientUnits="userSpaceOnUse">
            <stop stop-color="#231F20"/>
            <stop offset="0.13" stop-color="#231F20" stop-opacity="0.69"/>
            <stop offset="0.25" stop-color="#231F20" stop-opacity="0.32"/>
            <stop offset="1" stop-color="#231F20" stop-opacity="0"/>
        </linearGradient>
        <linearGradient id="paint12_linear_37_850" x1="205.594" y1="158.339" x2="202.919" y2="212.239" gradientUnits="userSpaceOnUse">
            <stop stop-color="#231F20"/>
            <stop offset="0.13" stop-color="#231F20" stop-opacity="0.69"/>
            <stop offset="0.25" stop-color="#231F20" stop-opacity="0.32"/>
            <stop offset="1" stop-color="#231F20" stop-opacity="0"/>
        </linearGradient>
        <linearGradient id="paint13_linear_37_850" x1="164.424" y1="312.453" x2="202.635" y2="331.426" gradientUnits="userSpaceOnUse">
            <stop stop-color="#231F20"/>
            <stop offset="0.13" stop-color="#231F20" stop-opacity="0.69"/>
            <stop offset="0.25" stop-color="#231F20" stop-opacity="0.32"/>
            <stop offset="1" stop-color="#231F20" stop-opacity="0"/>
        </linearGradient>
        <linearGradient id="paint14_linear_37_850" x1="133.202" y1="362.737" x2="155.595" y2="312.385" gradientUnits="userSpaceOnUse">
            <stop stop-color="#231F20"/>
            <stop offset="0.13" stop-color="#231F20" stop-opacity="0.69"/>
            <stop offset="0.25" stop-color="#231F20" stop-opacity="0.32"/>
            <stop offset="1" stop-color="#231F20" stop-opacity="0"/>
        </linearGradient>
        <linearGradient id="paint15_linear_37_850" x1="217.403" y1="126.185" x2="241.609" y2="179.056" gradientUnits="userSpaceOnUse">
            <stop stop-color="#231F20"/>
            <stop offset="0.13" stop-color="#231F20" stop-opacity="0.69"/>
            <stop offset="0.25" stop-color="#231F20" stop-opacity="0.32"/>
            <stop offset="1" stop-color="#231F20" stop-opacity="0"/>
        </linearGradient>
        <linearGradient id="paint16_linear_37_850" x1="190.336" y1="248.538" x2="205.986" y2="213.542" gradientUnits="userSpaceOnUse">
            <stop/>
            <stop offset="1" stop-opacity="0"/>
        </linearGradient>
    </defs>
</svg>
